<?xml version="1.0" encoding="UTF-8" standalone="no"?>
<!-- Created with Inkscape (http://www.inkscape.org/) -->

<svg
   xmlns:dc="http://purl.org/dc/elements/1.1/"
   xmlns:cc="http://creativecommons.org/ns#"
   xmlns:rdf="http://www.w3.org/1999/02/22-rdf-syntax-ns#"
   xmlns:svg="http://www.w3.org/2000/svg"
   xmlns="http://www.w3.org/2000/svg"
   xmlns:xlink="http://www.w3.org/1999/xlink"
   xmlns:sodipodi="http://sodipodi.sourceforge.net/DTD/sodipodi-0.dtd"
   xmlns:inkscape="http://www.inkscape.org/namespaces/inkscape"
   id="svg2"
   version="1.1"
   inkscape:version="0.91 r13725"
   width="2481"
   height="3503"
   sodipodi:docname="Pepper-and-Carrot_by-David-Revoy_E14P03.svg">
  <metadata
     id="metadata8">
    <rdf:RDF>
      <cc:Work
         rdf:about="">
        <dc:format>image/svg+xml</dc:format>
        <dc:type
           rdf:resource="http://purl.org/dc/dcmitype/StillImage" />
        <dc:title />
      </cc:Work>
    </rdf:RDF>
  </metadata>
  <defs
     id="defs6" />
  <sodipodi:namedview
     pagecolor="#ffffff"
     bordercolor="#666666"
     borderopacity="1"
     objecttolerance="10"
     gridtolerance="10"
     guidetolerance="10"
     inkscape:pageopacity="0"
     inkscape:pageshadow="2"
     inkscape:window-width="1440"
     inkscape:window-height="837"
     id="namedview4"
     showgrid="false"
     inkscape:zoom="0.28444887"
     inkscape:cx="1069.4521"
     inkscape:cy="2599.1802"
     inkscape:window-x="-4"
     inkscape:window-y="-4"
     inkscape:window-maximized="1"
     inkscape:current-layer="layer3" />
  <g
     inkscape:groupmode="layer"
     id="layer2"
     inkscape:label="artwork"
     sodipodi:insensitive="true">
    <image
       sodipodi:absref="C:\Users\Katka\Desktop\Feferonka a Karotka\Episode 14\cs\..\gfx_Pepper-and-Carrot_by-David-Revoy_E14P03.png"
       xlink:href="..\gfx_Pepper-and-Carrot_by-David-Revoy_E14P03.png"
       width="2481"
       height="3503"
       id="image10"
       x="0"
       y="0" />
  </g>
  <g
     inkscape:groupmode="layer"
     id="layer3"
     inkscape:label="speechbubbles"
     style="display:inline">
    <path
       style="color:#000000;display:inline;overflow:visible;visibility:visible;fill:#ffffff;fill-opacity:1;fill-rule:nonzero;stroke:none;stroke-width:1px;marker:none;enable-background:accumulate"
       d="m 1168.2298,382.74542 c 35.1233,-52.86105 104.0317,-79.64135 266.3028,-69.57075 104.0537,6.45761 163.778,26.28738 210.775,56.3661 22.1984,14.20733 42.0749,88.43237 18.4224,145.10287 -23.6526,56.67048 -97.5773,113.00361 -256.0649,97.4756 -158.4874,-15.52816 -158.5581,-17.65932 -181.7514,-31.11296 -44.0649,-25.56032 -92.8073,-145.39977 -57.6839,-198.26086 z"
       id="path4530"
       inkscape:connector-curvature="0"
       sodipodi:nodetypes="zsssssz" />
    <path
       style="color:#000000;display:inline;overflow:visible;visibility:visible;fill:#ffffff;fill-opacity:1;fill-rule:nonzero;stroke:none;stroke-width:1px;marker:none;enable-background:accumulate"
       d="m 1144.671,188.37816 c -5.2171,18.04469 -34.6427,19.55781 -45.4751,15.88991 21.8355,20.18631 21.0743,32.72839 -8.5723,34.67578 49.7178,36.381 9.0891,30.8757 1.0754,40.10089 39.0377,12.53769 21.5718,28.14117 14.6217,43.67415 44.87,0.53354 30.1861,25.43239 32.0773,45.26274 3.8039,-9.30528 21.8751,-37.63467 22.9624,-6.0918 29.6789,-30.0936 65.4263,-49.53257 68.2648,3.13136 11.9581,-26.49378 23.8803,-37.69113 22.9624,-6.0918 29.6284,-41.09892 56.2536,-26.30524 83.0367,-14.68913 7.0344,-12.40463 7.8541,-31.46172 30.6121,-26.9958 -3.1909,-12.29521 4.4931,-20.74689 21.8463,-25.76585 -23.0596,-7.42718 -27.3094,-15.08815 15.5071,-23.33253 -32.5809,-0.79746 -62.9628,-2.43129 -24.7383,-30.54704 -11.9921,-0.68032 -40.4445,22.78023 -27.1789,-45.87759 -20.621,21.97976 -42.6218,34.11104 -70.2128,-11.93096 -13.0574,23.00167 -35.7052,34.38382 -45.5582,5.6529 -3.5413,12.2485 -18.2256,16.85495 -30.6915,17.41359 -4.8206,-4.86535 -9.7925,-11.4737 -14.9808,-20.13172 -8.48,18.17954 -21.1651,30.4572 -45.5583,5.6529 z"
       id="path3549-3-7"
       inkscape:connector-curvature="0"
       sodipodi:nodetypes="cccccccccccccccccccc" />
    <path
       style="fill:#ffffff;fill-rule:evenodd;stroke:none;stroke-width:1px;stroke-linecap:butt;stroke-linejoin:miter;stroke-opacity:1"
       d="m 1497.7176,575.15777 c 39.3706,13.96771 -22.485,68.10223 -9.329,82.54185 9.0819,9.96796 46.6601,-7.96729 81.4034,37.57991 -40.7385,-30.89398 -73.2809,-5.93721 -92.7166,-17.39889 -36.9131,-21.76848 1.4853,-61.31653 3.4361,-70.97465 2.6091,-12.9174 17.2061,-31.74822 17.2061,-31.74822 z"
       id="path4186"
       inkscape:connector-curvature="0"
       sodipodi:nodetypes="cscssc" />
    <path
       style="fill:#ffffff;fill-rule:evenodd;stroke:none;stroke-width:1px;stroke-linecap:butt;stroke-linejoin:miter;stroke-opacity:1"
       d="m 753.09574,2223.3346 c -27.19224,-20.5338 -42.99463,-54.6914 -41.0873,-88.6975 0.0253,-5.2064 -0.52257,-11.8857 2.08026,-3.3284 2.42629,5.9709 9.87286,20.1787 12.9156,18.5545 -1.74181,-13.1135 -0.38049,-26.1845 1.42097,-39.1432 1.17884,-13.5542 10.39123,16.2867 15.87187,4.5111 -2.96352,-5.0072 -1.69992,-17.7446 3.6961,-6.6971 7.31381,9.2574 9.21416,0.1878 10.87078,-4.6823 7.37286,6.4364 9.15991,1.4279 12.09715,-3.2497 6.12014,4.1974 11.03004,3.8604 13.62468,-2.7509 9.42367,0.084 21.79648,6.9231 23.61264,-7.7597 4.54975,-6.8921 8.88908,8.6515 16.65288,4.1899 15.65105,-1.7329 31.1823,2.2501 46.79694,2.9293 13.11927,1.6936 23.2963,11.1458 33.56853,18.0046 -1.00207,-5.0952 -1.83167,-10.3441 4.99616,-5.2944 6.04122,-0.1228 -8.23274,-19.7418 2.30743,-8.345 13.40277,13.5474 22.03889,30.8562 33.1395,46.1992 9.95581,16.0715 22.97456,30.316 30.23541,48.0237 6.24153,13.7196 11.29652,28.4669 13.74293,43.1501 -2.3268,-5.4538 -11.71817,-17.2448 -10.72236,-4.0771 0.64554,5.8857 -2.61986,24.5969 -7.99617,12.9067 -5.36979,-3.1528 -8.02155,4.9547 -9.64713,-3.7971 -2.61641,-5.7165 -12.91236,-24.2439 -11.52146,-7.7934 -0.24092,6.6123 -0.39269,23.3456 -8.52773,22.6672 -0.71199,-6.4256 -4.35073,-6.7929 -7.47545,-2.8639 -3.47854,-4.1084 -6.67276,-6.4414 -10.54004,-3.8523 -8.49033,-6.1108 -19.90508,-6.7229 -28.50692,-0.5055 -9.56444,4.3212 -12.5154,18.0916 -24.75613,15.2535 -9.1367,1.5914 -13.94739,12.0362 -23.47555,6.8114 -8.58247,3.7439 -27.16495,-8.6096 -36.05026,-11.8301 -3.29947,-1.4401 -11.62277,-8.8856 -11.3785,-0.7559 -6.43774,2.3897 -16.91188,-8.2393 -17.26469,-5.4782 1.82413,10.9946 -7.96044,0.5298 -10.48773,-2.6166 -6.62097,-9.4733 -14.84659,-18.3884 -18.19241,-29.6829 z"
       id="path4197"
       inkscape:connector-curvature="0"
       sodipodi:nodetypes="cccccccccccccccccccccccccccccccccc" />
    <path
       style="fill:#ffffff;fill-rule:evenodd;stroke:none"
       d="m 655.97575,2287.3207 c -18.40682,18.8831 -8.08991,45.7795 -4.12996,67.6726 -0.80974,14.9398 18.02399,36.4678 15.9689,43.4748 -7.39761,-5.6856 -18.44503,-11.5992 -10.35804,2.2235 10.28617,39.2132 41.16891,70.6255 73.41747,97.1231 9.88526,5.8681 40.2403,24.1307 38.10989,11.2902 18.50775,10.3216 40.60121,14.6613 61.64818,18.6429 23.80197,-0.6582 46.9844,4.1173 68.72595,12.7673 21.71822,5.612 45.53643,13.7768 67.92709,6.2692 -8.79412,-26.7745 28.99931,-1.7149 43.12397,-11.2485 12.6337,3.8607 44.3755,-3.078 65.6752,-7.3331 21.3126,-4.4312 42.4902,-10.6835 62.0713,-19.506 13.6822,0.7394 36.6191,-5.5143 51.2896,-20.4731 12.7967,3.6082 28.4081,-48.116 24.0559,-59.2553 -3.4497,-18.5887 -1.913,-39.1728 -6.055,-53.7971 -2.0476,-17.3967 -19.2355,-26.6891 -25.2624,-43.1843 -14.2297,-29.2234 -40.0632,-52.5784 -70.97,-67.9516 -25.7496,-12.8104 -52.9579,-25.5897 -82.1783,-30.0071 -19.0582,-0.4806 16.334,18.706 -7.2993,8.454 -17.8693,-10.8806 2.4148,13.9707 -11.3531,3.643 -7.7353,-8.1223 -23.54787,-14.8825 -17.63728,2.8534 -0.94935,7.078 -7.52946,1.2617 -11.61229,7.5083 -20.43701,-11.2121 -43.39251,-2.8229 -65.90068,-2.6775 -12.40612,-1.3239 -31.63123,6.714 -37.32779,-7.7438 0.1117,17.5188 -19.52908,0.6055 -21.60473,17.6583 -9.3759,-4.4053 -24.86229,-14.4558 -26.50385,1.584 -15.67525,13.6643 -37.39718,-11.875 -47.28384,-6.3576 5.54201,27.0792 -21.58251,3.9927 -31.5539,-2.3322 -2.14616,30.034 -34.7475,-5.7799 -48.91797,-1.2836 15.09483,17.1847 -5.05919,33.1335 -24.52282,21.6771 9.22381,27.4738 -9.6498,6.3284 -21.5422,10.3091 z"
       id="path4236"
       inkscape:connector-curvature="0"
       sodipodi:nodetypes="ccccccccccccccccccccccccccccccc" />
    <path
       style="color:#000000;display:inline;overflow:visible;visibility:visible;fill:#ffffff;fill-opacity:1;fill-rule:nonzero;stroke:none;stroke-width:1px;marker:none;enable-background:accumulate"
       d="m 1181.2565,2384.8843 c 71.2625,-32.4224 174.9357,-46.5343 183.7112,99.2131 42.8576,28.8431 84.7314,17.5004 117.4338,154.3432 -31.7764,-75.6266 -60.5224,-102.3764 -138.8525,-144.9574 -12.7089,-74.1482 -76.4453,-109.0649 -157.2325,-50.6415 -80.7874,58.4235 -47.4492,-14.6057 -47.4492,-14.6057 l 18.2401,-27.146 z"
       id="path5074"
       inkscape:connector-curvature="0"
       sodipodi:nodetypes="ccccsccc" />
  </g>
  <g
     inkscape:groupmode="layer"
     id="layer1"
     inkscape:label="txt"
     style="display:inline">
    <text
       xml:space="preserve"
       style="font-style:normal;font-variant:normal;font-weight:normal;font-stretch:normal;font-size:12px;line-height:125%;font-family:Lavi;-inkscape-font-specification:Lavi;text-align:center;letter-spacing:0px;word-spacing:0px;text-anchor:middle;fill:#000000;fill-opacity:1;stroke:none"
       x="1231.8025"
       y="280.05325"
       id="text4246"
       sodipodi:linespacing="125%"><tspan
         sodipodi:role="line"
         style="font-size:45px"
         x="1231.8025"
         y="280.05325"
         id="tspan4252">Ha ha!</tspan></text>
    <text
       xml:space="preserve"
       style="font-style:normal;font-variant:normal;font-weight:normal;font-stretch:normal;font-size:12px;line-height:125%;font-family:Lavi;-inkscape-font-specification:Lavi;text-align:center;letter-spacing:0px;word-spacing:0px;text-anchor:middle;fill:#000000;fill-opacity:1;stroke:none"
       x="1413.8907"
       y="380.62357"
       id="text4246-5"
       sodipodi:linespacing="125%"><tspan
         sodipodi:role="line"
         style="font-size:45px"
         x="1413.8907"
         y="380.62357"
         id="tspan4166">Jejda!</tspan><tspan
         sodipodi:role="line"
         style="font-size:45px"
         x="1413.8907"
         y="436.87357"
         id="tspan3476">Možná to bude</tspan><tspan
         sodipodi:role="line"
         style="font-size:45px"
         x="1413.8907"
         y="493.12357"
         id="tspan3358"> o trošičku složitější,</tspan><tspan
         sodipodi:role="line"
         style="font-size:45px"
         x="1413.8907"
         y="549.37354"
         id="tspan3474">než jsem myslela!</tspan></text>
    <text
       xml:space="preserve"
       style="font-style:normal;font-variant:normal;font-weight:normal;font-stretch:normal;font-size:14.57404613px;line-height:125%;font-family:Lavi;-inkscape-font-specification:Lavi;text-align:center;letter-spacing:0px;word-spacing:0px;text-anchor:middle;fill:#000000;fill-opacity:1;stroke:none"
       x="844.19897"
       y="2202.4014"
       id="text4246-2"
       sodipodi:linespacing="125%"
       transform="scale(0.99940856,1.0005918)"><tspan
         sodipodi:role="line"
         style="font-size:54.65267181px"
         x="844.19897"
         y="2202.4014"
         id="tspan4252-4">Pfff!</tspan></text>
    <text
       xml:space="preserve"
       style="font-style:normal;font-variant:normal;font-weight:normal;font-stretch:normal;font-size:12px;line-height:125%;font-family:Lavi;-inkscape-font-specification:Lavi;text-align:center;letter-spacing:0px;word-spacing:0px;text-anchor:middle;fill:#000000;fill-opacity:1;stroke:none"
       x="928.74841"
       y="2348.6091"
       id="text4246-2-2"
       sodipodi:linespacing="125%"><tspan
         sodipodi:role="line"
         style="font-size:45px"
         x="928.74841"
         y="2348.6091"
         id="tspan3370">... a to jsem si myslela,</tspan><tspan
         sodipodi:role="line"
         style="font-size:45px"
         x="928.74841"
         y="2404.8591"
         id="tspan3380"> že s Větrným drakem</tspan><tspan
         sodipodi:role="line"
         style="font-size:45px"
         x="928.74841"
         y="2461.1091"
         id="tspan3495">to bude jednodušší!</tspan></text>
  </g>
</svg>
