<?xml version="1.0" encoding="UTF-8" standalone="no"?>
<!-- Created with Inkscape (http://www.inkscape.org/) -->

<svg
   xmlns:dc="http://purl.org/dc/elements/1.1/"
   xmlns:cc="http://creativecommons.org/ns#"
   xmlns:rdf="http://www.w3.org/1999/02/22-rdf-syntax-ns#"
   xmlns:svg="http://www.w3.org/2000/svg"
   xmlns="http://www.w3.org/2000/svg"
   xmlns:xlink="http://www.w3.org/1999/xlink"
   xmlns:sodipodi="http://sodipodi.sourceforge.net/DTD/sodipodi-0.dtd"
   xmlns:inkscape="http://www.inkscape.org/namespaces/inkscape"
   id="svg2"
   version="1.1"
   inkscape:version="0.91 r13725"
   width="2481"
   height="3503"
   sodipodi:docname="Pepper-and-Carrot_by-David-Revoy_E14P04.svg">
  <metadata
     id="metadata8">
    <rdf:RDF>
      <cc:Work
         rdf:about="">
        <dc:format>image/svg+xml</dc:format>
        <dc:type
           rdf:resource="http://purl.org/dc/dcmitype/StillImage" />
        <dc:title />
      </cc:Work>
    </rdf:RDF>
  </metadata>
  <defs
     id="defs6" />
  <sodipodi:namedview
     pagecolor="#ffffff"
     bordercolor="#666666"
     borderopacity="1"
     objecttolerance="10"
     gridtolerance="10"
     guidetolerance="10"
     inkscape:pageopacity="0"
     inkscape:pageshadow="2"
     inkscape:window-width="1440"
     inkscape:window-height="811"
     id="namedview4"
     showgrid="false"
     inkscape:zoom="0.3478261"
     inkscape:cx="1450.2161"
     inkscape:cy="191.07056"
     inkscape:window-x="0"
     inkscape:window-y="1"
     inkscape:window-maximized="1"
     inkscape:current-layer="layer1"
     showguides="false" />
  <g
     inkscape:groupmode="layer"
     id="layer2"
     inkscape:label="artwork"
     sodipodi:insensitive="true">
    <image
       sodipodi:absref="C:/work/git/peppercarrot_ep14_translation/de/../gfx_Pepper-and-Carrot_by-David-Revoy_E14P04.png"
       xlink:href="../gfx_Pepper-and-Carrot_by-David-Revoy_E14P04.png"
       y="0"
       x="0"
       id="image10"
       height="3503"
       width="2481" />
  </g>
  <g
     inkscape:groupmode="layer"
     id="layer3"
     inkscape:label="speechbubbles">
    <path
       style="color:#000000;display:inline;overflow:visible;visibility:visible;fill:#ffffff;fill-opacity:1;fill-rule:nonzero;stroke:none;stroke-width:1px;marker:none;enable-background:accumulate"
       d="m 1624.3083,358.98599 c 10.5479,-20.326 55.0295,-17.6728 70.7719,-11.75341 -29.8179,-26.89811 -26.7953,-41.4565 18.0836,-39.27815 -69.3273,-50.03545 -9.0474,-37.4874 4.3862,-47.07518 -56.8344,-20.53598 -28.2304,-36.16477 -15.4523,-53.29185 -67.4031,-7.3692 -41.5914,-34.29072 -41.467,-57.77429 -7.1139,10.31432 -38.5335,40.73998 -35.4467,3.67491 -49.1411,30.74469 -105.8142,48.1124 -102.199,-13.92516 -21.9509,29.19715 -41.5578,40.50459 -35.4468,3.67491 -50.7129,43.62724 -88.5417,22.31788 -127.0835,4.70221 -12.4366,13.45458 -16.5223,35.62602 -50.081,26.98031 2.9584,14.86369 -9.8635,23.59611 -36.7135,26.85913 33.569,12.15538 38.8137,21.7567 -26.8152,24.96534 48.8812,5.83063 94.3299,12.30915 32.6325,39.45537 17.9337,2.5986 64.2375,-20.57052 34.0078,57.75726 34.3039,-22.61401 69.2086,-33.499 103.8116,24.51255 23.0815,-24.94651 58.8471,-34.85784 69.3644,0.23525 7.1597,-13.79701 29.934,-16.97865 48.7659,-15.75827 6.5216,6.41655 13.0098,14.89498 19.5168,25.80383 15.4752,-19.99328 36.3912,-32.44989 69.3643,0.23524 z"
       id="path3549-3-7"
       inkscape:connector-curvature="0"
       sodipodi:nodetypes="cccccccccccccccccccc" />
    <path
       style="fill:#ffffff;fill-rule:evenodd;stroke:none;stroke-width:1px;stroke-linecap:butt;stroke-linejoin:miter;stroke-opacity:1"
       d="m 1494.7536,333.23881 c -16.0552,-2.75755 -30.7097,5.52359 -44.2212,12.07893 -8.701,3.93838 -18.0319,7.60882 -24.0038,14.87533 -5.8969,5.73841 -7.9395,15.9276 -0.2787,21.24242 5.4517,2.76075 13.3389,7.97375 8.2178,14.25838 -2.9498,5.32331 -10.9094,7.01313 -12.21,13.1085 -3.1723,8.49796 4.7274,16.17783 12.8829,19.25645 6.0441,2.03439 11.6279,2.80096 12.4327,9.29875 6.16,9.76609 19.7224,11.34577 30.9863,12.19411 9.6696,0.44992 19.4283,1.81986 28.9992,-0.24661 10.7309,-1.707 23.68,-4.58685 32.5342,2.99641 15.5766,8.48643 34.4105,10.30023 52.2914,11.07215 8.9976,0.0565 18.0942,0.95629 27.035,0.12757 18.8837,-2.8175 38.1948,-3.75591 57.2301,-1.71264 19.8553,-0.095 34.2205,-16.69364 54.1841,-16.25915 16.4417,-3.33988 34.708,-6.59382 46.3421,-18.5539 5.0717,-4.36517 4.73,-11.66902 11.2095,-14.45037 4.9685,-6.16102 -1.9361,-14.45989 -9.0665,-15.99606 -6.9056,-0.32119 6.1426,-2.213 7.5453,-5.01905 7.1335,-4.59011 12.23,-14.65891 5.4687,-21.34731 -15.2168,-12.80871 -38.3181,-13.59931 -53.6152,-26.36988 -12.735,-5.50852 -26.2741,1.08434 -39.1894,2.33379 -6.3632,-1.26427 -9.078,-10.50793 -17.0649,-11.5648 -10.2507,-3.81615 -21.5673,-3.95541 -32.4893,-4.03777 -10.5837,6.39721 -24.0118,3.94985 -35.1877,0.29467 -9.7534,-3.10334 -20.1564,-5.53554 -30.5175,-3.50688 -7.6374,0.53179 -16.3233,3.98461 -23.4797,1.19596 -10.0676,-7.44542 -23.8514,-3.72347 -35.7024,-4.54728 -8.1443,-2.01053 -15.5838,2.57428 -22.7658,5.36572 -2.8715,1.11665 -11.8466,5.89786 -2.1836,3.91252"
       id="path4220"
       inkscape:connector-curvature="0" />
    <path
       style="color:#000000;display:inline;overflow:visible;visibility:visible;fill:#ffffff;fill-opacity:1;fill-rule:nonzero;stroke:none;stroke-width:1px;marker:none;enable-background:accumulate"
       d="m 1280.8534,546.00632 c 21.2486,-41.3416 65.9441,-76.10613 124.561,-90.19986 58.617,-14.09373 167.0584,-10.33545 186.109,-5.63747 19.0504,4.69787 123.8282,21.61029 146.5422,45.09987 22.7142,23.48959 53.4881,52.61665 60.0825,82.68319 6.5945,30.06666 0.7327,102.41451 -20.5159,118.38743 -21.2487,15.97293 -117.9667,50.73746 -174.3856,52.61654 -56.4188,1.87919 -187.5742,-13.15414 -224.9425,-23.48948 -37.3683,-10.33545 -76.9348,-23.48959 -88.6581,-56.37492 -11.7235,-32.88545 -33.7048,-76.10624 -8.7926,-123.0853 z"
       id="path3533"
       inkscape:connector-curvature="0" />
    <path
       style="color:#000000;display:inline;overflow:visible;visibility:visible;fill:#ffffff;fill-opacity:1;fill-rule:nonzero;stroke:none;stroke-width:1px;marker:none;filter:url(#filter4386);enable-background:accumulate"
       d="m 1678.4528,528.49189 c 30.5923,52.37324 -103.4044,94.84893 -110.4621,125.45674 -2.3684,10.27079 -5.582,32.22619 0.4801,42.42915 10.2279,17.21496 39.4486,19.14791 -24.0871,109.8658 -15.4603,19.92013 12.0481,56.95066 47.151,66.90119 28.0513,17.10155 -7.3932,123.12378 -37.4741,172.62433 43.7979,-42.6678 77.2922,-149.02168 64.215,-140.15631 4.5835,-35.53698 -13.701,-44.07469 -23.5467,-53.21369 -9.8457,-9.13907 -29.5569,-14.98259 -28.3948,-30.06869 1.1623,-15.08705 39.8018,-58.24357 44.8599,-85.55656 5.0578,-27.31218 -22.1531,-43.05915 -16.0064,-68.06815 6.1465,-25.00909 83.9624,-57.20023 102.0984,-79.91604 20.9522,-23.39323 25.1007,-60.90229 25.1007,-60.90229 z"
       id="path3153"
       inkscape:connector-curvature="0"
       sodipodi:nodetypes="cssccccscssccc" />
    <path
       style="color:#000000;display:inline;overflow:visible;visibility:visible;fill:#ffffff;fill-opacity:1;fill-rule:nonzero;stroke:none;stroke-width:1px;marker:none;enable-background:accumulate"
       d="m 1464.0466,926.34512 c 0.798,-48.54939 16.3443,-94.46231 154.1588,-92.87344 103.334,1.19134 130.8524,38.59757 133.1418,87.67122 1.6135,34.58313 -54.2908,66.59398 -143.0725,64.89829 -84.8582,-1.62074 -138.0223,-22.67233 -144.2281,-59.69607 z"
       id="path5026"
       inkscape:connector-curvature="0"
       sodipodi:nodetypes="csssc" />
    <path
       style="color:#000000;display:inline;overflow:visible;visibility:visible;fill:#ffffff;fill-opacity:1;fill-rule:nonzero;stroke:none;stroke-width:1px;marker:none;enable-background:accumulate"
       d="m 202.08269,1924.4114 c 10.52893,-47.2323 32.48033,-96.5528 232.91894,-86.9265 200.43863,9.6263 245.11196,52.3112 245.58912,101.3399 0.62503,64.2246 -51.73571,74.3908 -81.1353,82.1087 -29.39946,7.7179 -98.20547,15.9385 -147.67628,17.9745 -26.59939,1.0949 -187.80969,-7.5047 -217.96914,-32.2803 -30.05191,-24.6873 -34.58782,-48.2268 -31.72734,-82.2163 z"
       id="path3365"
       inkscape:connector-curvature="0"
       sodipodi:nodetypes="csssssc" />
    <path
       style="fill:#ffffff;stroke:none"
       d="m 822.15272,2210.351 c -8.72758,80.6373 -132.14228,93.1089 -189.1148,95.4921 -56.97246,2.3832 -208.49774,12.7832 -259.83324,-54.6676 -51.33552,-67.4507 -28.78782,-98.3914 4.59766,-131.2604 28.46993,-28.0296 95.40268,-41.5901 153.99263,-48.2285 72.75112,-8.2428 193.53448,10.9173 243.97646,45.4134 26.90014,18.3962 55.10893,12.6137 46.38129,93.251 z"
       id="path3100"
       inkscape:connector-curvature="0"
       sodipodi:nodetypes="zsssssz" />
    <path
       style="fill:#ffffff;fill-rule:evenodd;stroke:none;stroke-width:1px;stroke-linecap:butt;stroke-linejoin:miter;stroke-opacity:1"
       d="m 534.12829,1990.1588 c 25.7289,58.6047 40.02273,101.4862 22.87013,151.5146 -17.15259,50.0284 1.42939,104.345 -12.86445,141.509 -14.29383,37.1639 -38.54491,47.2584 -11.43506,107.2037 19.79941,43.7805 -85.08462,39.3605 -44.31895,127.2554 -63.78914,-78.8501 40.07923,-99.8873 25.7289,-127.2151 -28.88282,-55.0024 -7.13885,-80.0858 2.86684,-105.8147 10.00568,-25.7289 -6.87995,-119.2204 10.00568,-151.5146 18.13588,-34.6853 -17.29178,-107.4567 -22.87013,-131.5032 -7.17205,-30.9164 30.01704,-11.4351 30.01704,-11.4351 z"
       id="path4313"
       inkscape:connector-curvature="0"
       sodipodi:nodetypes="cssscssssc" />
  </g>
  <g
     inkscape:groupmode="layer"
     id="layer1"
     inkscape:label="txt">
    <text
       xml:space="preserve"
       style="font-size:18.10567665px;font-style:normal;font-variant:normal;font-weight:normal;font-stretch:normal;text-align:center;line-height:125%;letter-spacing:0px;word-spacing:0px;text-anchor:middle;fill:#000000;fill-opacity:1;stroke:none;font-family:Lavi;-inkscape-font-specification:Lavi"
       x="1503.0696"
       y="262.59164"
       id="text4246"
       sodipodi:linespacing="125%"><tspan
         sodipodi:role="line"
         style="font-size:67.89629364px"
         x="1503.0696"
         y="262.59164"
         id="tspan4252">Carrot! ...</tspan></text>
    <text
       xml:space="preserve"
       style="font-style:normal;font-variant:normal;font-weight:normal;font-stretch:normal;font-size:12px;line-height:125%;font-family:Lavi;-inkscape-font-specification:Lavi;text-align:center;letter-spacing:0px;word-spacing:0px;text-anchor:middle;fill:#000000;fill-opacity:1;stroke:none"
       x="1613.382"
       y="408.19888"
       id="text4246-1"
       sodipodi:linespacing="125%"><tspan
         sodipodi:role="line"
         style="font-size:45px"
         x="1613.382"
         y="408.19888"
         id="tspan4252-8">Komm zurück...</tspan></text>
    <text
       xml:space="preserve"
       style="font-style:normal;font-variant:normal;font-weight:normal;font-stretch:normal;font-size:12px;line-height:125%;font-family:Lavi;-inkscape-font-specification:Lavi;text-align:center;letter-spacing:0px;word-spacing:0px;text-anchor:middle;fill:#000000;fill-opacity:1;stroke:none"
       x="1538.5493"
       y="559.84924"
       id="text4246-1-3"
       sodipodi:linespacing="125%"><tspan
         sodipodi:role="line"
         style="font-size:45px"
         x="1538.5493"
         y="559.84924"
         id="tspan3510">... Sumpfdrachen</tspan><tspan
         sodipodi:role="line"
         style="font-size:45px"
         x="1538.5493"
         y="616.09924"
         id="tspan3412">sind bekannt für ihr</tspan><tspan
         sodipodi:role="line"
         style="font-size:45px"
         x="1538.5493"
         y="672.34924"
         id="tspan3414">gehorsames Wesen!</tspan></text>
    <text
       xml:space="preserve"
       style="font-style:normal;font-variant:normal;font-weight:normal;font-stretch:normal;font-size:9.4791708px;line-height:125%;font-family:Lavi;-inkscape-font-specification:Lavi;text-align:center;letter-spacing:0px;word-spacing:0px;text-anchor:middle;fill:#000000;fill-opacity:1;stroke:none"
       x="1607.5629"
       y="896.56146"
       id="text4246-1-3-6"
       sodipodi:linespacing="125%"><tspan
         sodipodi:role="line"
         style="font-size:35.54689407px"
         x="1607.5629"
         y="896.56146"
         id="tspan3506">zumindest</tspan><tspan
         sodipodi:role="line"
         style="font-size:35.54689407px"
         x="1607.5629"
         y="940.99506"
         id="tspan3364">dachte ich das...</tspan></text>
    <text
       xml:space="preserve"
       style="font-style:normal;font-variant:normal;font-weight:normal;font-stretch:normal;font-size:12px;line-height:125%;font-family:Lavi;-inkscape-font-specification:Lavi;text-align:center;letter-spacing:0px;word-spacing:0px;text-anchor:middle;fill:#000000;fill-opacity:1;stroke:none"
       x="447.2666"
       y="1921.0948"
       id="text4246-10"
       sodipodi:linespacing="125%"><tspan
         sodipodi:role="line"
         style="font-size:45px"
         x="447.2666"
         y="1921.0948"
         id="tspan3514">Hmm... für den</tspan><tspan
         sodipodi:role="line"
         style="font-size:45px"
         x="447.2666"
         y="1977.3448"
         id="tspan3392">Donnerdrachen...</tspan></text>
    <text
       xml:space="preserve"
       style="font-style:normal;font-variant:normal;font-weight:normal;font-stretch:normal;font-size:12px;line-height:125%;font-family:Lavi;-inkscape-font-specification:Lavi;text-align:center;letter-spacing:0px;word-spacing:0px;text-anchor:middle;fill:#000000;fill-opacity:1;stroke:none"
       x="577.8111"
       y="2163.9912"
       id="text4246-10-5"
       sodipodi:linespacing="125%"><tspan
         sodipodi:role="line"
         style="font-size:45px"
         x="585.72125"
         y="2163.9912"
         id="tspan3365">... haben wir, glaube </tspan><tspan
         sodipodi:role="line"
         style="font-size:45px"
         x="577.8111"
         y="2220.2412"
         id="tspan3369">ich, nicht das richtige</tspan><tspan
         sodipodi:role="line"
         style="font-size:45px"
         x="577.8111"
         y="2276.4912"
         id="tspan3401">Werkzeug...</tspan></text>
  </g>
</svg>
