<?xml version="1.0" encoding="UTF-8" standalone="no"?>
<!-- Created with Inkscape (http://www.inkscape.org/) -->

<svg
   xmlns:dc="http://purl.org/dc/elements/1.1/"
   xmlns:cc="http://creativecommons.org/ns#"
   xmlns:rdf="http://www.w3.org/1999/02/22-rdf-syntax-ns#"
   xmlns:svg="http://www.w3.org/2000/svg"
   xmlns="http://www.w3.org/2000/svg"
   xmlns:xlink="http://www.w3.org/1999/xlink"
   xmlns:sodipodi="http://sodipodi.sourceforge.net/DTD/sodipodi-0.dtd"
   xmlns:inkscape="http://www.inkscape.org/namespaces/inkscape"
   id="svg2"
   version="1.1"
   inkscape:version="0.91 r13725"
   width="2481"
   height="3503"
   sodipodi:docname="Pepper-and-Carrot_by-David-Revoy_E14P03.svg">
  <metadata
     id="metadata8">
    <rdf:RDF>
      <cc:Work
         rdf:about="">
        <dc:format>image/svg+xml</dc:format>
        <dc:type
           rdf:resource="http://purl.org/dc/dcmitype/StillImage" />
        <dc:title />
      </cc:Work>
    </rdf:RDF>
  </metadata>
  <defs
     id="defs6" />
  <sodipodi:namedview
     pagecolor="#ffffff"
     bordercolor="#666666"
     borderopacity="1"
     objecttolerance="10"
     gridtolerance="10"
     guidetolerance="10"
     inkscape:pageopacity="0"
     inkscape:pageshadow="2"
     inkscape:window-width="1304"
     inkscape:window-height="745"
     id="namedview4"
     showgrid="false"
     inkscape:zoom="0.40227146"
     inkscape:cx="1223.4283"
     inkscape:cy="914.01803"
     inkscape:window-x="-8"
     inkscape:window-y="-8"
     inkscape:window-maximized="1"
     inkscape:current-layer="layer3" />
  <g
     inkscape:groupmode="layer"
     id="layer2"
     inkscape:label="artwork"
     sodipodi:insensitive="true">
    <image
       sodipodi:absref="E:\Projects\Pepper&amp;Carrot\peppercarrot_ep14_translation\hu\..\gfx_Pepper-and-Carrot_by-David-Revoy_E14P03.png"
       xlink:href="../gfx_Pepper-and-Carrot_by-David-Revoy_E14P03.png"
       width="2481"
       height="3503"
       id="image10"
       x="0"
       y="0" />
  </g>
  <g
     inkscape:groupmode="layer"
     id="layer3"
     inkscape:label="speechbubbles"
     style="display:inline">
    <path
       style="color:#000000;display:inline;overflow:visible;visibility:visible;fill:#ffffff;fill-opacity:1;fill-rule:nonzero;stroke:none;stroke-width:1px;marker:none;enable-background:accumulate"
       d="m 1185.7261,347.7193 c 34.885,-55.54983 103.326,-83.69231 264.4961,-73.10948 103.3479,6.78608 162.667,27.62451 209.3451,59.23318 22.0478,14.92998 41.7895,92.93049 18.2974,152.48354 -23.4921,59.55304 -96.9153,118.75157 -254.3277,102.43371 -157.4122,-16.31799 -157.4824,-18.55755 -180.5184,-32.69552 -43.7659,-26.86045 -92.1776,-152.79555 -57.2925,-208.34543 z"
       id="path4530"
       inkscape:connector-curvature="0"
       sodipodi:nodetypes="zsssssz" />
    <path
       style="color:#000000;display:inline;overflow:visible;visibility:visible;fill:#ffffff;fill-opacity:1;fill-rule:nonzero;stroke:none;stroke-width:1px;marker:none;enable-background:accumulate"
       d="m 1137.6398,170.80031 c -5.2171,18.04469 -34.6427,19.55781 -45.4751,15.88991 21.8355,20.18631 21.0743,32.72839 -8.5723,34.67578 49.7178,36.381 9.0891,30.8757 1.0754,40.10089 39.0377,12.53769 21.5718,28.14117 14.6217,43.67415 44.87,0.53354 30.1861,25.43239 32.0773,45.26274 3.8039,-9.30528 21.8751,-37.63467 22.9624,-6.0918 29.6789,-30.0936 65.4263,-49.53257 68.2648,3.13136 11.9581,-26.49378 23.8803,-37.69113 22.9624,-6.0918 29.6284,-41.09892 56.2536,-26.30524 83.0367,-14.68913 7.0344,-12.40463 7.8541,-31.46172 30.6121,-26.9958 -3.1909,-12.29521 4.4931,-20.74689 21.8463,-25.76585 -23.0596,-7.42718 -27.3094,-15.08815 15.5071,-23.33253 -32.5809,-0.79746 -62.9628,-2.43129 -24.7383,-30.54704 -11.9921,-0.68032 -40.4445,22.78023 -27.1789,-45.87759 -20.621,21.97976 -42.6218,34.11104 -70.2128,-11.93096 -13.0574,23.00167 -35.7052,34.38382 -45.5582,5.6529 -3.5413,12.2485 -18.2256,16.85495 -30.6915,17.41359 -4.8206,-4.86535 -9.7925,-11.4737 -14.9808,-20.13172 -8.48,18.17954 -21.1651,30.4572 -45.5583,5.6529 z"
       id="path3549-3-7"
       inkscape:connector-curvature="0"
       sodipodi:nodetypes="cccccccccccccccccccc" />
    <path
       style="fill:#ffffff;fill-rule:evenodd;stroke:none;stroke-width:1px;stroke-linecap:butt;stroke-linejoin:miter;stroke-opacity:1"
       d="m 1497.7176,575.15777 c 39.3706,13.96771 -22.485,68.10223 -9.329,82.54185 9.0819,9.96796 46.6601,-7.96729 81.4034,37.57991 -40.7385,-30.89398 -73.2809,-5.93721 -92.7166,-17.39889 -36.9131,-21.76848 1.4853,-61.31653 3.4361,-70.97465 2.6091,-12.9174 17.2061,-31.74822 17.2061,-31.74822 z"
       id="path4186"
       inkscape:connector-curvature="0"
       sodipodi:nodetypes="cscssc" />
    <path
       style="fill:#ffffff;fill-rule:evenodd;stroke:none;stroke-width:1px;stroke-linecap:butt;stroke-linejoin:miter;stroke-opacity:1"
       d="m 753.09574,2223.3346 c -27.19224,-20.5338 -42.99463,-54.6914 -41.0873,-88.6975 0.0253,-5.2064 -0.52257,-11.8857 2.08026,-3.3284 2.42629,5.9709 9.87286,20.1787 12.9156,18.5545 -1.74181,-13.1135 -0.38049,-26.1845 1.42097,-39.1432 1.17884,-13.5542 10.39123,16.2867 15.87187,4.5111 -2.96352,-5.0072 -1.69992,-17.7446 3.6961,-6.6971 7.31381,9.2574 9.21416,0.1878 10.87078,-4.6823 7.37286,6.4364 9.15991,1.4279 12.09715,-3.2497 6.12014,4.1974 11.03004,3.8604 13.62468,-2.7509 9.42367,0.084 21.79648,6.9231 23.61264,-7.7597 4.54975,-6.8921 8.88908,8.6515 16.65288,4.1899 15.65105,-1.7329 31.1823,2.2501 46.79694,2.9293 13.11927,1.6936 23.2963,11.1458 33.56853,18.0046 -1.00207,-5.0952 -1.83167,-10.3441 4.99616,-5.2944 6.04122,-0.1228 -8.23274,-19.7418 2.30743,-8.345 13.40277,13.5474 22.03889,30.8562 33.1395,46.1992 9.95581,16.0715 22.97456,30.316 30.23541,48.0237 6.24153,13.7196 11.29652,28.4669 13.74293,43.1501 -2.3268,-5.4538 -11.71817,-17.2448 -10.72236,-4.0771 0.64554,5.8857 -2.61986,24.5969 -7.99617,12.9067 -5.36979,-3.1528 -8.02155,4.9547 -9.64713,-3.7971 -2.61641,-5.7165 -12.91236,-24.2439 -11.52146,-7.7934 -0.24092,6.6123 -0.39269,23.3456 -8.52773,22.6672 -0.71199,-6.4256 -4.35073,-6.7929 -7.47545,-2.8639 -3.47854,-4.1084 -6.67276,-6.4414 -10.54004,-3.8523 -8.49033,-6.1108 -19.90508,-6.7229 -28.50692,-0.5055 -9.56444,4.3212 -12.5154,18.0916 -24.75613,15.2535 -9.1367,1.5914 -13.94739,12.0362 -23.47555,6.8114 -8.58247,3.7439 -27.16495,-8.6096 -36.05026,-11.8301 -3.29947,-1.4401 -11.62277,-8.8856 -11.3785,-0.7559 -6.43774,2.3897 -16.91188,-8.2393 -17.26469,-5.4782 1.82413,10.9946 -7.96044,0.5298 -10.48773,-2.6166 -6.62097,-9.4733 -14.84659,-18.3884 -18.19241,-29.6829 z"
       id="path4197"
       inkscape:connector-curvature="0"
       sodipodi:nodetypes="cccccccccccccccccccccccccccccccccc" />
    <path
       style="fill:#ffffff;fill-rule:evenodd;stroke:none"
       d="m 643.5159,2294.2772 c -18.35399,17.6113 -8.06669,42.6961 -4.11811,63.1145 -0.80741,13.9335 17.97226,34.0115 15.92307,40.5465 -7.37638,-5.3026 -18.39209,-10.818 -10.32832,2.0738 10.25665,36.5719 41.05075,65.8684 73.20675,90.5812 9.85688,5.4729 40.12479,22.5054 38.0005,10.5299 18.45462,9.6262 40.48466,13.6737 61.47122,17.3871 23.73366,-0.6139 46.84955,3.8399 68.52868,11.9073 21.65589,5.234 45.40573,12.849 67.73212,5.847 -8.76888,-24.971 28.91608,-1.5994 43.00023,-10.4909 12.59746,3.6008 44.24806,-2.8707 65.48666,-6.8392 21.2515,-4.1326 42.3683,-9.9639 61.8931,-18.1921 13.6429,0.6896 36.514,-5.1428 51.1424,-19.0941 12.7599,3.3651 28.3265,-44.8752 23.9868,-55.2641 -3.4397,-17.3367 -1.9075,-36.5343 -6.0376,-50.1735 -2.0417,-16.2251 -19.1802,-24.8915 -25.1898,-40.2757 -14.1889,-27.255 -39.9483,-49.0369 -70.7664,-63.3747 -25.6757,-11.9475 -52.8058,-23.866 -81.9424,-27.9859 -19.0035,-0.4482 16.2872,17.4461 -7.2783,7.8846 -17.818,-10.1477 2.4079,13.0297 -11.32053,3.3976 -7.71313,-7.5752 -23.48027,-13.8801 -17.58665,2.6612 -0.94662,6.6012 -7.50784,1.1767 -11.57896,7.0026 -20.37834,-10.4569 -43.26795,-2.6328 -65.71152,-2.4971 -12.37051,-1.2347 -31.54044,6.2617 -37.22064,-7.2223 0.11137,16.3389 -19.47303,0.5648 -21.54273,16.4689 -9.34898,-4.1085 -24.79092,-13.4821 -26.42777,1.4773 -15.63026,12.744 -37.28984,-11.0751 -47.14812,-5.9293 5.52611,25.2553 -21.52056,3.7237 -31.46333,-2.1751 -2.14,28.011 -34.64775,-5.3906 -48.77756,-1.1972 15.05151,16.0272 -5.04467,30.9017 -24.45242,20.217 9.19733,25.6234 -9.6221,5.9022 -21.48037,9.6147 z"
       id="path4236"
       inkscape:connector-curvature="0"
       sodipodi:nodetypes="ccccccccccccccccccccccccccccccc" />
    <path
       style="color:#000000;display:inline;overflow:visible;visibility:visible;fill:#ffffff;fill-opacity:1;fill-rule:nonzero;stroke:none;stroke-width:1px;marker:none;enable-background:accumulate"
       d="m 1181.2565,2384.8843 c 71.2625,-32.4224 174.9357,-46.5343 183.7112,99.2131 42.8576,28.8431 84.7314,17.5004 117.4338,154.3432 -31.7764,-75.6266 -60.5224,-102.3764 -138.8525,-144.9574 -12.7089,-74.1482 -76.4453,-109.0649 -157.2325,-50.6415 -80.7874,58.4235 -47.4492,-14.6057 -47.4492,-14.6057 l 18.2401,-27.146 z"
       id="path5074"
       inkscape:connector-curvature="0"
       sodipodi:nodetypes="ccccsccc" />
  </g>
  <g
     inkscape:groupmode="layer"
     id="layer1"
     inkscape:label="txt"
     style="display:inline">
    <text
       xml:space="preserve"
       style="font-style:normal;font-variant:normal;font-weight:normal;font-stretch:normal;font-size:12px;line-height:125%;font-family:Lavi;-inkscape-font-specification:Lavi;text-align:center;letter-spacing:0px;word-spacing:0px;text-anchor:middle;fill:#000000;fill-opacity:1;stroke:none"
       x="1224.7714"
       y="265.99097"
       id="text4246"
       sodipodi:linespacing="125%"><tspan
         sodipodi:role="line"
         style="font-size:45px"
         x="1224.7714"
         y="265.99097"
         id="tspan4252">Hehe!...</tspan></text>
    <text
       xml:space="preserve"
       style="font-style:normal;font-variant:normal;font-weight:normal;font-stretch:normal;font-size:12px;line-height:125%;font-family:Lavi;-inkscape-font-specification:Lavi;text-align:center;letter-spacing:0px;word-spacing:0px;text-anchor:middle;fill:#000000;fill-opacity:1;stroke:none"
       x="1429.9531"
       y="355.46786"
       id="text4246-5"
       sodipodi:linespacing="125%"><tspan
         sodipodi:role="line"
         style="font-size:45px"
         x="1429.9531"
         y="355.46786"
         id="tspan3474">Hűű!</tspan><tspan
         sodipodi:role="line"
         style="font-size:45px"
         x="1429.9531"
         y="411.71786"
         id="tspan3390">Lehet, hogy egy</tspan><tspan
         sodipodi:role="line"
         style="font-size:45px"
         x="1429.9531"
         y="467.96786"
         id="tspan3392">icipicit nehezebb lesz,</tspan><tspan
         sodipodi:role="line"
         style="font-size:45px"
         x="1429.9531"
         y="524.2179"
         id="tspan3394">mint gondoltam.</tspan><tspan
         sodipodi:role="line"
         style="font-size:45px"
         x="1429.9531"
         y="580.4679"
         id="tspan3396" /></text>
    <text
       xml:space="preserve"
       style="font-style:normal;font-variant:normal;font-weight:normal;font-stretch:normal;font-size:14.57404613px;line-height:125%;font-family:Lavi;-inkscape-font-specification:Lavi;text-align:center;letter-spacing:0px;word-spacing:0px;text-anchor:middle;fill:#000000;fill-opacity:1;stroke:none"
       x="844.19897"
       y="2202.4014"
       id="text4246-2"
       sodipodi:linespacing="125%"
       transform="scale(0.99940856,1.0005918)"><tspan
         sodipodi:role="line"
         style="font-size:54.65267181px"
         x="844.19897"
         y="2202.4014"
         id="tspan4252-4">Pfff!</tspan></text>
    <text
       xml:space="preserve"
       style="font-style:normal;font-variant:normal;font-weight:normal;font-stretch:normal;font-size:12px;line-height:125%;font-family:Lavi;-inkscape-font-specification:Lavi;text-align:center;letter-spacing:0px;word-spacing:0px;text-anchor:middle;fill:#000000;fill-opacity:1;stroke:none"
       x="928.74841"
       y="2348.6091"
       id="text4246-2-2"
       sodipodi:linespacing="125%"><tspan
         sodipodi:role="line"
         style="font-size:45px"
         x="928.74841"
         y="2348.6091"
         id="tspan3495">...és még azt hittem,</tspan><tspan
         sodipodi:role="line"
         style="font-size:45px"
         x="928.74841"
         y="2404.8591"
         id="tspan3409">hogy a Légsárkánnyal</tspan><tspan
         sodipodi:role="line"
         style="font-size:45px"
         x="928.74841"
         y="2461.1091"
         id="tspan3411">könnyebb dolgom lesz.</tspan><tspan
         sodipodi:role="line"
         style="font-size:45px"
         x="928.74841"
         y="2517.3591"
         id="tspan3413" /></text>
  </g>
</svg>
