<?xml version="1.0" encoding="UTF-8" standalone="no"?>
<!-- Created with Inkscape (http://www.inkscape.org/) -->

<svg
   xmlns:dc="http://purl.org/dc/elements/1.1/"
   xmlns:cc="http://creativecommons.org/ns#"
   xmlns:rdf="http://www.w3.org/1999/02/22-rdf-syntax-ns#"
   xmlns:svg="http://www.w3.org/2000/svg"
   xmlns="http://www.w3.org/2000/svg"
   xmlns:xlink="http://www.w3.org/1999/xlink"
   xmlns:sodipodi="http://sodipodi.sourceforge.net/DTD/sodipodi-0.dtd"
   xmlns:inkscape="http://www.inkscape.org/namespaces/inkscape"
   id="svg2"
   version="1.1"
   inkscape:version="0.48.5 r10040"
   width="2481"
   height="3503"
   sodipodi:docname="Pepper-and-Carrot_by-David-Revoy_E14P05.svg">
  <metadata
     id="metadata8">
    <rdf:RDF>
      <cc:Work
         rdf:about="">
        <dc:format>image/svg+xml</dc:format>
        <dc:type
           rdf:resource="http://purl.org/dc/dcmitype/StillImage" />
        <dc:title />
      </cc:Work>
    </rdf:RDF>
  </metadata>
  <defs
     id="defs6">
    <linearGradient
       inkscape:collect="always"
       id="linearGradient4232">
      <stop
         style="stop-color:#2b0000;stop-opacity:1"
         offset="0"
         id="stop4234" />
      <stop
         style="stop-color:#800000;stop-opacity:1"
         offset="1"
         id="stop4236" />
    </linearGradient>
    <filter
       style="color-interpolation-filters:sRGB"
       id="filter5561-7"
       inkscape:label="Roughen">
      <feFlood
         id="feFlood5563-4"
         flood-opacity="1"
         flood-color="rgb(196,140,139)"
         result="flood" />
      <feComposite
         id="feComposite5565-6"
         in2="SourceGraphic"
         in="flood"
         operator="in"
         result="composite1" />
      <feMorphology
         id="feMorphology5567-3"
         operator="dilate"
         radius="2"
         result="result3" />
      <feComposite
         id="feComposite5569-6"
         in2="result3"
         in="SourceGraphic"
         operator="over"
         result="fbSourceGraphic"
         radius="3.3999999999999999" />
      <feColorMatrix
         result="fbSourceGraphicAlpha"
         in="fbSourceGraphic"
         values="0 0 0 -1 0 0 0 0 -1 0 0 0 0 -1 0 0 0 0 1 0"
         id="feColorMatrix4681" />
      <feTurbulence
         id="feTurbulence4683"
         type="fractalNoise"
         numOctaves="1"
         seed="20"
         baseFrequency="0.0030000000000000001 0.044999999999999998"
         result="turbulence" />
      <feDisplacementMap
         id="feDisplacementMap4685"
         in2="turbulence"
         in="fbSourceGraphic"
         scale="37.8"
         yChannelSelector="G"
         xChannelSelector="R" />
    </filter>
    <linearGradient
       inkscape:collect="always"
       xlink:href="#linearGradient4232"
       id="linearGradient4238-1"
       x1="1956.4867"
       y1="1758.8628"
       x2="1955.2883"
       y2="1705.3795"
       gradientUnits="userSpaceOnUse" />
    <filter
       style="color-interpolation-filters:sRGB"
       id="filter5561-7-0"
       inkscape:label="Roughen">
      <feFlood
         id="feFlood5563-4-4"
         flood-opacity="1"
         flood-color="rgb(196,140,139)"
         result="flood" />
      <feComposite
         id="feComposite5565-6-8"
         in2="SourceGraphic"
         in="flood"
         operator="in"
         result="composite1" />
      <feMorphology
         id="feMorphology5567-3-1"
         operator="dilate"
         radius="2"
         result="result3" />
      <feComposite
         id="feComposite5569-6-9"
         in2="result3"
         in="SourceGraphic"
         operator="over"
         result="fbSourceGraphic"
         radius="3.3999999999999999" />
      <feColorMatrix
         result="fbSourceGraphicAlpha"
         in="fbSourceGraphic"
         values="0 0 0 -1 0 0 0 0 -1 0 0 0 0 -1 0 0 0 0 1 0"
         id="feColorMatrix4681-7" />
      <feTurbulence
         id="feTurbulence4683-1"
         type="fractalNoise"
         numOctaves="1"
         seed="20"
         baseFrequency="0.0030000000000000001 0.044999999999999998"
         result="turbulence" />
      <feDisplacementMap
         id="feDisplacementMap4685-9"
         in2="turbulence"
         in="fbSourceGraphic"
         scale="37.8"
         yChannelSelector="G"
         xChannelSelector="R" />
    </filter>
    <linearGradient
       inkscape:collect="always"
       xlink:href="#linearGradient4232"
       id="linearGradient4328"
       x1="1956.4867"
       y1="1758.8628"
       x2="1955.2883"
       y2="1705.3795"
       gradientUnits="userSpaceOnUse" />
    <linearGradient
       inkscape:collect="always"
       xlink:href="#linearGradient4232"
       id="linearGradient4336"
       x1="1956.4867"
       y1="1758.8628"
       x2="1955.2883"
       y2="1705.3795"
       gradientUnits="userSpaceOnUse" />
    <linearGradient
       inkscape:collect="always"
       xlink:href="#linearGradient4232"
       id="linearGradient4344"
       x1="1956.4867"
       y1="1758.8628"
       x2="1955.2883"
       y2="1705.3795"
       gradientUnits="userSpaceOnUse" />
    <linearGradient
       inkscape:collect="always"
       xlink:href="#linearGradient4232"
       id="linearGradient4352"
       x1="1956.4867"
       y1="1758.8628"
       x2="1955.2883"
       y2="1705.3795"
       gradientUnits="userSpaceOnUse" />
    <filter
       style="color-interpolation-filters:sRGB"
       id="filter5561-7-4"
       inkscape:label="Roughen">
      <feFlood
         id="feFlood5563-4-2"
         flood-opacity="1"
         flood-color="rgb(135,2,0)"
         result="flood" />
      <feComposite
         id="feComposite5565-6-3"
         in2="SourceGraphic"
         in="flood"
         operator="in"
         result="composite1" />
      <feMorphology
         id="feMorphology5567-3-5"
         operator="dilate"
         radius="1.3"
         result="result3"
         scale="33.299999999999997" />
      <feComposite
         id="feComposite5569-6-6"
         in2="result3"
         in="SourceGraphic"
         operator="over"
         result="fbSourceGraphic"
         radius="3.3999999999999999" />
      <feColorMatrix
         result="fbSourceGraphicAlpha"
         in="fbSourceGraphic"
         values="0 0 0 -1 0 0 0 0 -1 0 0 0 0 -1 0 0 0 0 1 0"
         id="feColorMatrix4681-0" />
      <feTurbulence
         id="feTurbulence4683-0"
         type="fractalNoise"
         numOctaves="1"
         seed="311"
         baseFrequency="0.002 0.032999999999999988"
         result="turbulence" />
      <feDisplacementMap
         id="feDisplacementMap4685-7"
         in2="turbulence"
         in="fbSourceGraphic"
         scale="33.292831"
         yChannelSelector="G"
         xChannelSelector="R" />
    </filter>
    <linearGradient
       inkscape:collect="always"
       xlink:href="#linearGradient4232"
       id="linearGradient4210"
       x1="1956.4867"
       y1="1758.8628"
       x2="1955.2883"
       y2="1705.3795"
       gradientUnits="userSpaceOnUse" />
    <linearGradient
       inkscape:collect="always"
       xlink:href="#linearGradient4232"
       id="linearGradient4218"
       x1="1956.4867"
       y1="1758.8628"
       x2="1955.2883"
       y2="1705.3795"
       gradientUnits="userSpaceOnUse" />
    <linearGradient
       inkscape:collect="always"
       xlink:href="#linearGradient4232"
       id="linearGradient4226"
       x1="1956.4867"
       y1="1758.8628"
       x2="1955.2883"
       y2="1705.3795"
       gradientUnits="userSpaceOnUse" />
    <linearGradient
       inkscape:collect="always"
       xlink:href="#linearGradient4232"
       id="linearGradient4234"
       x1="1956.4867"
       y1="1758.8628"
       x2="1955.2883"
       y2="1705.3795"
       gradientUnits="userSpaceOnUse" />
  </defs>
  <sodipodi:namedview
     pagecolor="#ffffff"
     bordercolor="#666666"
     borderopacity="1"
     objecttolerance="10"
     gridtolerance="10"
     guidetolerance="10"
     inkscape:pageopacity="0"
     inkscape:pageshadow="2"
     inkscape:window-width="1536"
     inkscape:window-height="803"
     id="namedview4"
     showgrid="false"
     inkscape:zoom="0.46000001"
     inkscape:cx="1147.0331"
     inkscape:cy="-67.980998"
     inkscape:window-x="-8"
     inkscape:window-y="-8"
     inkscape:window-maximized="1"
     inkscape:current-layer="layer1" />
  <g
     inkscape:groupmode="layer"
     id="layer2"
     inkscape:label="artwork"
     sodipodi:insensitive="true">
    <image
       sodipodi:absref="C:\Users\Lludriga\Documents\pepper\peppercarrot_ep14_translation-master\peppercarrot_ep14_translation-master\ca\../gfx_Pepper-and-Carrot_by-David-Revoy_E14P05.png"
       xlink:href="../gfx_Pepper-and-Carrot_by-David-Revoy_E14P05.png"
       y="0"
       x="0"
       id="image10"
       height="3503"
       width="2481" />
  </g>
  <g
     inkscape:groupmode="layer"
     id="layer3"
     inkscape:label="speechbubbles">
    <path
       style="fill:#ffffff;fill-rule:evenodd;stroke:none"
       d="m 341.57191,256.90407 c 0,-45.11245 -7.03192,-78.94678 28.12767,-82.70615 35.15959,-3.75937 112.51067,-6.5789 131.26244,0 24.6117,-3.75937 75.0071,4.69921 84.38299,9.39842 9.3759,4.69922 21.09575,70.4882 18.75178,86.46552 -2.34398,15.97732 -12.89185,36.65386 -31.64362,39.47339 -18.75179,2.81953 -77.35107,4.69921 -92.5869,5.63905 -15.23582,0.93985 -75.0071,3.75937 -92.5869,-3.75937 -17.57979,-7.51874 -22.26773,-20.67653 -22.26773,-20.67653 0,0 -26.95568,-7.51874 -23.43973,-33.83433 z"
       id="path4440"
       inkscape:connector-curvature="0" />
    <path
       style="fill:#ffffff;fill-rule:evenodd;stroke:none;stroke-width:1px;stroke-linecap:butt;stroke-linejoin:miter;stroke-opacity:1"
       d="m 629.69452,346.06879 c 1.82526,-22.39656 2.21887,-44.71358 47.93198,-69.54835 22.35657,-7.1297 47.49513,-12.40475 92.10457,-4.69921 23.15938,-2.02462 27.58721,5.31653 36.65386,10.33827 27.94169,-2.58584 48.9899,4.01964 69.54835,11.27811 22.62961,-3.2062 30.63327,8.21355 41.35307,16.91716 17.9194,9.05395 24.26541,23.89459 27.25544,40.41323 -1.68016,17.43557 -2.19087,35.33893 -15.97733,47.93198 -15.68324,34.87803 -42.34967,39.55227 -67.66866,47.93197 -20.98905,12.46912 -48.98605,20.03267 -94.9241,15.03748 -81.273,4.10041 -82.18864,-8.54029 -108.0819,-15.97733 -16.46088,-11.2386 -32.46681,-22.75017 -36.65386,-41.35307 -13.4791,-20.90511 -5.41424,-39.85167 8.45858,-58.27024 z"
       id="path4442"
       inkscape:connector-curvature="0"
       sodipodi:nodetypes="ccccccccccccc" />
    <path
       style="color:#000000;display:inline;overflow:visible;visibility:visible;fill:#ffffff;fill-opacity:1;fill-rule:nonzero;stroke:none;stroke-width:1px;marker:none;enable-background:accumulate"
       d="m 1000.82,397.0401 c 16.6624,-20.18866 51.7108,-37.16548 97.6761,-44.04798 45.9652,-6.88251 131.001,-5.0472 145.9397,-2.753 14.9387,2.29416 97.1015,10.55313 114.913,22.02397 17.8117,11.47085 41.9433,25.69469 47.1144,40.37731 5.1712,14.68268 0.5746,50.01285 -16.0878,57.81304 -16.6624,7.80017 -92.505,24.777 -136.7467,25.69463 -44.2415,0.91768 -147.0887,-6.42367 -176.3916,-11.4708 -29.3028,-5.04719 -60.3294,-11.47085 -69.5223,-27.52999 -9.19309,-16.05921 -26.43009,-37.16554 -6.8948,-60.10718 z"
       id="path3533"
       inkscape:connector-curvature="0" />
    <path
       style="fill:#ffffff;fill-rule:evenodd;stroke:none;stroke-width:1px;stroke-linecap:butt;stroke-linejoin:miter;stroke-opacity:1"
       d="m 538.5298,282.1595 c 108.46432,85.46643 201.45864,107.77733 422.76207,131.26148 70.44463,7.47541 458.14913,11.44158 478.07033,12.23835 22.2085,0.88825 103.2041,19.66336 135.2856,37.49051 -29.2751,-29.03069 -97.2656,-42.24132 -118.8317,-47.5327 -61.2168,-15.01995 -418.6614,-9.54779 -500.96632,-15.56754 -40.70969,-2.97749 -260.83615,-55.14213 -294.54908,-70.46092 -37.82328,-17.18649 -126.81478,-74.9138 -126.81478,-74.9138 z"
       id="path4460"
       inkscape:connector-curvature="0"
       sodipodi:nodetypes="csscssscc" />
    <path
       style="fill:#ffffff;fill-opacity:1;stroke:none"
       d="m 444.42034,1165.1675 c 30.18372,7.0151 41.79277,13.5291 36.37508,17.5379 12.38312,2.0043 17.02683,54.1168 5.41769,63.6373 -0.77397,1.0024 -6.19156,4.0088 -3.86975,4.5099 2.32181,0.501 16.25277,-1.0022 18.57458,1.002 2.32181,2.0045 -20.89639,30.5661 -17.80071,31.5684 3.09588,1.0021 74.2984,-18.039 84.35951,-13.5293 10.06121,4.5098 4.64371,16.0346 7.73949,16.5358 3.09559,0.5011 31.73156,-2.5054 35.60131,-2.0044 3.86955,0.5011 10.83489,15.5335 14.70463,16.0346 3.86975,0.5011 21.67045,-6.514 24.76623,-6.013 3.09578,0.5011 1.54775,13.0283 5.41749,13.5292 3.86975,0.5011 20.89639,-10.5226 23.21829,-10.0216 2.32172,0.5011 10.83518,25.5554 14.70483,27.0584 3.86975,1.5033 28.63578,-27.5594 30.95769,-28.0605 2.32171,-0.5012 17.02654,34.0736 20.12241,34.5747 3.09578,0.5011 18.57446,-23.551 20.89637,-23.0499 2.32181,0.501 17.02663,14.5315 20.12232,15.5336 3.09578,1.0021 23.21829,-31.0671 26.31397,-31.0671 3.09587,0 29.40975,13.5292 31.73166,16.0345 2.32181,2.5055 4.64352,-13.028 7.7393,-13.028 3.09578,0 38.69699,9.0195 39.47105,8.5185 0.77387,-0.5012 -5.41768,-10.0218 -3.09587,-10.0218 2.32181,0 38.69699,12.5271 40.24502,10.0218 1.54775,-2.5055 78.94187,12.527 84.35947,10.5227 5.4176,-2.0044 -34.82739,-41.0888 -30.95784,-44.0953 3.86975,-3.0066 17.80093,0.501 18.57484,-1.0022 0.7739,-1.5032 -8.51345,-8.0173 -6.19171,-10.0216 2.322,-2.0043 28.63591,-10.0217 30.95761,-12.527 2.3219,-2.5055 -11.609,-9.0196 -8.5133,-10.5229 3.0958,-1.5032 48.7585,-11.0238 49.5323,-13.5292 0.7739,-2.5054 -23.2182,-14.5313 -20.1225,-18.0389 3.0958,-3.5076 11.6092,-5.0108 10.8352,-7.5162 -0.774,-2.5054 -15.4789,-5.512 -14.7049,-8.0175 0.774,-2.5053 8.5133,-15.0324 10.8351,-17.0366 2.3219,-2.0044 -16.2527,-1.0023 -16.2527,-3.0066 0,-2.0043 1.3669,-32.1019 28.8631,-50.3125 -48.0926,12.063 -68.33411,6.2172 -93.87405,2.2086 -25.54021,-4.0088 -15.47881,-29.0627 -19.34846,-30.5661 -3.86975,-1.5032 -32.50562,8.5185 -36.37537,5.0109 -3.86965,-3.5075 -5.41749,-10.0216 -8.51337,-10.0216 -3.09558,0 -20.89638,14.0302 -24.76594,13.5292 -3.86974,-0.5011 -40.24492,-22.5487 -45.66261,-23.0498 -5.41749,-0.501 -26.31387,8.5184 -30.95759,9.0195 -4.64362,0.5011 -8.51327,-12.026 -12.38301,-11.0237 -3.86975,1.0019 -28.63579,10.0215 -32.50534,9.0194 -3.86975,-1.0023 -6.96553,-5.0108 -10.06138,-4.0086 -3.09559,1.002 -17.02664,5.0107 -17.02664,5.0107 0,0 -10.06121,-3.0065 -14.70483,-3.0065 -4.64362,0 -36.37508,16.5358 -40.24483,17.5379 -3.86974,1.0021 -43.59745,-17.0789 -41.27564,-20.0854 -4.93102,13.1575 -28.75775,21.4306 -33.79662,22.0898 -5.41749,1.5031 -21.67035,-3.0065 -23.2181,-1.5033 -1.54794,1.5033 -6.19156,9.5205 -10.83527,10.0217 -4.64362,0.501 -15.4788,2.5053 -15.4788,2.5053 l 1.54784,3.0065 c 0,0 -32.50543,-8.0173 -36.37518,-11.0238 -3.86965,-3.0064 2.32191,13.0281 4.64372,17.0368 -13.93086,-4.0087 -54.94975,-12.5271 -58.04534,-15.0325 -3.09588,-2.5054 5.41739,9.0195 10.06101,12.5272 -6.19146,-1.5034 -11.60914,-2.0045 -11.60914,-2.0045 l 17.8007,12.026 -5.41768,1.0023 c 0,0 11.60914,5.5119 11.60914,8.0173 0,2.5054 -30.18353,5.5119 -30.18353,5.5119 0,0 12.38302,4.5096 9.28724,7.015 -3.09587,2.5055 -10.83527,4.0088 -10.83527,4.0088 l -1.54774,6.514 z"
       id="path5888"
       inkscape:connector-curvature="0"
       sodipodi:nodetypes="cccsccsscccccccsccscscsccsccccccsccscscssccsccscscccccccsccccccsccccc" />
    <path
       style="color:#000000;display:inline;overflow:visible;visibility:visible;fill:#ffffff;fill-opacity:1;fill-rule:nonzero;stroke:none;stroke-width:1px;marker:none;enable-background:accumulate"
       d="m 1001.5954,1236.5662 c 42.6212,26.8313 96.2172,54.3217 109.5529,59.8583 -0.1257,-15.4 8.674,-28.8272 10.9088,-39.3494 23.8311,12.087 139.6406,63.2512 157.7592,86.2438 -42.1379,-58.18 -134.076,-99.2843 -174.7203,-116.5248 -5.904,13.2622 -7.3093,22.0583 -10.6283,28.9634 -20.7371,-7.757 -81.7976,-45.1678 -81.7976,-45.1678 z"
       id="path5066"
       inkscape:connector-curvature="0"
       sodipodi:nodetypes="cccccccc" />
    <path
       style="color:#000000;display:inline;overflow:visible;visibility:visible;fill:#ffffff;fill-opacity:1;fill-rule:nonzero;stroke:none;stroke-width:1px;marker:none;enable-background:accumulate"
       d="m 635.86075,2911.9919 c -39.55156,-35.0668 -85.65988,-65.0712 -117.59331,-106.0199 l 4.0885,44.3251 c -20.1647,-9.0852 -31.88657,-27.8044 -46.47536,-43.2525 l -2.66904,27.7953 c -47.28802,-21.9682 -76.79877,-57.0987 -114.9018,-85.8672 l -0.23637,48.752 c 42.45277,24.9963 89.04879,43.4727 126.84109,75.803 l 5.77292,-26.9299 c 14.83868,9.5053 29.26651,19.5611 41.85939,32.0767 l 3.81661,-34.3598 z"
       id="path4032"
       inkscape:connector-curvature="0"
       sodipodi:nodetypes="cccccccccccc" />
    <path
       style="fill:#ffffff;fill-rule:evenodd;stroke:none;stroke-width:1px;stroke-linecap:butt;stroke-linejoin:miter;stroke-opacity:1"
       d="m 297.48061,2585.2233 c 10.80907,28.6703 23.83712,40.1434 43.31448,1.6345 15.88805,9.3062 15.78078,38.1623 67.83212,3.269 -29.87463,44.0445 -17.34353,47.6109 0,46.5835 -25.19619,57.0601 -3.70944,48.2148 5.72078,56.3906 -30.87927,34.4658 -26.83314,50.6373 -12.25882,61.2941 -10.41151,20.8792 -17.68526,41.1308 4.08627,55.5733 -17.02673,5.6974 -41.13559,3.1323 -33.50743,37.5937 -27.03627,-21.8029 -45.90514,-15.8367 -62.11133,-0.8173 -13.98253,-19.9805 -25.33708,-45.217 -64.5631,-14.7106 21.72388,-33.8017 13.12891,-50.7597 -4.08627,-62.9286 32.34197,-32.7226 7.09452,-44.1159 -17.9796,-55.5733 45.33089,-3.9346 32.4477,-40.2104 20.43136,-76.0046 21.2249,7.1893 42.525,14.905 53.12154,-52.3043 z"
       id="path4489"
       inkscape:connector-curvature="0"
       sodipodi:nodetypes="cccccccccccccc" />
  </g>
  <g
     inkscape:groupmode="layer"
     id="layer1"
     inkscape:label="txt">
    <text
       xml:space="preserve"
       style="font-size:16.91906166px;font-style:normal;font-variant:normal;font-weight:normal;font-stretch:normal;text-align:center;line-height:125%;letter-spacing:0px;word-spacing:0px;text-anchor:middle;fill:#000000;fill-opacity:1;stroke:none;font-family:Lavi;-inkscape-font-specification:Lavi"
       x="473.69452"
       y="261.18845"
       id="text4246"
       sodipodi:linespacing="125%"><tspan
         sodipodi:role="line"
         style="font-size:63.44648361px"
         x="473.69452"
         y="261.18845"
         id="tspan4252">D'acord.</tspan></text>
    <text
       xml:space="preserve"
       style="font-size:12px;font-style:normal;font-variant:normal;font-weight:normal;font-stretch:normal;text-align:center;line-height:125%;letter-spacing:0px;word-spacing:0px;text-anchor:middle;fill:#000000;fill-opacity:1;stroke:none;font-family:Lavi;-inkscape-font-specification:Lavi"
       x="773.52966"
       y="352.78668"
       id="text4246-4"
       sodipodi:linespacing="125%"><tspan
         sodipodi:role="line"
         style="font-size:45px"
         x="773.52966"
         y="352.78668"
         id="tspan4162">És massa</tspan><tspan
         sodipodi:role="line"
         style="font-size:45px"
         x="773.52966"
         y="409.03668"
         id="tspan3054">difícil...</tspan></text>
    <text
       xml:space="preserve"
       style="font-size:12px;font-style:normal;font-variant:normal;font-weight:normal;font-stretch:normal;text-align:center;line-height:125%;letter-spacing:0px;word-spacing:0px;text-anchor:middle;fill:#000000;fill-opacity:1;stroke:none;font-family:Lavi;-inkscape-font-specification:Lavi"
       x="1200.1364"
       y="433.05008"
       id="text4246-4-9"
       sodipodi:linespacing="125%"><tspan
         sodipodi:role="line"
         style="font-size:45px"
         x="1200.1364"
         y="433.05008"
         id="tspan4162-1">...plego.</tspan></text>
    <text
       xml:space="preserve"
       style="font-size:12px;font-style:normal;font-variant:normal;font-weight:normal;font-stretch:normal;text-align:center;line-height:125%;letter-spacing:0px;word-spacing:0px;text-anchor:middle;fill:#000000;fill-opacity:1;stroke:none;font-family:Lavi;-inkscape-font-specification:Lavi"
       x="777.4093"
       y="1212.4401"
       id="text4246-4-9-8"
       sodipodi:linespacing="125%"><tspan
         sodipodi:role="line"
         style="font-size:45px"
         x="777.4093"
         y="1212.4401"
         id="tspan4205">La Pepper no abandona</tspan><tspan
         sodipodi:role="line"
         style="font-size:45px;font-weight:bold;-inkscape-font-specification:Sans Bold"
         x="777.4093"
         y="1268.6901"
         id="tspan3058">MAI!</tspan></text>
    <text
       xml:space="preserve"
       style="font-size:14.78443336px;font-style:normal;font-variant:normal;font-weight:normal;font-stretch:normal;text-align:center;line-height:125%;letter-spacing:0px;word-spacing:0px;text-anchor:middle;fill:#000000;fill-opacity:1;stroke:none;font-family:Lavi;-inkscape-font-specification:Lavi"
       x="767.7915"
       y="1158.7135"
       id="text4246-5"
       sodipodi:linespacing="125%"><tspan
         sodipodi:role="line"
         style="font-size:55.44162369px;stroke:#000000;stroke-width:2.18458223;stroke-miterlimit:4;stroke-opacity:1;stroke-dasharray:none"
         x="767.7915"
         y="1158.7135"
         id="tspan4252-1">No!</tspan></text>
    <text
       xml:space="preserve"
       style="font-size:12px;font-style:normal;font-variant:normal;font-weight:normal;font-stretch:normal;text-align:center;line-height:125%;letter-spacing:0px;word-spacing:0px;text-anchor:middle;fill:#000000;fill-opacity:1;stroke:none;font-family:Lavi;-inkscape-font-specification:Lavi"
       x="310.95746"
       y="1886.489"
       id="text4246-4-9-8-0"
       sodipodi:linespacing="125%"><tspan
         sodipodi:role="line"
         style="font-size:45px"
         x="310.95746"
         y="1886.489"
         id="tspan4205-3">L'endemà...</tspan></text>
    <text
       xml:space="preserve"
       style="font-style:normal;font-variant:normal;font-weight:normal;font-stretch:normal;font-size:9.40283489px;line-height:125%;font-family:Lavi;-inkscape-font-specification:Lavi;text-align:center;letter-spacing:0px;word-spacing:0px;text-anchor:middle;fill:#000000;fill-opacity:1;stroke:none"
       x="-376.50845"
       y="2795.0046"
       id="text4246-4-9-8-0-3"
       sodipodi:linespacing="125%"
       transform="matrix(0.9106769,-0.80340828,0.24287987,0.88381324,0,0)"><tspan
         sodipodi:role="line"
         style="font-size:141.04251099px"
         x="-376.50845"
         y="2795.0046"
         id="tspan4205-3-3"><tspan
   style="font-size:121.45326996px"
   id="tspan4438">!</tspan>!</tspan></text>
    <text
       xml:space="preserve"
       style="font-size:160.11950684px;font-style:normal;font-variant:normal;font-weight:normal;font-stretch:normal;line-height:125%;letter-spacing:0.02734961px;word-spacing:0px;opacity:0.7;color:#000000;fill:url(#linearGradient4238-1);fill-opacity:1;fill-rule:nonzero;stroke:#854611;stroke-width:0.07121496;stroke-linecap:butt;stroke-linejoin:miter;stroke-miterlimit:4;stroke-opacity:1;stroke-dasharray:none;stroke-dashoffset:0;marker:none;visibility:visible;display:inline;overflow:visible;filter:url(#filter5561-7-4);enable-background:accumulate;font-family:Arial;-inkscape-font-specification:Arial"
       x="1705.2566"
       y="1742.2045"
       id="text4251"
       sodipodi:linespacing="125%"
       transform="matrix(1.0496631,-0.00680912,-0.72183224,1.8831671,499.77495,-1332.9519)"><tspan
         sodipodi:role="line"
         id="tspan4253"
         x="1705.2566"
         y="1742.2045"
         style="font-style:normal;font-variant:normal;font-weight:normal;font-stretch:normal;fill:url(#linearGradient4238-1);fill-opacity:1;stroke:#854611;stroke-width:0.07121496;stroke-miterlimit:4;stroke-opacity:1;stroke-dasharray:none;font-family:Lavi;-inkscape-font-specification:Lavi"><tspan
           id="tspan4365"
           style="font-size:45.57711792px;fill:url(#linearGradient4238-1);fill-opacity:1;stroke:#854611;stroke-width:0.07121496;stroke-miterlimit:4;stroke-opacity:1;stroke-dasharray:none"
           dy="0 0 0 0 0 0 0 0 0 0 0 0 0 0 3.0963025"
           dx="0 0 0 0 0 0 0 0 0 0 0 0 0 0 3.0963025">Quiquiriquiiii ! </tspan><tspan
           id="tspan4311"
           style="font-size:55.8440094px;fill:url(#linearGradient4238-1);fill-opacity:1;stroke:#854611;stroke-width:0.07121496;stroke-miterlimit:4;stroke-opacity:1;stroke-dasharray:none">! </tspan><tspan
           id="tspan4369"
           style="font-size:72.51364136px;fill:url(#linearGradient4238-1);fill-opacity:1;stroke:#854611;stroke-width:0.07121496;stroke-miterlimit:4;stroke-opacity:1;stroke-dasharray:none">!</tspan></tspan></text>
  </g>
</svg>
