<?xml version="1.0" encoding="UTF-8" standalone="no"?>
<!-- Created with Inkscape (http://www.inkscape.org/) -->

<svg
   xmlns:dc="http://purl.org/dc/elements/1.1/"
   xmlns:cc="http://creativecommons.org/ns#"
   xmlns:rdf="http://www.w3.org/1999/02/22-rdf-syntax-ns#"
   xmlns:svg="http://www.w3.org/2000/svg"
   xmlns="http://www.w3.org/2000/svg"
   xmlns:xlink="http://www.w3.org/1999/xlink"
   xmlns:sodipodi="http://sodipodi.sourceforge.net/DTD/sodipodi-0.dtd"
   xmlns:inkscape="http://www.inkscape.org/namespaces/inkscape"
   id="svg2"
   version="1.1"
   inkscape:version="0.91 r13725"
   width="2481"
   height="3503"
   sodipodi:docname="Pepper-and-Carrot_by-David-Revoy_E14P04.svg">
  <metadata
     id="metadata8">
    <rdf:RDF>
      <cc:Work
         rdf:about="">
        <dc:format>image/svg+xml</dc:format>
        <dc:type
           rdf:resource="http://purl.org/dc/dcmitype/StillImage" />
        <dc:title />
      </cc:Work>
    </rdf:RDF>
  </metadata>
  <defs
     id="defs6" />
  <sodipodi:namedview
     pagecolor="#ffffff"
     bordercolor="#666666"
     borderopacity="1"
     objecttolerance="10"
     gridtolerance="10"
     guidetolerance="10"
     inkscape:pageopacity="0"
     inkscape:pageshadow="2"
     inkscape:window-width="1366"
     inkscape:window-height="716"
     id="namedview4"
     showgrid="false"
     inkscape:zoom="0.40000001"
     inkscape:cx="1334.4692"
     inkscape:cy="1134.8761"
     inkscape:window-x="-8"
     inkscape:window-y="-8"
     inkscape:window-maximized="1"
     inkscape:current-layer="layer1"
     showguides="false" />
  <g
     inkscape:groupmode="layer"
     id="layer2"
     inkscape:label="artwork"
     sodipodi:insensitive="true">
    <image
       sodipodi:absref="D:\GitHub\peppercarrot_ep14_translation\cn\..\gfx_Pepper-and-Carrot_by-David-Revoy_E14P04.png"
       xlink:href="../gfx_Pepper-and-Carrot_by-David-Revoy_E14P04.png"
       width="2481"
       height="3503"
       id="image10"
       x="0"
       y="0" />
  </g>
  <g
     inkscape:groupmode="layer"
     id="layer3"
     inkscape:label="speechbubbles">
    <path
       style="color:#000000;display:inline;overflow:visible;visibility:visible;fill:#ffffff;fill-opacity:1;fill-rule:nonzero;stroke:none;stroke-width:1px;marker:none;enable-background:accumulate"
       d="m 1624.3083,358.98599 c 10.5479,-20.326 55.0295,-17.6728 70.7719,-11.75341 -29.8179,-26.89811 -26.7953,-41.4565 18.0836,-39.27815 -69.3273,-50.03545 -9.0474,-37.4874 4.3862,-47.07518 -56.8344,-20.53598 -28.2304,-36.16477 -15.4523,-53.29185 -67.4031,-7.3692 -41.5914,-34.29072 -41.467,-57.77429 -7.1139,10.31432 -38.5335,40.73998 -35.4467,3.67491 -49.1411,30.74469 -105.8142,48.1124 -102.199,-13.92516 -21.9509,29.19715 -41.5578,40.50459 -35.4468,3.67491 -50.7129,43.62724 -88.5417,22.31788 -127.0835,4.70221 -12.4366,13.45458 -16.5223,35.62602 -50.081,26.98031 2.9584,14.86369 -9.8635,23.59611 -36.7135,26.85913 33.569,12.15538 38.8137,21.7567 -26.8152,24.96534 48.8812,5.83063 94.3299,12.30915 32.6325,39.45537 17.9337,2.5986 64.2375,-20.57052 34.0078,57.75726 34.3039,-22.61401 69.2086,-33.499 103.8116,24.51255 23.0815,-24.94651 58.8471,-34.85784 69.3644,0.23525 7.1597,-13.79701 29.934,-16.97865 48.7659,-15.75827 6.5216,6.41655 13.0098,14.89498 19.5168,25.80383 15.4752,-19.99328 36.3912,-32.44989 69.3643,0.23524 z"
       id="path3549-3-7"
       inkscape:connector-curvature="0"
       sodipodi:nodetypes="cccccccccccccccccccc" />
    <path
       style="fill:#ffffff;fill-rule:evenodd;stroke:none;stroke-width:1px;stroke-linecap:butt;stroke-linejoin:miter;stroke-opacity:1"
       d="m 1512.728,333.23881 c -14.0275,-2.75755 -26.8311,5.52359 -38.636,12.07893 -7.6021,3.93838 -15.7544,7.60882 -20.9722,14.87533 -5.1521,5.73841 -6.9366,15.9276 -0.2434,21.24242 4.7631,2.76075 11.6542,7.97375 7.1799,14.25838 -2.5773,5.32331 -9.5316,7.01313 -10.6679,13.1085 -2.7717,8.49796 4.1303,16.17783 11.2558,19.25645 5.2807,2.03439 10.1592,2.80096 10.8624,9.29875 5.382,9.76609 17.2314,11.34577 27.0726,12.19411 8.4483,0.44992 16.9745,1.81986 25.3365,-0.24661 9.3756,-1.707 20.6892,-4.58685 28.4252,2.99641 13.6091,8.48643 30.0643,10.30023 45.6868,11.07215 7.8612,0.0565 15.8089,0.95629 23.6205,0.12757 16.4985,-2.8175 33.3706,-3.75591 50.0017,-1.71264 17.3475,-0.095 29.8984,-16.69364 47.3406,-16.25915 14.365,-3.33988 30.3242,-6.59382 40.489,-18.5539 4.4311,-4.36517 4.1325,-11.66902 9.7937,-14.45037 4.3409,-6.16102 -1.6917,-14.45989 -7.9214,-15.99606 -6.0335,-0.32119 5.3667,-2.213 6.5922,-5.01905 6.2326,-4.59011 10.6854,-14.65891 4.778,-21.34731 -13.2948,-12.80871 -33.4784,-13.59931 -46.8434,-26.36988 -11.1265,-5.50852 -22.9556,1.08434 -34.2396,2.33379 -5.5596,-1.26427 -7.9315,-10.50793 -14.9097,-11.5648 -8.956,-3.81615 -18.8433,-3.95541 -28.3857,-4.03777 -9.2471,6.39721 -20.9792,3.94985 -30.7436,0.29467 -8.5214,-3.10334 -17.6105,-5.53554 -26.6629,-3.50688 -6.6728,0.53179 -14.2617,3.98461 -20.5142,1.19596 -8.7961,-7.44542 -20.8389,-3.72347 -31.1931,-4.54728 -7.1157,-2.01053 -13.6156,2.57428 -19.8905,5.36572 -2.5088,1.11665 -10.3503,5.89786 -1.9078,3.91252"
       id="path4220"
       inkscape:connector-curvature="0" />
    <path
       style="color:#000000;display:inline;overflow:visible;visibility:visible;fill:#ffffff;fill-opacity:1;fill-rule:nonzero;stroke:none;stroke-width:1px;marker:none;enable-background:accumulate"
       d="m 1280.8534,546.00632 c 21.2486,-41.3416 65.9441,-76.10613 124.561,-90.19986 58.617,-14.09373 167.0584,-10.33545 186.109,-5.63747 19.0504,4.69787 123.8282,21.61029 146.5422,45.09987 22.7142,23.48959 53.4881,52.61665 60.0825,82.68319 6.5945,30.06666 0.7327,102.41451 -20.5159,118.38743 -21.2487,15.97293 -117.9667,50.73746 -174.3856,52.61654 -56.4188,1.87919 -187.5742,-13.15414 -224.9425,-23.48948 -37.3683,-10.33545 -76.9348,-23.48959 -88.6581,-56.37492 -11.7235,-32.88545 -33.7048,-76.10624 -8.7926,-123.0853 z"
       id="path3533"
       inkscape:connector-curvature="0" />
    <path
       style="color:#000000;display:inline;overflow:visible;visibility:visible;fill:#ffffff;fill-opacity:1;fill-rule:nonzero;stroke:none;stroke-width:1px;marker:none;filter:url(#filter4386);enable-background:accumulate"
       d="m 1678.4528,528.49189 c 30.5923,52.37324 -103.4044,94.84893 -110.4621,125.45674 -2.3684,10.27079 -5.582,32.22619 0.4801,42.42915 10.2279,17.21496 39.4486,19.14791 -24.0871,109.8658 -15.4603,19.92013 12.0481,56.95066 47.151,66.90119 28.0513,17.10155 -7.3932,123.12378 -37.4741,172.62433 43.7979,-42.6678 77.2922,-149.02168 64.215,-140.15631 4.5835,-35.53698 -13.701,-44.07469 -23.5467,-53.21369 -9.8457,-9.13907 -29.5569,-14.98259 -28.3948,-30.06869 1.1623,-15.08705 39.8018,-58.24357 44.8599,-85.55656 5.0578,-27.31218 -22.1531,-43.05915 -16.0064,-68.06815 6.1465,-25.00909 83.9624,-57.20023 102.0984,-79.91604 20.9522,-23.39323 25.1007,-60.90229 25.1007,-60.90229 z"
       id="path3153"
       inkscape:connector-curvature="0"
       sodipodi:nodetypes="cssccccscssccc" />
    <path
       style="color:#000000;display:inline;overflow:visible;visibility:visible;fill:#ffffff;fill-opacity:1;fill-rule:nonzero;stroke:none;stroke-width:1px;marker:none;enable-background:accumulate"
       d="m 1475.5653,923.4853 c 0.7213,-47.05507 14.7719,-91.55482 139.3276,-90.01485 93.3925,1.15467 118.2634,37.40956 120.3326,84.97275 1.4583,33.51868 -49.0677,64.54426 -129.3079,62.90076 -76.6942,-1.57085 -124.7435,-21.97449 -130.3523,-57.85866 z"
       id="path5026"
       inkscape:connector-curvature="0"
       sodipodi:nodetypes="csssc" />
    <path
       style="color:#000000;display:inline;overflow:visible;visibility:visible;fill:#ffffff;fill-opacity:1;fill-rule:nonzero;stroke:none;stroke-width:1px;marker:none;enable-background:accumulate"
       d="m 220.13681,1919.4087 c 10.13168,-44.5515 31.25486,-91.0727 224.13101,-81.9927 192.87616,9.0799 235.86398,49.3421 236.32314,95.588 0.60145,60.5793 -49.78374,70.1685 -78.0741,77.4484 -28.29023,7.2798 -94.50022,15.0338 -142.10451,16.9543 -25.59581,1.0327 -180.72371,-7.0788 -209.74526,-30.4482 -28.91806,-23.2861 -33.28283,-45.4895 -30.53028,-77.5498 z"
       id="path3365"
       inkscape:connector-curvature="0"
       sodipodi:nodetypes="csssssc" />
    <path
       style="fill:#ffffff;stroke:none"
       d="m 797.64506,2218.9795 c -7.92197,92.188 -119.94485,106.446 -171.65851,109.1706 -51.71361,2.7246 -189.25231,14.6142 -235.84928,-62.4983 -46.59698,-77.1125 -26.13055,-112.4852 4.17327,-150.0623 25.84201,-32.0447 86.59652,-47.5476 139.77831,-55.1369 66.03581,-9.4235 175.67023,12.4811 221.45615,51.9185 24.41713,21.0313 50.02209,14.4205 42.10006,106.6084 z"
       id="path3100"
       inkscape:connector-curvature="0"
       sodipodi:nodetypes="zsssssz" />
    <path
       style="fill:#ffffff;fill-rule:evenodd;stroke:none;stroke-width:1px;stroke-linecap:butt;stroke-linejoin:miter;stroke-opacity:1"
       d="m 534.12829,1990.1588 c 25.7289,58.6047 40.02273,101.4862 22.87013,151.5146 -17.15259,50.0284 1.42939,104.345 -12.86445,141.509 -14.29383,37.1639 -38.54491,47.2584 -11.43506,107.2037 19.79941,43.7805 -85.08462,39.3605 -44.31895,127.2554 -63.78914,-78.8501 40.07923,-99.8873 25.7289,-127.2151 -28.88282,-55.0024 -7.13885,-80.0858 2.86684,-105.8147 10.00568,-25.7289 -6.87995,-119.2204 10.00568,-151.5146 18.13588,-34.6853 -17.29178,-107.4567 -22.87013,-131.5032 -7.17205,-30.9164 30.01704,-11.4351 30.01704,-11.4351 z"
       id="path4313"
       inkscape:connector-curvature="0"
       sodipodi:nodetypes="cssscssssc" />
  </g>
  <g
     inkscape:groupmode="layer"
     id="layer1"
     inkscape:label="txt">
    <text
       xml:space="preserve"
       style="font-style:normal;font-variant:normal;font-weight:normal;font-stretch:normal;font-size:18.10567665px;line-height:125%;font-family:Lavi;-inkscape-font-specification:Lavi;text-align:center;letter-spacing:0px;word-spacing:0px;text-anchor:middle;fill:#000000;fill-opacity:1;stroke:none"
       x="1503.0696"
       y="262.59164"
       id="text4246"
       sodipodi:linespacing="125%"><tspan
         sodipodi:role="line"
         style="font-size:67.89629364px;-inkscape-font-specification:'WenQuanYi Micro Hei';font-family:'WenQuanYi Micro Hei';font-weight:normal;font-style:normal;font-stretch:normal;font-variant:normal"
         x="1503.0696"
         y="262.59164"
         id="tspan4252">萝卜头！</tspan></text>
    <text
       xml:space="preserve"
       style="font-style:normal;font-variant:normal;font-weight:normal;font-stretch:normal;font-size:12px;line-height:125%;font-family:Lavi;-inkscape-font-specification:Lavi;text-align:center;letter-spacing:0px;word-spacing:0px;text-anchor:middle;fill:#000000;fill-opacity:1;stroke:none"
       x="1625.382"
       y="408.19888"
       id="text4246-1"
       sodipodi:linespacing="125%"><tspan
         sodipodi:role="line"
         style="font-style:normal;font-variant:normal;font-weight:normal;font-stretch:normal;font-size:45px;font-family:'WenQuanYi Micro Hei';-inkscape-font-specification:'WenQuanYi Micro Hei'"
         x="1625.382"
         y="408.19888"
         id="tspan4252-8">回来呀…</tspan></text>
    <text
       xml:space="preserve"
       style="font-style:normal;font-variant:normal;font-weight:normal;font-stretch:normal;font-size:14.48807144px;line-height:125%;font-family:Lavi;-inkscape-font-specification:Lavi;text-align:center;letter-spacing:0px;word-spacing:0px;text-anchor:middle;fill:#000000;fill-opacity:1;stroke:none"
       x="1570.3872"
       y="534.64532"
       id="text4246-1-3"
       sodipodi:linespacing="125%"
       transform="scale(0.98248457,1.0178277)"><tspan
         sodipodi:role="line"
         style="font-style:normal;font-variant:normal;font-weight:normal;font-stretch:normal;font-size:54.33026886px;font-family:'WenQuanYi Micro Hei';-inkscape-font-specification:'WenQuanYi Micro Hei'"
         x="1570.3872"
         y="534.64532"
         id="tspan4174">…沼泽龙</tspan><tspan
         sodipodi:role="line"
         style="font-style:normal;font-variant:normal;font-weight:normal;font-stretch:normal;font-size:54.33026886px;font-family:'WenQuanYi Micro Hei';-inkscape-font-specification:'WenQuanYi Micro Hei'"
         x="1570.3872"
         y="602.55817"
         id="tspan3369">可是号称</tspan><tspan
         sodipodi:role="line"
         style="font-style:normal;font-variant:normal;font-weight:normal;font-stretch:normal;font-size:54.33026886px;font-family:'WenQuanYi Micro Hei';-inkscape-font-specification:'WenQuanYi Micro Hei'"
         x="1570.3872"
         y="670.47101"
         id="tspan3371">最温顺的</tspan></text>
    <text
       xml:space="preserve"
       style="font-style:normal;font-variant:normal;font-weight:normal;font-stretch:normal;font-size:9.4791708px;line-height:125%;font-family:Lavi;-inkscape-font-specification:Lavi;text-align:center;letter-spacing:0px;word-spacing:0px;text-anchor:middle;fill:#000000;fill-opacity:1;stroke:none"
       x="1607.5629"
       y="896.56146"
       id="text4246-1-3-6"
       sodipodi:linespacing="125%"><tspan
         sodipodi:role="line"
         style="font-size:35.54689407px;-inkscape-font-specification:'WenQuanYi Micro Hei';font-family:'WenQuanYi Micro Hei';font-weight:normal;font-style:normal;font-stretch:normal;font-variant:normal"
         x="1607.5629"
         y="896.56146"
         id="tspan4212">我可不是</tspan><tspan
         sodipodi:role="line"
         style="font-size:35.54689407px;-inkscape-font-specification:'WenQuanYi Micro Hei';font-family:'WenQuanYi Micro Hei';font-weight:normal;font-style:normal;font-stretch:normal;font-variant:normal"
         x="1607.5629"
         y="940.99506"
         id="tspan3375">瞎说的…</tspan></text>
    <text
       xml:space="preserve"
       style="font-style:normal;font-variant:normal;font-weight:normal;font-stretch:normal;font-size:12px;line-height:125%;font-family:Lavi;-inkscape-font-specification:Lavi;text-align:center;letter-spacing:0px;word-spacing:0px;text-anchor:middle;fill:#000000;fill-opacity:1;stroke:none"
       x="443.2666"
       y="1919.0948"
       id="text4246-10"
       sodipodi:linespacing="125%"><tspan
         sodipodi:role="line"
         style="font-style:normal;font-variant:normal;font-weight:normal;font-stretch:normal;font-size:45px;font-family:'WenQuanYi Micro Hei';-inkscape-font-specification:'WenQuanYi Micro Hei'"
         x="443.2666"
         y="1919.0948"
         id="tspan4262">嗯…话说</tspan><tspan
         sodipodi:role="line"
         style="font-style:normal;font-variant:normal;font-weight:normal;font-stretch:normal;font-size:45px;font-family:'WenQuanYi Micro Hei';-inkscape-font-specification:'WenQuanYi Micro Hei'"
         x="443.2666"
         y="1975.3448"
         id="tspan3379">对付电龙…</tspan></text>
    <text
       xml:space="preserve"
       style="font-style:normal;font-variant:normal;font-weight:normal;font-stretch:normal;font-size:12px;line-height:125%;font-family:Lavi;-inkscape-font-specification:Lavi;text-align:center;letter-spacing:0px;word-spacing:0px;text-anchor:middle;fill:#000000;fill-opacity:1;stroke:none"
       x="581.8111"
       y="2179.9912"
       id="text4246-10-5"
       sodipodi:linespacing="125%"><tspan
         sodipodi:role="line"
         style="font-style:normal;font-variant:normal;font-weight:normal;font-stretch:normal;font-size:45px;font-family:'WenQuanYi Micro Hei';-inkscape-font-specification:'WenQuanYi Micro Hei'"
         x="581.8111"
         y="2179.9912"
         id="tspan4289">…用这个钳子</tspan><tspan
         sodipodi:role="line"
         style="font-style:normal;font-variant:normal;font-weight:normal;font-stretch:normal;font-size:45px;font-family:'WenQuanYi Micro Hei';-inkscape-font-specification:'WenQuanYi Micro Hei'"
         x="581.8111"
         y="2236.2412"
         id="tspan3385">可能未必合适</tspan></text>
  </g>
</svg>
