<?xml version="1.0" encoding="UTF-8" standalone="no"?>
<!-- Created with Inkscape (http://www.inkscape.org/) -->

<svg
   xmlns:dc="http://purl.org/dc/elements/1.1/"
   xmlns:cc="http://creativecommons.org/ns#"
   xmlns:rdf="http://www.w3.org/1999/02/22-rdf-syntax-ns#"
   xmlns:svg="http://www.w3.org/2000/svg"
   xmlns="http://www.w3.org/2000/svg"
   xmlns:xlink="http://www.w3.org/1999/xlink"
   xmlns:sodipodi="http://sodipodi.sourceforge.net/DTD/sodipodi-0.dtd"
   xmlns:inkscape="http://www.inkscape.org/namespaces/inkscape"
   id="svg2"
   version="1.1"
   inkscape:version="0.91 r13725"
   width="2481"
   height="3503"
   sodipodi:docname="Pepper-and-Carrot_by-David-Revoy_E14P05.svg">
  <metadata
     id="metadata8">
    <rdf:RDF>
      <cc:Work
         rdf:about="">
        <dc:format>image/svg+xml</dc:format>
        <dc:type
           rdf:resource="http://purl.org/dc/dcmitype/StillImage" />
        <dc:title />
      </cc:Work>
    </rdf:RDF>
  </metadata>
  <defs
     id="defs6">
    <linearGradient
       inkscape:collect="always"
       xlink:href="#linearGradient4232"
       id="linearGradient4238"
       x1="1956.4867"
       y1="1758.8628"
       x2="1955.2883"
       y2="1705.3795"
       gradientUnits="userSpaceOnUse" />
    <linearGradient
       inkscape:collect="always"
       id="linearGradient4232">
      <stop
         style="stop-color:#2b0000;stop-opacity:1"
         offset="0"
         id="stop4234" />
      <stop
         style="stop-color:#800000;stop-opacity:1"
         offset="1"
         id="stop4236" />
    </linearGradient>
    <filter
       style="color-interpolation-filters:sRGB"
       id="filter5561-7"
       inkscape:label="Roughen">
      <feFlood
         id="feFlood5563-4"
         flood-opacity="1"
         flood-color="rgb(135,2,0)"
         result="flood" />
      <feComposite
         id="feComposite5565-6"
         in2="SourceGraphic"
         in="flood"
         operator="in"
         result="composite1" />
      <feMorphology
         id="feMorphology5567-3"
         operator="dilate"
         radius="1.3"
         result="result3"
         scale="33.299999999999997" />
      <feComposite
         id="feComposite5569-6"
         in2="result3"
         in="SourceGraphic"
         operator="over"
         result="fbSourceGraphic"
         radius="3.3999999999999999" />
      <feColorMatrix
         result="fbSourceGraphicAlpha"
         in="fbSourceGraphic"
         values="0 0 0 -1 0 0 0 0 -1 0 0 0 0 -1 0 0 0 0 1 0"
         id="feColorMatrix4681" />
      <feTurbulence
         id="feTurbulence4683"
         type="fractalNoise"
         numOctaves="1"
         seed="311"
         baseFrequency="0.002 0.032999999999999988"
         result="turbulence" />
      <feDisplacementMap
         id="feDisplacementMap4685"
         in2="turbulence"
         in="fbSourceGraphic"
         scale="33.29283110571081"
         yChannelSelector="G"
         xChannelSelector="R" />
    </filter>
    <linearGradient
       inkscape:collect="always"
       xlink:href="#linearGradient4232"
       id="linearGradient4238-1"
       x1="1956.4867"
       y1="1758.8628"
       x2="1955.2883"
       y2="1705.3795"
       gradientUnits="userSpaceOnUse" />
    <filter
       style="color-interpolation-filters:sRGB"
       id="filter5561-7-0"
       inkscape:label="Roughen">
      <feFlood
         id="feFlood5563-4-4"
         flood-opacity="1"
         flood-color="rgb(196,140,139)"
         result="flood" />
      <feComposite
         id="feComposite5565-6-8"
         in2="SourceGraphic"
         in="flood"
         operator="in"
         result="composite1" />
      <feMorphology
         id="feMorphology5567-3-1"
         operator="dilate"
         radius="2"
         result="result3" />
      <feComposite
         id="feComposite5569-6-9"
         in2="result3"
         in="SourceGraphic"
         operator="over"
         result="fbSourceGraphic"
         radius="3.3999999999999999" />
      <feColorMatrix
         result="fbSourceGraphicAlpha"
         in="fbSourceGraphic"
         values="0 0 0 -1 0 0 0 0 -1 0 0 0 0 -1 0 0 0 0 1 0"
         id="feColorMatrix4681-7" />
      <feTurbulence
         id="feTurbulence4683-1"
         type="fractalNoise"
         numOctaves="1"
         seed="20"
         baseFrequency="0.0030000000000000001 0.044999999999999998"
         result="turbulence" />
      <feDisplacementMap
         id="feDisplacementMap4685-9"
         in2="turbulence"
         in="fbSourceGraphic"
         scale="37.8"
         yChannelSelector="G"
         xChannelSelector="R" />
    </filter>
    <linearGradient
       inkscape:collect="always"
       xlink:href="#linearGradient4232"
       id="linearGradient4328"
       x1="1956.4867"
       y1="1758.8628"
       x2="1955.2883"
       y2="1705.3795"
       gradientUnits="userSpaceOnUse" />
    <linearGradient
       inkscape:collect="always"
       xlink:href="#linearGradient4232"
       id="linearGradient4336"
       x1="1956.4867"
       y1="1758.8628"
       x2="1955.2883"
       y2="1705.3795"
       gradientUnits="userSpaceOnUse" />
    <linearGradient
       inkscape:collect="always"
       xlink:href="#linearGradient4232"
       id="linearGradient4344"
       x1="1956.4867"
       y1="1758.8628"
       x2="1955.2883"
       y2="1705.3795"
       gradientUnits="userSpaceOnUse" />
    <linearGradient
       inkscape:collect="always"
       xlink:href="#linearGradient4232"
       id="linearGradient4352"
       x1="1956.4867"
       y1="1758.8628"
       x2="1955.2883"
       y2="1705.3795"
       gradientUnits="userSpaceOnUse" />
  </defs>
  <sodipodi:namedview
     pagecolor="#ffffff"
     bordercolor="#666666"
     borderopacity="1"
     objecttolerance="10"
     gridtolerance="10"
     guidetolerance="10"
     inkscape:pageopacity="0"
     inkscape:pageshadow="2"
     inkscape:window-width="1366"
     inkscape:window-height="715"
     id="namedview4"
     showgrid="false"
     inkscape:zoom="0.32526913"
     inkscape:cx="974.96693"
     inkscape:cy="1031.7767"
     inkscape:window-x="-8"
     inkscape:window-y="-8"
     inkscape:window-maximized="1"
     inkscape:current-layer="layer3" />
  <g
     inkscape:groupmode="layer"
     id="layer2"
     inkscape:label="artwork"
     sodipodi:insensitive="true">
    <image
       sodipodi:absref="D:\practical\Trans\peppercarrot_ep14_translation\vi\..\gfx_Pepper-and-Carrot_by-David-Revoy_E14P05.png"
       xlink:href="../gfx_Pepper-and-Carrot_by-David-Revoy_E14P05.png"
       width="2481"
       height="3503"
       id="image10"
       x="0"
       y="0" />
  </g>
  <g
     inkscape:groupmode="layer"
     id="layer3"
     inkscape:label="speechbubbles">
    <path
       style="fill:#ffffff;fill-rule:evenodd;stroke:none;stroke-width:1px;stroke-linecap:butt;stroke-linejoin:miter;stroke-opacity:1"
       d="m 327.00745,254.90407 c 0,-45.11245 -7.85509,-78.94678 31.42034,-82.70615 39.27542,-3.75937 125.68133,-6.5789 146.62822,0 27.49279,-3.75937 83.78756,4.69921 94.261,9.39842 10.47345,4.69922 23.56525,70.4882 20.94691,86.46552 -2.61838,15.97732 -14.401,36.65386 -35.34789,39.47339 -20.9469,2.81953 -86.40592,4.69921 -103.42527,5.63905 -17.01934,0.93985 -83.78755,3.75937 -103.42527,-3.75937 -19.6377,-7.51874 -24.87442,-20.67653 -24.87442,-20.67653 0,0 -30.11116,-7.51874 -26.18362,-33.83433 z"
       id="path4440"
       inkscape:connector-curvature="0" />
    <path
       style="fill:#ffffff;fill-rule:evenodd;stroke:none;stroke-width:1px;stroke-linecap:butt;stroke-linejoin:miter;stroke-opacity:1"
       d="m 630.11534,346.06879 c 1.68036,-22.39656 2.04272,-44.71358 44.1267,-69.54835 20.58169,-7.1297 43.72452,-12.40475 84.79245,-4.69921 21.32078,-2.02462 25.39709,5.31653 33.74394,10.33827 25.72342,-2.58584 45.10063,4.01964 64.02697,11.27811 20.83306,-3.2062 28.2013,8.21355 38.07007,16.91716 16.49679,9.05395 22.339,23.89459 25.09165,40.41323 -1.54677,17.43557 -2.01694,35.33893 -14.7089,47.93198 -14.43816,34.87803 -38.98756,39.55227 -62.29649,47.93197 -19.32275,12.46912 -45.09709,20.03267 -87.38815,15.03748 -74.8208,4.10041 -75.66374,-8.54029 -99.50136,-15.97733 -15.15407,-11.2386 -29.8893,-22.75017 -33.74394,-41.35307 -12.409,-20.90511 -4.9844,-39.85167 7.78706,-58.27024 z"
       id="path4442"
       inkscape:connector-curvature="0"
       sodipodi:nodetypes="ccccccccccccc" />
    <path
       style="color:#000000;display:inline;overflow:visible;visibility:visible;fill:#ffffff;fill-opacity:1;fill-rule:nonzero;stroke:none;stroke-width:1px;marker:none;enable-background:accumulate"
       d="m 1029.8895,393.25938 c 14.4698,-20.18866 44.9062,-37.16548 84.8228,-44.04798 39.9165,-6.88251 113.7622,-5.0472 126.7352,-2.753 12.9728,2.29416 84.3236,10.55313 99.7913,22.02397 15.4679,11.47085 36.4239,25.69469 40.9145,40.37731 4.4907,14.68268 0.499,50.01285 -13.9707,57.81304 -14.4698,7.80017 -80.3321,24.777 -118.752,25.69463 -38.4197,0.91768 -127.7329,-6.42367 -153.1798,-11.4708 -25.4468,-5.04719 -52.3906,-11.47085 -60.3737,-27.52999 -7.9834,-16.05921 -22.9521,-37.16554 -5.9876,-60.10718 z"
       id="path3533"
       inkscape:connector-curvature="0" />
    <path
       style="fill:#ffffff;fill-rule:evenodd;stroke:none;stroke-width:1px;stroke-linecap:butt;stroke-linejoin:miter;stroke-opacity:1"
       d="m 532.85872,282.1595 c 108.46432,85.46643 201.45864,107.77733 422.76207,131.26148 70.44461,7.47541 458.14911,11.44158 478.07031,12.23835 22.2085,0.88825 103.2041,19.66336 135.2856,37.49051 -29.2751,-29.03069 -97.2656,-42.24132 -118.8317,-47.5327 -61.2168,-15.01995 -418.6614,-9.54779 -500.9663,-15.56754 -40.70969,-2.97749 -260.83615,-55.14213 -294.54908,-70.46092 -37.82328,-17.18649 -126.81478,-74.9138 -126.81478,-74.9138 z"
       id="path4460"
       inkscape:connector-curvature="0"
       sodipodi:nodetypes="csscssscc" />
    <path
       style="fill:#ffffff;fill-opacity:1;stroke:none"
       d="m 444.42034,1166.8112 c 30.18372,7.1421 41.79277,13.7741 36.37508,17.8555 12.38312,2.0406 17.02683,55.0969 5.41769,64.7899 -0.77397,1.0206 -6.19156,4.0813 -3.86975,4.5915 2.32181,0.5102 16.25277,-1.0203 18.57458,1.0202 2.32181,2.0408 -20.89639,31.1197 -17.80071,32.1402 3.09588,1.0202 74.2984,-18.3657 84.35951,-13.7744 10.06121,4.5915 4.64371,16.325 7.73949,16.8353 3.09559,0.5102 31.73156,-2.5508 35.60131,-2.0407 3.86955,0.5102 10.83489,15.8148 14.70463,16.3251 3.86975,0.5101 21.67045,-6.632 24.76623,-6.122 3.09578,0.5102 1.54775,13.2643 5.41749,13.7743 3.86975,0.5101 20.89639,-10.7132 23.21829,-10.2032 2.32172,0.5102 10.83518,26.0182 14.70483,27.5484 3.86975,1.5306 28.63578,-28.0584 30.95769,-28.5686 2.32171,-0.5103 17.02654,34.6907 20.12241,35.2008 3.09578,0.5103 18.57446,-23.9774 20.89637,-23.4673 2.32181,0.5101 17.02663,14.7947 20.12232,15.8149 3.09578,1.0202 23.21829,-31.6298 26.31397,-31.6298 3.09587,0 29.40975,13.7743 31.73166,16.325 2.32181,2.5509 4.64352,-13.264 7.7393,-13.264 3.09578,0 38.69699,9.1829 39.47105,8.6728 0.77387,-0.5102 -5.41768,-10.2033 -3.09587,-10.2033 2.32181,0 38.69699,12.7539 40.24502,10.2033 1.54775,-2.5509 78.94187,12.7539 84.35947,10.7133 5.4176,-2.0407 -34.82739,-41.833 -30.95784,-44.894 3.86975,-3.061 17.80093,0.5101 18.57484,-1.0203 0.7739,-1.5305 -8.51345,-8.1625 -6.19171,-10.2031 2.322,-2.0405 28.63591,-10.2032 30.95761,-12.7538 2.3219,-2.5509 -11.609,-9.183 -8.5133,-10.7136 3.0958,-1.5304 48.7585,-11.2234 49.5323,-13.7741 0.7739,-2.5509 -23.2182,-14.7945 -20.1225,-18.3658 3.0958,-3.5711 11.6092,-5.1015 10.8352,-7.6523 -0.774,-2.5507 -15.4789,-5.6117 -14.7049,-8.1626 0.774,-2.5507 8.5133,-15.3047 10.8351,-17.3452 2.3219,-2.0407 -16.2527,-1.0204 -16.2527,-3.0611 0,-2.0405 1.3669,-32.6833 28.8631,-51.2237 -48.0926,12.2814 -68.33411,6.3299 -93.87405,2.2487 -25.54021,-4.0815 -15.47881,-29.5892 -19.34846,-31.1198 -3.86975,-1.5304 -32.50562,8.6728 -36.37537,5.1016 -3.86965,-3.571 -5.41749,-10.2031 -8.51337,-10.2031 -3.09558,0 -20.89638,14.2843 -24.76594,13.7743 -3.86974,-0.5102 -40.24492,-22.9571 -45.66261,-23.4672 -5.41749,-0.5101 -26.31387,8.6726 -30.95759,9.1828 -4.64362,0.5101 -8.51327,-12.2438 -12.38301,-11.2234 -3.86975,1.0201 -28.63579,10.203 -32.50534,9.1828 -3.86975,-1.0205 -6.96553,-5.1016 -10.06138,-4.0812 -3.09559,1.0202 -17.02664,5.1014 -17.02664,5.1014 0,0 -10.06121,-3.0609 -14.70483,-3.0609 -4.64362,0 -36.37508,16.8353 -40.24483,17.8555 -3.86974,1.0202 -43.59745,-17.3882 -41.27564,-20.4492 -4.93102,13.3958 -28.75775,21.8188 -33.79662,22.4899 -5.41749,1.5303 -21.67035,-3.0609 -23.2181,-1.5305 -1.54794,1.5305 -6.19156,9.6929 -10.83527,10.2032 -4.64362,0.5101 -15.4788,2.5507 -15.4788,2.5507 l 1.54784,3.061 c 0,0 -32.50543,-8.1626 -36.37518,-11.2235 -3.86965,-3.0609 2.32191,13.264 4.64372,17.3453 -13.93086,-4.0813 -54.94975,-12.7539 -58.04534,-15.3047 -3.09588,-2.5508 5.41739,9.1829 10.06101,12.7541 -6.19146,-1.5307 -11.60914,-2.0408 -11.60914,-2.0408 l 17.8007,12.2437 -5.41768,1.0205 c 0,0 11.60914,5.6118 11.60914,8.1625 0,2.5508 -30.18353,5.6118 -30.18353,5.6118 0,0 12.38302,4.5912 9.28724,7.142 -3.09587,2.5508 -10.83527,4.0814 -10.83527,4.0814 l -1.54774,6.632 z"
       id="path5888"
       inkscape:connector-curvature="0"
       sodipodi:nodetypes="cccsccsscccccccsccscscsccsccccccsccscscssccsccscscccccccsccccccsccccc" />
    <path
       style="color:#000000;display:inline;overflow:visible;visibility:visible;fill:#ffffff;fill-opacity:1;fill-rule:nonzero;stroke:none;stroke-width:1px;marker:none;enable-background:accumulate"
       d="m 1001.5954,1236.5662 c 42.6212,26.8313 96.2172,54.3217 109.5529,59.8583 -0.1257,-15.4 8.674,-28.8272 10.9088,-39.3494 23.8311,12.087 139.6406,63.2512 157.7592,86.2438 -42.1379,-58.18 -134.076,-99.2843 -174.7203,-116.5248 -5.904,13.2622 -7.3093,22.0583 -10.6283,28.9634 -20.7371,-7.757 -81.7976,-45.1678 -81.7976,-45.1678 z"
       id="path5066"
       inkscape:connector-curvature="0"
       sodipodi:nodetypes="cccccccc" />
    <path
       style="color:#000000;display:inline;overflow:visible;visibility:visible;fill:#ffffff;fill-opacity:1;fill-rule:nonzero;stroke:none;stroke-width:1px;marker:none;enable-background:accumulate"
       d="m 635.86075,2911.9919 c -39.55156,-35.0668 -85.65988,-65.0712 -117.59331,-106.0199 l 4.0885,44.3251 c -20.1647,-9.0852 -31.88657,-27.8044 -46.47536,-43.2525 l -2.66904,27.7953 c -47.28802,-21.9682 -76.79877,-57.0987 -114.9018,-85.8672 l -0.23637,48.752 c 42.45277,24.9963 89.04879,43.4727 126.84109,75.803 l 5.77292,-26.9299 c 14.83868,9.5053 29.26651,19.5611 41.85939,32.0767 l 3.81661,-34.3598 z"
       id="path4032"
       inkscape:connector-curvature="0"
       sodipodi:nodetypes="cccccccccccc" />
    <path
       style="fill:#ffffff;fill-rule:evenodd;stroke:none;stroke-width:1px;stroke-linecap:butt;stroke-linejoin:miter;stroke-opacity:1"
       d="m 297.48061,2585.2233 c 10.80907,28.6703 23.83712,40.1434 43.31448,1.6345 15.88805,9.3062 15.78078,38.1623 67.83212,3.269 -29.87463,44.0445 -17.34353,47.6109 0,46.5835 -25.19619,57.0601 -3.70944,48.2148 5.72078,56.3906 -30.87927,34.4658 -26.83314,50.6373 -12.25882,61.2941 -10.41151,20.8792 -17.68526,41.1308 4.08627,55.5733 -17.02673,5.6974 -41.13559,3.1323 -33.50743,37.5937 -27.03627,-21.8029 -45.90514,-15.8367 -62.11133,-0.8173 -13.98253,-19.9805 -25.33708,-45.217 -64.5631,-14.7106 21.72388,-33.8017 13.12891,-50.7597 -4.08627,-62.9286 32.34197,-32.7226 7.09452,-44.1159 -17.9796,-55.5733 45.33089,-3.9346 32.4477,-40.2104 20.43136,-76.0046 21.2249,7.1893 42.525,14.905 53.12154,-52.3043 z"
       id="path4489"
       inkscape:connector-curvature="0"
       sodipodi:nodetypes="cccccccccccccc" />
  </g>
  <g
     inkscape:groupmode="layer"
     id="layer1"
     inkscape:label="txt">
    <text
       xml:space="preserve"
       style="font-style:normal;font-variant:normal;font-weight:normal;font-stretch:normal;font-size:16.91906166px;line-height:125%;font-family:Lavi;-inkscape-font-specification:Lavi;text-align:center;letter-spacing:0px;word-spacing:0px;text-anchor:middle;fill:#000000;fill-opacity:1;stroke:none"
       x="473.69452"
       y="261.18845"
       id="text4246"
       sodipodi:linespacing="125%"><tspan
         sodipodi:role="line"
         style="font-size:63.44648361px"
         x="473.69452"
         y="261.18845"
         id="tspan4252">Được rồi.</tspan></text>
    <text
       xml:space="preserve"
       style="font-style:normal;font-variant:normal;font-weight:normal;font-stretch:normal;font-size:12px;line-height:125%;font-family:Lavi;-inkscape-font-specification:Lavi;text-align:center;letter-spacing:0px;word-spacing:0px;text-anchor:middle;fill:#000000;fill-opacity:1;stroke:none"
       x="773.52966"
       y="352.78668"
       id="text4246-4"
       sodipodi:linespacing="125%"><tspan
         sodipodi:role="line"
         style="font-size:45px"
         x="781.43982"
         y="352.78668"
         id="tspan3537">Điều này thật </tspan><tspan
         sodipodi:role="line"
         style="font-size:45px"
         x="773.52966"
         y="413.69095"
         id="tspan3392">sự khó...</tspan></text>
    <text
       xml:space="preserve"
       style="font-style:normal;font-variant:normal;font-weight:normal;font-stretch:normal;font-size:12px;line-height:125%;font-family:Lavi;-inkscape-font-specification:Lavi;text-align:center;letter-spacing:0px;word-spacing:0px;text-anchor:middle;fill:#000000;fill-opacity:1;stroke:none"
       x="1200.1364"
       y="433.05008"
       id="text4246-4-9"
       sodipodi:linespacing="125%"><tspan
         sodipodi:role="line"
         style="font-size:45px"
         x="1200.1364"
         y="433.05008"
         id="tspan4162-1">... Tớ bỏ cuộc</tspan></text>
    <text
       xml:space="preserve"
       style="font-style:normal;font-variant:normal;font-weight:normal;font-stretch:normal;font-size:12px;line-height:125%;font-family:Lavi;-inkscape-font-specification:Lavi;text-align:center;letter-spacing:0px;word-spacing:0px;text-anchor:middle;fill:#000000;fill-opacity:1;stroke:none"
       x="771.69177"
       y="1211.0106"
       id="text4246-4-9-8"
       sodipodi:linespacing="125%"><tspan
         sodipodi:role="line"
         style="font-size:45px"
         x="771.69177"
         y="1211.0106"
         id="tspan3541">Hạt tiêu này sẽ không</tspan><tspan
         sodipodi:role="line"
         style="font-size:45px"
         x="771.69177"
         y="1271.9149"
         id="tspan3394">bao giờ bỏ cuộc !</tspan></text>
    <text
       xml:space="preserve"
       style="font-style:normal;font-variant:normal;font-weight:normal;font-stretch:normal;font-size:14.78443336px;line-height:125%;font-family:Lavi;-inkscape-font-specification:Lavi;text-align:center;letter-spacing:0px;word-spacing:0px;text-anchor:middle;fill:#000000;fill-opacity:1;stroke:none"
       x="767.7915"
       y="1158.7135"
       id="text4246-5"
       sodipodi:linespacing="125%"><tspan
         sodipodi:role="line"
         style="font-size:55.44162369px;stroke:#000000;stroke-width:2.18458223;stroke-miterlimit:4;stroke-dasharray:none;stroke-opacity:1"
         x="767.7915"
         y="1158.7135"
         id="tspan4252-1">Không !</tspan></text>
    <text
       xml:space="preserve"
       style="color:#000000;font-style:normal;font-variant:normal;font-weight:normal;font-stretch:normal;font-size:160.11950684px;line-height:125%;font-family:Arial;-inkscape-font-specification:Arial;letter-spacing:0.02734961px;word-spacing:0px;display:inline;overflow:visible;visibility:visible;opacity:0.7;fill:url(#linearGradient4238);fill-opacity:1;fill-rule:nonzero;stroke:#854611;stroke-width:0.07121496;stroke-linecap:butt;stroke-linejoin:miter;stroke-miterlimit:4;stroke-dasharray:none;stroke-dashoffset:0;stroke-opacity:1;marker:none;filter:url(#filter5561-7);enable-background:accumulate"
       x="1705.2566"
       y="1742.2045"
       id="text4251"
       sodipodi:linespacing="125%"
       transform="matrix(1.0496631,-0.00680912,-0.72183224,1.8831671,447.49009,-1337.8832)"><tspan
         sodipodi:role="line"
         id="tspan4253"
         x="1705.2566"
         y="1742.2045"
         style="font-style:normal;font-variant:normal;font-weight:normal;font-stretch:normal;font-family:Lavi;-inkscape-font-specification:Lavi;fill:url(#linearGradient4238);fill-opacity:1;stroke:#854611;stroke-width:0.07121496;stroke-miterlimit:4;stroke-dasharray:none;stroke-opacity:1"><tspan
           id="tspan4365"
           style="font-size:45.57711792px;fill:url(#linearGradient4238);fill-opacity:1;stroke:#854611;stroke-width:0.07121496;stroke-miterlimit:4;stroke-dasharray:none;stroke-opacity:1">Òoooooo, Óoooooo, Oooooo ! </tspan><tspan
           id="tspan4311"
           style="font-size:55.8440094px;fill:url(#linearGradient4238);fill-opacity:1;stroke:#854611;stroke-width:0.07121496;stroke-miterlimit:4;stroke-dasharray:none;stroke-opacity:1">! </tspan><tspan
           id="tspan4369"
           style="font-size:72.51364136px;fill:url(#linearGradient4238);fill-opacity:1;stroke:#854611;stroke-width:0.07121496;stroke-miterlimit:4;stroke-dasharray:none;stroke-opacity:1">!</tspan></tspan></text>
    <text
       xml:space="preserve"
       style="font-style:normal;font-variant:normal;font-weight:normal;font-stretch:normal;font-size:12px;line-height:125%;font-family:Lavi;-inkscape-font-specification:Lavi;text-align:center;letter-spacing:0px;word-spacing:0px;text-anchor:middle;fill:#000000;fill-opacity:1;stroke:none"
       x="310.95746"
       y="1886.489"
       id="text4246-4-9-8-0"
       sodipodi:linespacing="125%"><tspan
         sodipodi:role="line"
         style="font-size:45px"
         x="310.95746"
         y="1886.489"
         id="tspan4205-3">Ngày hôm sau...</tspan></text>
    <text
       xml:space="preserve"
       style="font-style:normal;font-variant:normal;font-weight:normal;font-stretch:normal;font-size:9.40283489px;line-height:125%;font-family:Lavi;-inkscape-font-specification:Lavi;text-align:center;letter-spacing:0px;word-spacing:0px;text-anchor:middle;fill:#000000;fill-opacity:1;stroke:none"
       x="-376.50845"
       y="2795.0046"
       id="text4246-4-9-8-0-3"
       sodipodi:linespacing="125%"
       transform="matrix(0.9106769,-0.80340828,0.24287987,0.88381324,0,0)"><tspan
         sodipodi:role="line"
         style="font-size:141.04251099px"
         x="-376.50845"
         y="2795.0046"
         id="tspan4205-3-3"><tspan
   style="font-size:121.45326996px"
   id="tspan4438">!</tspan>!</tspan></text>
  </g>
</svg>
