<?xml version="1.0" encoding="UTF-8" standalone="no"?>
<!-- Created with Inkscape (http://www.inkscape.org/) -->

<svg
   xmlns:dc="http://purl.org/dc/elements/1.1/"
   xmlns:cc="http://creativecommons.org/ns#"
   xmlns:rdf="http://www.w3.org/1999/02/22-rdf-syntax-ns#"
   xmlns:svg="http://www.w3.org/2000/svg"
   xmlns="http://www.w3.org/2000/svg"
   xmlns:xlink="http://www.w3.org/1999/xlink"
   xmlns:sodipodi="http://sodipodi.sourceforge.net/DTD/sodipodi-0.dtd"
   xmlns:inkscape="http://www.inkscape.org/namespaces/inkscape"
   id="svg2"
   version="1.1"
   inkscape:version="0.91 r"
   width="2481"
   height="3503"
   sodipodi:docname="Pepper-and-Carrot_by-David-Revoy_E14P03.svg">
  <metadata
     id="metadata8">
    <rdf:RDF>
      <cc:Work
         rdf:about="">
        <dc:format>image/svg+xml</dc:format>
        <dc:type
           rdf:resource="http://purl.org/dc/dcmitype/StillImage" />
        <dc:title />
      </cc:Work>
    </rdf:RDF>
  </metadata>
  <defs
     id="defs6" />
  <sodipodi:namedview
     pagecolor="#ffffff"
     bordercolor="#666666"
     borderopacity="1"
     objecttolerance="10"
     gridtolerance="10"
     guidetolerance="10"
     inkscape:pageopacity="0"
     inkscape:pageshadow="2"
     inkscape:window-width="1366"
     inkscape:window-height="711"
     id="namedview4"
     showgrid="false"
     inkscape:zoom="0.14222444"
     inkscape:cx="3972.1394"
     inkscape:cy="446.98063"
     inkscape:window-x="0"
     inkscape:window-y="30"
     inkscape:window-maximized="1"
     inkscape:current-layer="layer1" />
  <g
     inkscape:groupmode="layer"
     id="layer2"
     inkscape:label="artwork"
     sodipodi:insensitive="true">
    <image
       sodipodi:absref="/home/nightmare/Projects/p_c/peppercarrot_ep14_translation/uk/../gfx_Pepper-and-Carrot_by-David-Revoy_E14P03.png"
       xlink:href="../gfx_Pepper-and-Carrot_by-David-Revoy_E14P03.png"
       y="0"
       x="0"
       id="image10"
       height="3503"
       width="2481" />
  </g>
  <g
     inkscape:groupmode="layer"
     id="layer3"
     inkscape:label="speechbubbles"
     style="display:inline">
    <path
       style="color:#000000;display:inline;overflow:visible;visibility:visible;fill:#ffffff;fill-opacity:1;fill-rule:nonzero;stroke:none;stroke-width:1px;marker:none;enable-background:accumulate"
       d="m 1219.6585,368.68313 c 31.3108,-52.86104 92.7396,-79.64134 237.3967,-69.57074 92.7592,6.45761 146.0006,26.28739 187.8963,56.3661 19.7888,14.20732 37.5078,88.43237 16.4227,145.10287 -21.0852,56.67048 -86.9857,113.00362 -228.2701,97.47559 C 1291.8198,582.5288 1291.7568,580.39764 1271.081,566.944 1231.7993,541.38368 1188.3477,421.54423 1219.6585,368.68313 Z"
       id="path4530"
       inkscape:connector-curvature="0"
       sodipodi:nodetypes="zsssssz" />
    <path
       style="color:#000000;display:inline;overflow:visible;visibility:visible;fill:#ffffff;fill-opacity:1;fill-rule:nonzero;stroke:none;stroke-width:1px;marker:none;enable-background:accumulate"
       d="m 1137.6398,170.80031 c -5.2171,18.04469 -34.6427,19.55781 -45.4751,15.88991 21.8355,20.18631 21.0743,32.72839 -8.5723,34.67578 49.7178,36.381 9.0891,30.8757 1.0754,40.10089 39.0377,12.53769 21.5718,28.14117 14.6217,43.67415 44.87,0.53354 30.1861,25.43239 32.0773,45.26274 3.8039,-9.30528 21.8751,-37.63467 22.9624,-6.0918 29.6789,-30.0936 65.4263,-49.53257 68.2648,3.13136 11.9581,-26.49378 23.8803,-37.69113 22.9624,-6.0918 29.6284,-41.09892 56.2536,-26.30524 83.0367,-14.68913 7.0344,-12.40463 7.8541,-31.46172 30.6121,-26.9958 -3.1909,-12.29521 4.4931,-20.74689 21.8463,-25.76585 -23.0596,-7.42718 -27.3094,-15.08815 15.5071,-23.33253 -32.5809,-0.79746 -62.9628,-2.43129 -24.7383,-30.54704 -11.9921,-0.68032 -40.4445,22.78023 -27.1789,-45.87759 -20.621,21.97976 -42.6218,34.11104 -70.2128,-11.93096 -13.0574,23.00167 -35.7052,34.38382 -45.5582,5.6529 -3.5413,12.2485 -18.2256,16.85495 -30.6915,17.41359 -4.8206,-4.86535 -9.7925,-11.4737 -14.9808,-20.13172 -8.48,18.17954 -21.1651,30.4572 -45.5583,5.6529 z"
       id="path3549-3-7"
       inkscape:connector-curvature="0"
       sodipodi:nodetypes="cccccccccccccccccccc" />
    <path
       style="fill:#ffffff;fill-rule:evenodd;stroke:none;stroke-width:1px;stroke-linecap:butt;stroke-linejoin:miter;stroke-opacity:1"
       d="m 1497.7176,575.15777 c 39.3706,13.96771 -22.485,68.10223 -9.329,82.54185 9.0819,9.96796 46.6601,-7.96729 81.4034,37.57991 -40.7385,-30.89398 -73.2809,-5.93721 -92.7166,-17.39889 -36.9131,-21.76848 1.4853,-61.31653 3.4361,-70.97465 2.6091,-12.9174 17.2061,-31.74822 17.2061,-31.74822 z"
       id="path4186"
       inkscape:connector-curvature="0"
       sodipodi:nodetypes="cscssc" />
    <path
       style="fill:#ffffff;fill-rule:evenodd;stroke:none;stroke-width:1px;stroke-linecap:butt;stroke-linejoin:miter;stroke-opacity:1"
       d="m 753.09574,2223.3346 c -27.19224,-20.5338 -42.99463,-54.6914 -41.0873,-88.6975 0.0253,-5.2064 -0.52257,-11.8857 2.08026,-3.3284 2.42629,5.9709 9.87286,20.1787 12.9156,18.5545 -1.74181,-13.1135 -0.38049,-26.1845 1.42097,-39.1432 1.17884,-13.5542 10.39123,16.2867 15.87187,4.5111 -2.96352,-5.0072 -1.69992,-17.7446 3.6961,-6.6971 7.31381,9.2574 9.21416,0.1878 10.87078,-4.6823 7.37286,6.4364 9.15991,1.4279 12.09715,-3.2497 6.12014,4.1974 11.03004,3.8604 13.62468,-2.7509 9.42367,0.084 21.79648,6.9231 23.61264,-7.7597 4.54975,-6.8921 8.88908,8.6515 16.65288,4.1899 15.65105,-1.7329 31.1823,2.2501 46.79694,2.9293 13.11927,1.6936 23.2963,11.1458 33.56853,18.0046 -1.00207,-5.0952 -1.83167,-10.3441 4.99616,-5.2944 6.04122,-0.1228 -8.23274,-19.7418 2.30743,-8.345 13.40277,13.5474 22.03889,30.8562 33.1395,46.1992 9.95581,16.0715 22.97456,30.316 30.23541,48.0237 6.24153,13.7196 11.29652,28.4669 13.74293,43.1501 -2.3268,-5.4538 -11.71817,-17.2448 -10.72236,-4.0771 0.64554,5.8857 -2.61986,24.5969 -7.99617,12.9067 -5.36979,-3.1528 -8.02155,4.9547 -9.64713,-3.7971 -2.61641,-5.7165 -12.91236,-24.2439 -11.52146,-7.7934 -0.24092,6.6123 -0.39269,23.3456 -8.52773,22.6672 -0.71199,-6.4256 -4.35073,-6.7929 -7.47545,-2.8639 -3.47854,-4.1084 -6.67276,-6.4414 -10.54004,-3.8523 -8.49033,-6.1108 -19.90508,-6.7229 -28.50692,-0.5055 -9.56444,4.3212 -12.5154,18.0916 -24.75613,15.2535 -9.1367,1.5914 -13.94739,12.0362 -23.47555,6.8114 -8.58247,3.7439 -27.16495,-8.6096 -36.05026,-11.8301 -3.29947,-1.4401 -11.62277,-8.8856 -11.3785,-0.7559 -6.43774,2.3897 -16.91188,-8.2393 -17.26469,-5.4782 1.82413,10.9946 -7.96044,0.5298 -10.48773,-2.6166 -6.62097,-9.4733 -14.84659,-18.3884 -18.19241,-29.6829 z"
       id="path4197"
       inkscape:connector-curvature="0"
       sodipodi:nodetypes="cccccccccccccccccccccccccccccccccc" />
    <path
       style="fill:#ffffff;fill-rule:evenodd;stroke:none"
       d="m 645.36351,2291.6368 c -18.29306,16.6758 -8.03991,40.4282 -4.10443,59.7621 -0.80474,13.1934 17.9126,32.205 15.87021,38.3929 -7.3519,-5.021 -18.33104,-10.2434 -10.29403,1.9637 10.2226,34.6293 40.9145,62.3697 72.96377,85.7699 9.82416,5.1821 39.99161,21.31 37.87437,9.9705 18.39337,9.115 40.35029,12.9474 61.2672,16.4636 23.65488,-0.5813 46.69404,3.636 68.30122,11.2749 21.58401,4.956 45.25502,12.1665 67.50732,5.5364 -8.73978,-23.6447 28.8201,-1.5145 42.8575,-9.9337 12.55566,3.4095 44.10126,-2.7182 65.26926,-6.4759 21.181,-3.9131 42.2277,-9.4346 61.6877,-17.2258 13.5977,0.653 36.3928,-4.8696 50.9727,-18.0799 12.7176,3.1864 28.2325,-42.4916 23.9072,-52.3287 -3.4284,-16.4159 -1.9012,-34.5938 -6.0176,-47.5086 -2.0349,-15.3632 -19.1166,-23.5694 -25.1062,-38.1364 -14.1418,-25.8073 -39.8157,-46.4322 -70.5315,-60.0085 -25.5905,-11.3129 -52.6306,-22.5984 -81.6704,-26.4995 -18.94046,-0.4243 16.2331,16.5195 -7.2542,7.4659 -17.75885,-9.6088 2.3999,12.3376 -11.28294,3.2171 -7.68753,-7.1728 -23.40234,-13.1429 -17.52828,2.5199 -0.94348,6.2506 -7.48292,1.1142 -11.54053,6.6306 -20.3107,-9.9014 -43.12434,-2.493 -65.49341,-2.3644 -12.32946,-1.1692 -31.43576,5.929 -37.09711,-6.8387 0.111,15.471 -19.40839,0.5347 -21.47122,15.5941 -9.31796,-3.8903 -24.70864,-12.766 -26.34006,1.3989 -15.57838,12.067 -37.16607,-10.4869 -46.99163,-5.6144 5.50776,23.9138 -21.44914,3.5259 -31.3589,-2.0596 -2.1329,26.5232 -34.53276,-5.1043 -48.61567,-1.1337 15.00156,15.176 -5.02792,29.2605 -24.37126,19.1432 9.16681,24.2624 -9.59016,5.5887 -21.40908,9.1041 z"
       id="path4236"
       inkscape:connector-curvature="0"
       sodipodi:nodetypes="ccccccccccccccccccccccccccccccc" />
    <path
       style="color:#000000;display:inline;overflow:visible;visibility:visible;fill:#ffffff;fill-opacity:1;fill-rule:nonzero;stroke:none;stroke-width:1px;marker:none;enable-background:accumulate"
       d="m 1181.2565,2384.8843 c 71.2625,-32.4224 174.9357,-46.5343 183.7112,99.2131 42.8576,28.8431 84.7314,17.5004 117.4338,154.3432 -31.7764,-75.6266 -60.5224,-102.3764 -138.8525,-144.9574 -12.7089,-74.1482 -76.4453,-109.0649 -157.2325,-50.6415 -80.7874,58.4235 -47.4492,-14.6057 -47.4492,-14.6057 l 18.2401,-27.146 z"
       id="path5074"
       inkscape:connector-curvature="0"
       sodipodi:nodetypes="ccccsccc" />
  </g>
  <g
     inkscape:groupmode="layer"
     id="layer1"
     inkscape:label="txt"
     style="display:inline">
    <text
       xml:space="preserve"
       style="font-style:normal;font-variant:normal;font-weight:normal;font-stretch:normal;font-size:12px;line-height:125%;font-family:Lavi;-inkscape-font-specification:Lavi;text-align:center;letter-spacing:0px;word-spacing:0px;text-anchor:middle;fill:#000000;fill-opacity:1;stroke:none"
       x="1224.7714"
       y="265.99097"
       id="text4246"
       sodipodi:linespacing="125%"><tspan
         sodipodi:role="line"
         style="font-size:50px;-inkscape-font-specification:Neucha;font-family:Neucha;font-weight:normal;font-style:normal;font-stretch:normal;font-variant:normal"
         x="1224.7714"
         y="265.99097"
         id="tspan4252">Ха-ха!</tspan></text>
    <text
       xml:space="preserve"
       style="font-style:normal;font-variant:normal;font-weight:normal;font-stretch:normal;font-size:12px;line-height:125%;font-family:Lavi;-inkscape-font-specification:Lavi;text-align:center;letter-spacing:0px;word-spacing:0px;text-anchor:middle;fill:#000000;fill-opacity:1;stroke:none"
       x="1427.9531"
       y="364.8035"
       id="text4246-5"
       sodipodi:linespacing="125%"><tspan
         sodipodi:role="line"
         style="font-style:normal;font-variant:normal;font-weight:normal;font-stretch:normal;font-size:50px;font-family:Neucha;-inkscape-font-specification:Neucha"
         x="1427.9531"
         y="364.8035"
         id="tspan4166">Во-о-оу !</tspan><tspan
         sodipodi:role="line"
         style="font-style:normal;font-variant:normal;font-weight:normal;font-stretch:normal;font-size:50px;font-family:Neucha;-inkscape-font-specification:Neucha"
         x="1427.9531"
         y="427.3035"
         id="tspan3474">Здається, це буде</tspan><tspan
         sodipodi:role="line"
         style="font-style:normal;font-variant:normal;font-weight:normal;font-stretch:normal;font-size:50px;font-family:Neucha;-inkscape-font-specification:Neucha"
         x="1427.9531"
         y="489.8035"
         id="tspan3365">крапельку складніше,</tspan><tspan
         sodipodi:role="line"
         style="font-style:normal;font-variant:normal;font-weight:normal;font-stretch:normal;font-size:50px;font-family:Neucha;-inkscape-font-specification:Neucha"
         x="1427.9531"
         y="552.30347"
         id="tspan3367">ніж я думала!</tspan></text>
    <text
       xml:space="preserve"
       style="font-style:normal;font-variant:normal;font-weight:normal;font-stretch:normal;font-size:14.57404613px;line-height:125%;font-family:Lavi;-inkscape-font-specification:Lavi;text-align:center;letter-spacing:0px;word-spacing:0px;text-anchor:middle;fill:#000000;fill-opacity:1;stroke:none"
       x="845.07837"
       y="2194.4961"
       id="text4246-2"
       sodipodi:linespacing="125%"
       transform="scale(0.99940856,1.0005918)"><tspan
         sodipodi:role="line"
         style="font-style:normal;font-variant:normal;font-weight:normal;font-stretch:normal;font-size:54.65267181px;font-family:Neucha;-inkscape-font-specification:Neucha"
         x="845.07837"
         y="2194.4961"
         id="tspan4252-4">П-ф-ф-ф!</tspan></text>
    <text
       xml:space="preserve"
       style="font-style:normal;font-variant:normal;font-weight:normal;font-stretch:normal;font-size:12px;line-height:125%;font-family:Lavi;-inkscape-font-specification:Lavi;text-align:center;letter-spacing:0px;word-spacing:0px;text-anchor:middle;fill:#000000;fill-opacity:1;stroke:none"
       x="930.50623"
       y="2336.3047"
       id="text4246-2-2"
       sodipodi:linespacing="125%"><tspan
         sodipodi:role="line"
         style="font-style:normal;font-variant:normal;font-weight:normal;font-stretch:normal;font-size:50px;font-family:Neucha;-inkscape-font-specification:Neucha"
         x="930.50623"
         y="2336.3047"
         id="tspan3495">... а ще я думала,</tspan><tspan
         sodipodi:role="line"
         style="font-style:normal;font-variant:normal;font-weight:normal;font-stretch:normal;font-size:50px;font-family:Neucha;-inkscape-font-specification:Neucha"
         x="930.50623"
         y="2398.8047"
         id="tspan3374">що з Повітряним Драконом</tspan><tspan
         sodipodi:role="line"
         style="font-style:normal;font-variant:normal;font-weight:normal;font-stretch:normal;font-size:50px;font-family:Neucha;-inkscape-font-specification:Neucha"
         x="930.50623"
         y="2461.3047"
         id="tspan3376">буде легше!</tspan></text>
  </g>
</svg>
