<?xml version="1.0" encoding="UTF-8" standalone="no"?>
<!-- Created with Inkscape (http://www.inkscape.org/) -->

<svg
   xmlns:dc="http://purl.org/dc/elements/1.1/"
   xmlns:cc="http://creativecommons.org/ns#"
   xmlns:rdf="http://www.w3.org/1999/02/22-rdf-syntax-ns#"
   xmlns:svg="http://www.w3.org/2000/svg"
   xmlns="http://www.w3.org/2000/svg"
   xmlns:xlink="http://www.w3.org/1999/xlink"
   xmlns:sodipodi="http://sodipodi.sourceforge.net/DTD/sodipodi-0.dtd"
   xmlns:inkscape="http://www.inkscape.org/namespaces/inkscape"
   id="svg2"
   version="1.1"
   inkscape:version="0.91 r13725"
   width="2481"
   height="3503"
   sodipodi:docname="Pepper-and-Carrot_by-David-Revoy_E14P02.svg">
  <metadata
     id="metadata8">
    <rdf:RDF>
      <cc:Work
         rdf:about="">
        <dc:format>image/svg+xml</dc:format>
        <dc:type
           rdf:resource="http://purl.org/dc/dcmitype/StillImage" />
        <dc:title />
      </cc:Work>
    </rdf:RDF>
  </metadata>
  <defs
     id="defs6" />
  <sodipodi:namedview
     pagecolor="#ffffff"
     bordercolor="#666666"
     borderopacity="1"
     objecttolerance="10"
     gridtolerance="10"
     guidetolerance="10"
     inkscape:pageopacity="0"
     inkscape:pageshadow="2"
     inkscape:window-width="1366"
     inkscape:window-height="688"
     id="namedview4"
     showgrid="false"
     inkscape:zoom="0.46000002"
     inkscape:cx="1224.3499"
     inkscape:cy="605.62453"
     inkscape:window-x="0"
     inkscape:window-y="0"
     inkscape:window-maximized="1"
     inkscape:current-layer="layer3" />
  <g
     inkscape:groupmode="layer"
     id="layer2"
     inkscape:label="artwork"
     sodipodi:insensitive="true">
    <image
       sodipodi:absref="/home/juanjo/Imágenes/Comics-Revoy/peppercarrot_ep14_translation-master/es/../gfx_Pepper-and-Carrot_by-David-Revoy_E14P02.png"
       xlink:href="../gfx_Pepper-and-Carrot_by-David-Revoy_E14P02.png"
       y="0"
       x="0"
       id="image10"
       height="3503"
       width="2481" />
  </g>
  <g
     inkscape:groupmode="layer"
     id="layer3"
     inkscape:label="speechbubbles">
    <path
       style="fill:#ffffff;fill-rule:evenodd;stroke:none;stroke-width:1px;stroke-linecap:butt;stroke-linejoin:miter;stroke-opacity:1"
       d="m 118.35292,125.01045 c 31.86406,12.84293 79.64581,22.40868 3.28758,57.53267 28.97405,2.26732 64.68935,3.03659 36.16339,18.08169 10.99288,15.34205 -26.05931,30.68409 -52.6013,46.02614 27.76283,-5.37034 56.3089,-14.19368 19.32464,19.28423 19.86529,-0.95142 17.0754,7.80651 -9.46189,26.7419 62.64898,-35.32444 84.47971,-44.16601 87.1209,-16.4379 7.90607,-14.81655 23.28018,-18.68176 13.15032,29.58823 40.95762,-84.74422 5.91155,85.59582 -4.93137,251.49995 20.11885,-76.23729 56.0381,-388.11014 60.82025,-230.13068 32.07143,-113.64788 77.61438,-18.86794 87.1209,-6.57516 -7.97834,-88.47609 50.47058,-51.77102 65.75162,-18.0817 -3.93938,-21.58677 14.80045,-65.06529 70.73311,-11.9905 -13.33627,-19.50565 -4.26002,-39.66182 45.97602,8.70292 -15.23481,-32.25639 12.98699,-41.3421 100.91444,-10.62404 -0.67826,-16.00848 -9.25381,-32.85826 83.1901,-4.17007 -1.73428,-14.70024 -20.58278,-34.9626 105.20259,-8.21895 0.82056,-25.65455 21.08245,-27.19316 56.38344,-15.2327 -6.03065,-22.04605 32.52211,-11.95183 81.38605,2.97228 -31.12168,-30.16714 11.31244,-26.77992 72.63569,-17.32781 -5.9547,-14.61437 -14.468,-29.62237 21.3693,-37.80719 -36.605,-34.91827 1.6605,-37.0807 13.1503,-50.9575 -25.779,2.42931 -45.6701,-10.0765 -15.9562,-28.34529 -52.0412,6.75374 -32.9312,-14.35273 -30.0699,-25.8998 l -83.83334,-18.081696 -82.18953,-8.218953 -98.62743,-8.218953 -92.05227,-1.64379 -93.69606,0 -82.18953,3.287581 -70.68299,-8.218953 -72.32678,8.218953 -101.91502,-1.643791 -49.31371,27.944439 z"
       id="path4323"
       inkscape:connector-curvature="0"
       sodipodi:nodetypes="ccccccccccccccccccccccccccccccccccc" />
    <path
       style="fill:#ffffff;stroke:none"
       d="m 782.67969,368.8389 c -1.73947,-29.37566 29.44774,-102.91478 181.57757,-97.38339 152.12994,5.53134 199.74414,37.8436 204.20224,90.05888 7.0524,82.60313 -72.983,104.67751 -187.90653,110.79585 C 862.07924,478.6177 780.84091,421.91606 782.67969,368.8389 Z"
       id="path3280"
       inkscape:connector-curvature="0"
       sodipodi:nodetypes="csssc" />
    <path
       style="color:#000000;display:inline;overflow:visible;visibility:visible;fill:#ffffff;fill-opacity:1;fill-rule:nonzero;stroke:none;stroke-width:1px;marker:none;enable-background:accumulate"
       d="m 818.55405,555.85967 c 39.18491,-37.68963 73.342,-77.76882 65.62626,-117.15486 -10.90688,-55.67559 -9.43261,-29.77014 -9.43261,-29.77014 l 41.81204,36.16737 c 4.42223,-1.37242 6.88006,49.17295 -98.00569,110.75763 z"
       id="path3072"
       inkscape:connector-curvature="0"
       sodipodi:nodetypes="csccc" />
    <path
       style="fill:#ffffff;fill-rule:evenodd;stroke:none;stroke-width:1px;stroke-linecap:butt;stroke-linejoin:miter;stroke-opacity:1"
       d="m 1298.9532,381.82875 c 11.1155,-27.31017 41.0483,-48.03122 73.6254,-61.86381 15.5033,-6.67815 33.2239,-11.57208 51.3572,-10.2848 18.0145,0.76913 35.6102,5.36141 53.8238,3.76632 22.1474,-0.52681 44.6836,-2.82538 66.5767,0.45906 19.4621,3.58373 39.5137,5.43978 59.5973,5.54742 14.1683,-2.27479 27.1334,3.78816 39.7865,7.41452 11.3594,3.91706 22.9619,8.0267 32.5031,14.08574 8.7903,8.50565 19.3156,15.90545 28.2085,24.3354 5.8188,4.60858 5.2597,10.97425 4.9917,16.86558 -0.7557,12.06416 -2.0356,24.3188 -6.7858,35.94161 -2.8426,7.37895 -13.3494,9.82091 -21.4227,13.21166 -19.1026,7.15787 -39.387,12.58591 -57.618,21.00919 -18.0617,4.31315 -37.2564,2.29568 -55.7795,1.64388 -15.5212,-1.28389 -31.1345,-3.07423 -46.789,-1.58119 -19.9245,1.09261 -39.7885,3.92166 -59.7844,3.5593 -25.0491,-2.48663 -49.0395,-8.60932 -73.3143,-13.52077 -21.7788,-4.32898 -41.6285,-12.46923 -60.6748,-21.17721 -10.1738,-4.94494 -20.9439,-10.69276 -24.5345,-19.8057 -2.9432,-6.27504 -3.6368,-12.99411 -3.7672,-19.6062 z"
       id="path4365"
       inkscape:connector-curvature="0" />
    <path
       style="fill:#ffffff;stroke:none"
       d="m 1600.5998,539.46175 c -28.0754,-14.3263 -28.0705,-24.10879 -27.1393,-35.26758 0.931,-11.15875 3.0258,-21.20884 -1.8373,-26.59493 -4.8629,-5.38607 -13.8837,-9.08681 -20.965,-10.93985 -7.0813,-1.85304 -2.5775,-10.15393 -3.484,-17.79341 -0.9066,-7.63954 -20.1711,-44.64576 -20.1711,-44.64576 0,0 -10.2917,29.72026 -10.4833,39.70135 -0.1918,9.98106 -0.313,13.62987 0.7147,17.62055 1.0279,3.99076 5.0156,13.43659 11.7527,17.22018 6.7371,3.78364 14.9313,4.06179 20.6767,5.77151 5.7455,1.70964 6.255,10.50318 7.37,19.09418 1.1149,8.59099 3.3294,14.64819 14.8496,23.66417 9.8749,7.72832 28.7163,12.16959 28.7163,12.16959 z"
       id="path3023"
       inkscape:connector-curvature="0"
       sodipodi:nodetypes="csssscssssssc" />
    <path
       style="fill:#ffffff;fill-rule:evenodd;stroke:none;stroke-width:1px;stroke-linecap:butt;stroke-linejoin:miter;stroke-opacity:1"
       d="m 568.8634,1318.3227 c 104.31326,44.7459 702.5032,155.1743 811.2553,71.8972 58.8149,31.0736 60.5988,42.1012 121.6331,4.8129 89.8869,43.503 111.1049,28.7465 133.2993,20.0459 48.5521,7.5979 70.9469,10.8128 141.1257,39.7648 -74.8014,-20.5225 -93.9086,-23.7561 -138.3472,-25.7747 -64.3635,22.373 -112.0813,-6.2147 -133.1658,-17.4012 -62.5836,39.1667 -64.7247,30.9426 -125.6546,-6.0558 -65.191,62.6405 -404.44384,23.8741 -807.88989,-63.3003 4.43886,-12.4294 -2.25591,-23.9888 -2.25591,-23.9888 z"
       id="path4385"
       inkscape:connector-curvature="0"
       sodipodi:nodetypes="cccccccccc" />
    <path
       style="color:#000000;display:inline;overflow:visible;visibility:visible;fill:#ffffff;fill-opacity:1;fill-rule:nonzero;stroke:none;stroke-width:1px;marker:none;enable-background:accumulate"
       d="m 184.63694,1291.4244 c 16.60013,-24.4048 51.51765,-44.927 97.31111,-53.2468 45.79344,-8.3199 130.51135,-6.1013 145.39429,-3.328 14.8828,2.7733 96.73862,12.757 114.48352,26.6234 17.74503,13.8664 41.78659,31.0607 46.93831,48.8096 5.1519,17.7489 0.57251,60.4574 -16.02766,69.8866 -16.60014,9.4292 -92.15932,29.9512 -136.23559,31.0606 -44.07623,1.1093 -146.53898,-7.7651 -175.73237,-13.8663 -29.19332,-6.1012 -60.10389,-13.8664 -69.26256,-33.2793 -9.15873,-19.413 -26.33127,-44.9271 -6.86905,-72.6598 z"
       id="path3533"
       inkscape:connector-curvature="0" />
    <path
       style="color:#000000;display:inline;overflow:visible;visibility:visible;fill:#ffffff;fill-opacity:1;fill-rule:nonzero;stroke:none;stroke-width:1px;marker:none;enable-background:accumulate"
       d="m 906.80336,1415.9898 c 1.15596,-33.5988 16.10892,-48.879 73.86487,-54.035 59.05187,-5.2715 282.81967,-0.8543 325.82607,13.4829 32.3213,10.7749 40.152,29.3632 36.444,51.2876 -3.4003,20.1057 -47.0591,42.0863 -119.7369,46.1473 -73.2022,4.0905 -201.4194,0.1265 -240.71574,-8.464 -39.29624,-8.5902 -73.30624,-21.5849 -75.6823,-48.4188 z"
       id="path3986"
       inkscape:connector-curvature="0"
       sodipodi:nodetypes="csssssc" />
    <path
       style="fill:#ffffff;fill-rule:evenodd;stroke:none;stroke-width:1px;stroke-linecap:butt;stroke-linejoin:miter;stroke-opacity:1"
       d="m 138.34095,2140.9069 c -65.917964,143.3288 417.39699,84.8962 458.13136,78.4896 33.26285,-3.9095 56.42597,-56.4084 12.91793,-95.9393 -22.95443,-23.0368 -407.05144,-58.7088 -471.04929,17.4497 z"
       id="path4430"
       inkscape:connector-curvature="0"
       sodipodi:nodetypes="cccc" />
    <path
       style="color:#000000;display:inline;overflow:visible;visibility:visible;fill:#ffffff;fill-opacity:1;fill-rule:nonzero;stroke:none;stroke-width:1px;marker:none;enable-background:accumulate"
       d="m 718.93726,2380.7728 c -24.58032,28.4561 -234.56485,61.6289 -309.19641,4.5484 -74.63154,-57.0805 -30.62781,-127.2422 11.52476,-149.9172 42.15246,-22.6753 166.69502,-48.4869 223.8877,-30.2145 57.1928,18.2724 101.90632,46.0945 105.50411,104.1591 1.4684,23.6985 -7.13973,42.9677 -31.72016,71.4242 z"
       id="path4040"
       inkscape:connector-curvature="0"
       sodipodi:nodetypes="zssssz" />
    <path
       style="fill:#ffffff;stroke:none"
       d="m 848.41506,2562.9314 c -135.30528,-57.9651 -140.63961,-84.7512 -171.13373,-155.0552 -18.47641,-42.5973 -3.2283,-40.031 -3.2283,-40.031 l -49.17497,-11.0642 14.01108,45.466 c 0,0 10.64982,114.0154 209.52592,160.6844 z"
       id="path3063"
       inkscape:connector-curvature="0"
       sodipodi:nodetypes="cscccc" />
    <path
       style="color:#000000;display:inline;overflow:visible;visibility:visible;fill:#ffffff;fill-opacity:1;fill-rule:nonzero;stroke:none;stroke-width:1px;marker:none;enable-background:accumulate"
       d="m 1697.7543,3209.0821 c 27.0731,-33.8378 84.5927,-62.5928 160.374,-74.7043 75.7813,-12.1113 216.3042,-10.2724 241.035,-6.6677 24.7307,3.6045 160.6518,16.1752 190.3348,35.0114 29.6832,18.836 69.8692,42.1635 78.7422,66.5255 8.8729,24.3621 2.0733,83.2268 -25.2782,96.4466 -27.3514,13.22 -152.2643,42.5581 -225.3321,44.7177 -73.0679,2.1596 -243.1394,-8.5882 -291.6622,-16.5693 -48.5227,-7.9809 -99.9238,-18.2282 -115.4719,-44.8236 -15.5483,-26.5956 -44.4987,-61.4759 -12.7416,-99.9363 z"
       id="path3533-6"
       inkscape:connector-curvature="0" />
    <path
       style="color:#000000;display:inline;overflow:visible;visibility:visible;fill:#ffffff;fill-opacity:1;fill-rule:nonzero;stroke:none;stroke-width:1px;marker:none;enable-background:accumulate"
       d="m 1781.7091,3172.6398 c -48.5523,63.8885 -73.2055,83.2375 -139.8381,44.2545 -66.6324,-38.9831 -56.4924,-73.3908 -56.4924,-73.3908 -11.0082,12.3078 51.196,99.6662 196.3305,29.1363 z"
       id="path5002"
       inkscape:connector-curvature="0"
       sodipodi:nodetypes="cscc" />
    <path
       style="color:#000000;display:inline;overflow:visible;visibility:visible;fill:#ffffff;fill-opacity:1;fill-rule:nonzero;stroke:none;stroke-width:1px;marker:none;enable-background:accumulate"
       d="m 595.85289,1409.954 c -6.86809,22.2136 -45.60512,24.0763 -59.86529,19.561 28.7452,24.85 27.74308,40.2897 -11.28482,42.687 65.45045,44.7862 11.96523,38.009 1.41564,49.3655 51.39071,15.4343 28.39798,34.6427 19.24864,53.7643 59.06856,0.6568 30.6249,12.831 15.05463,39.3748 16.69126,-11.7866 60.69681,-45.7392 57.40177,8.8459 31.81742,-30.3113 67.90109,-44.0496 89.86638,3.8548 15.74211,-32.6147 31.97435,-50.6979 60.3207,-3.2003 -7.74609,-51.1315 43.96255,-36.6815 79.22082,-22.3817 -8.37229,-13.6675 5.79767,-49.1497 40.29898,-33.2327 -23.43633,-22.3492 5.91492,-25.5401 28.75932,-31.7186 -30.35658,-9.1431 -35.9512,-18.574 20.41417,-28.7231 -42.89073,-0.9817 -82.88665,-2.993 -32.56647,-37.6044 -15.78684,-0.8375 -53.24276,28.0432 -35.77933,-56.4768 -27.14636,27.0578 -56.10907,41.9918 -92.43092,-14.6874 -17.18935,28.3158 -47.00388,42.3276 -59.97466,6.9589 -4.66197,15.0783 -23.99298,20.749 -40.40356,21.4367 -6.346,-5.9894 -12.89116,-14.1245 -19.72133,-24.7828 -11.16336,22.3796 -27.86253,37.4938 -59.97467,6.9589 z"
       id="path3549-3-7"
       inkscape:connector-curvature="0"
       sodipodi:nodetypes="cccccccccccccccccccc" />
    <path
       style="color:#000000;display:inline;overflow:visible;visibility:visible;fill:#ffffff;fill-opacity:1;fill-rule:nonzero;stroke:none;stroke-width:1px;marker:none;enable-background:accumulate"
       d="m 548.30505,1489.5343 c -32.71667,-14.168 -100.80088,-25.7605 -117.75539,-27.2872 -20.27048,14.0102 -50.61242,35.3064 -73.20544,50.1722 -5.31176,-1.4012 -91.51271,-47.8708 -99.56707,-45.7537 -8.05422,2.1172 -79.0692,29.9973 -84.37818,37.4927 18.70636,-20.5749 83.14331,-49.601 95.87634,-50.1894 8.58229,-0.7407 80.53436,35.2542 83.66571,38.0832 15.04972,-15.8838 71.20105,-48.2854 79.8175,-52.493 13.26097,0.788 64.22973,3.8642 121.88704,24.3755 57.65735,20.5113 -6.34051,25.5997 -6.34051,25.5997 z"
       id="path5901"
       inkscape:connector-curvature="0"
       sodipodi:nodetypes="ccccccccsc" />
  </g>
  <g
     inkscape:groupmode="layer"
     id="layer1"
     inkscape:label="txt">
    <text
       xml:space="preserve"
       style="font-style:normal;font-variant:normal;font-weight:normal;font-stretch:normal;font-size:12px;line-height:125%;font-family:Lavi;-inkscape-font-specification:Lavi;text-align:center;letter-spacing:0px;word-spacing:0px;text-anchor:middle;fill:#000000;fill-opacity:1;stroke:none"
       x="581.71368"
       y="166.83237"
       id="text4246"
       sodipodi:linespacing="125%"><tspan
         sodipodi:role="line"
         style="font-style:normal;font-variant:normal;font-weight:normal;font-stretch:normal;font-size:45px;font-family:Lavi;-inkscape-font-specification:Lavi"
         x="581.71368"
         y="166.83237"
         id="tspan4252">¡Cayena! ¡Tomillo! ¿Podéis ir a buscarme</tspan><tspan
         sodipodi:role="line"
         style="font-style:normal;font-variant:normal;font-weight:normal;font-stretch:normal;font-size:45px;font-family:Lavi;-inkscape-font-specification:Lavi"
         x="581.71368"
         y="223.08237"
         id="tspan4144">algún diente de dragón?</tspan></text>
    <text
       xml:space="preserve"
       style="font-style:normal;font-variant:normal;font-weight:normal;font-stretch:normal;font-size:12px;line-height:125%;font-family:Lavi;-inkscape-font-specification:Lavi;text-align:center;letter-spacing:0px;word-spacing:0px;text-anchor:middle;fill:#000000;fill-opacity:1;stroke:none"
       x="977.2323"
       y="359.99969"
       id="text4246-7"
       sodipodi:linespacing="125%"><tspan
         sodipodi:role="line"
         style="font-size:45px"
         x="977.2323"
         y="359.99969"
         id="tspan4144-1">¡¿Con <tspan
   style="font-style:italic;font-variant:normal;font-weight:normal;font-stretch:normal;font-family:Lavi;-inkscape-font-specification:'Lavi Italic'"
   id="tspan4178">este</tspan> frío?!</tspan><tspan
         sodipodi:role="line"
         style="font-size:45px"
         x="977.2323"
         y="416.24969"
         id="tspan4169">¡No, gracias!</tspan></text>
    <text
       xml:space="preserve"
       style="font-style:normal;font-variant:normal;font-weight:normal;font-stretch:normal;font-size:12px;line-height:125%;font-family:Lavi;-inkscape-font-specification:Lavi;text-align:center;letter-spacing:0px;word-spacing:0px;text-anchor:middle;fill:#000000;fill-opacity:1;stroke:none"
       x="1507.3965"
       y="361.57327"
       id="text4246-7-6"
       sodipodi:linespacing="125%"><tspan
         sodipodi:role="line"
         style="font-size:45px"
         x="1507.3965"
         y="361.57327"
         id="tspan4169-5">Sip...</tspan><tspan
         sodipodi:role="line"
         style="font-size:45px"
         x="1507.3965"
         y="417.82327"
         id="tspan4196">Lo mismo digo...</tspan></text>
    <text
       xml:space="preserve"
       style="font-style:normal;font-variant:normal;font-weight:normal;font-stretch:normal;font-size:12px;line-height:125%;font-family:Lavi;-inkscape-font-specification:Lavi;text-align:center;letter-spacing:0px;word-spacing:0px;text-anchor:middle;fill:#000000;fill-opacity:1;stroke:none"
       x="382.04089"
       y="1307.184"
       id="text4246-7-6-4"
       sodipodi:linespacing="125%"><tspan
         sodipodi:role="line"
         style="font-size:45px"
         x="382.04089"
         y="1307.184"
         id="tspan4196-8">No hay problema,</tspan><tspan
         sodipodi:role="line"
         style="font-size:45px"
         x="382.04089"
         y="1363.434"
         id="tspan4221">¡yo me encargo!</tspan></text>
    <text
       xml:space="preserve"
       style="font-style:normal;font-variant:normal;font-weight:normal;font-stretch:normal;font-size:9.86764526px;line-height:125%;font-family:Lavi;-inkscape-font-specification:Lavi;text-align:center;letter-spacing:0px;word-spacing:0px;text-anchor:middle;fill:#000000;fill-opacity:1;stroke:none"
       x="1122.0754"
       y="1425.3585"
       id="text4246-7-6-4-6"
       sodipodi:linespacing="125%"><tspan
         sodipodi:role="line"
         style="font-size:37.00366974px"
         x="1122.0754"
         y="1425.3585"
         id="tspan4221-0">¡Vuelvo en un periquete!</tspan></text>
    <text
       xml:space="preserve"
       style="font-style:normal;font-variant:normal;font-weight:normal;font-stretch:normal;font-size:12px;line-height:125%;font-family:Lavi;-inkscape-font-specification:Lavi;text-align:center;letter-spacing:0px;word-spacing:0px;text-anchor:middle;fill:#000000;fill-opacity:1;stroke:none"
       x="376.62363"
       y="2182.0615"
       id="text4246-7-6-4-6-4"
       sodipodi:linespacing="125%"><tspan
         sodipodi:role="line"
         style="font-size:45px"
         x="376.62363"
         y="2182.0615"
         id="tspan4221-0-2">¡&quot;El frío&quot;, &quot;el frío&quot;!</tspan></text>
    <text
       xml:space="preserve"
       style="font-style:normal;font-variant:normal;font-weight:normal;font-stretch:normal;font-size:12px;line-height:125%;font-family:Lavi;-inkscape-font-specification:Lavi;text-align:center;letter-spacing:0px;word-spacing:0px;text-anchor:middle;fill:#000000;fill-opacity:1;stroke:none"
       x="552.49438"
       y="2301.5308"
       id="text4246-7-6-4-6-4-5"
       sodipodi:linespacing="125%"><tspan
         sodipodi:role="line"
         style="font-size:45px"
         x="552.49438"
         y="2301.5308"
         id="tspan4282">¡Vaya panda</tspan><tspan
         sodipodi:role="line"
         style="font-size:45px"
         x="552.49438"
         y="2357.7808"
         id="tspan4284">de cobardicas!</tspan></text>
    <text
       xml:space="preserve"
       style="font-style:normal;font-variant:normal;font-weight:normal;font-stretch:normal;font-size:12px;line-height:125%;font-family:Lavi;-inkscape-font-specification:Lavi;text-align:center;letter-spacing:0px;word-spacing:0px;text-anchor:middle;fill:#000000;fill-opacity:1;stroke:none"
       x="2024.5713"
       y="3193.8694"
       id="text4246-7-6-4-6-4-5-2"
       sodipodi:linespacing="125%"><tspan
         sodipodi:role="line"
         style="font-size:45px"
         x="2024.5713"
         y="3193.8694"
         id="tspan4315">¡Unas buenas tenazas,</tspan><tspan
         sodipodi:role="line"
         style="font-size:45px"
         x="2024.5713"
         y="3250.1194"
         id="tspan4319">alguna protección y ya son</tspan><tspan
         sodipodi:role="line"
         style="font-size:45px"
         x="2024.5713"
         y="3306.3694"
         id="tspan4321">nuestros los dientes de dragón!</tspan></text>
    <text
       xml:space="preserve"
       style="font-style:normal;font-variant:normal;font-weight:normal;font-stretch:normal;font-size:16.20829773px;line-height:125%;font-family:Lavi;-inkscape-font-specification:Lavi;text-align:center;letter-spacing:0px;word-spacing:0px;text-anchor:middle;fill:#000000;fill-opacity:1;stroke:#000000;stroke-width:1.29999995;stroke-miterlimit:4;stroke-dasharray:none;stroke-opacity:1"
       x="716.11877"
       y="1488.395"
       id="text4246-7-6-4-0"
       sodipodi:linespacing="125%"><tspan
         sodipodi:role="line"
         style="font-size:60.78111267px;stroke:#000000;stroke-width:1.29999995;stroke-miterlimit:4;stroke-dasharray:none;stroke-opacity:1"
         x="716.11877"
         y="1488.395"
         id="tspan4208">Pepper,</tspan><tspan
         sodipodi:role="line"
         style="font-size:60.78111267px;stroke:#000000;stroke-width:1.29999995;stroke-miterlimit:4;stroke-dasharray:none;stroke-opacity:1"
         x="716.11877"
         y="1564.3715"
         id="tspan4212">¡espera!</tspan></text>
  </g>
</svg>
