<?xml version="1.0" encoding="UTF-8" standalone="no"?>
<!-- Created with Inkscape (http://www.inkscape.org/) -->

<svg
   xmlns:dc="http://purl.org/dc/elements/1.1/"
   xmlns:cc="http://creativecommons.org/ns#"
   xmlns:rdf="http://www.w3.org/1999/02/22-rdf-syntax-ns#"
   xmlns:svg="http://www.w3.org/2000/svg"
   xmlns="http://www.w3.org/2000/svg"
   xmlns:xlink="http://www.w3.org/1999/xlink"
   xmlns:sodipodi="http://sodipodi.sourceforge.net/DTD/sodipodi-0.dtd"
   xmlns:inkscape="http://www.inkscape.org/namespaces/inkscape"
   id="svg2"
   version="1.1"
   inkscape:version="0.91 r13725"
   width="2481"
   height="3503"
   sodipodi:docname="Pepper-and-Carrot_by-David-Revoy_E14P03.svg">
  <metadata
     id="metadata8">
    <rdf:RDF>
      <cc:Work
         rdf:about="">
        <dc:format>image/svg+xml</dc:format>
        <dc:type
           rdf:resource="http://purl.org/dc/dcmitype/StillImage" />
        <dc:title />
      </cc:Work>
    </rdf:RDF>
  </metadata>
  <defs
     id="defs6" />
  <sodipodi:namedview
     pagecolor="#ffffff"
     bordercolor="#666666"
     borderopacity="1"
     objecttolerance="10"
     gridtolerance="10"
     guidetolerance="10"
     inkscape:pageopacity="0"
     inkscape:pageshadow="2"
     inkscape:window-width="1366"
     inkscape:window-height="688"
     id="namedview4"
     showgrid="false"
     inkscape:zoom="0.3478261"
     inkscape:cx="1194.2889"
     inkscape:cy="537.85133"
     inkscape:window-x="0"
     inkscape:window-y="0"
     inkscape:window-maximized="1"
     inkscape:current-layer="layer1" />
  <g
     inkscape:groupmode="layer"
     id="layer2"
     inkscape:label="artwork"
     sodipodi:insensitive="true">
    <image
       sodipodi:absref="/home/juanjo/Imágenes/Comics-Revoy/peppercarrot_ep14_translation-master/es/../gfx_Pepper-and-Carrot_by-David-Revoy_E14P03.png"
       xlink:href="../gfx_Pepper-and-Carrot_by-David-Revoy_E14P03.png"
       width="2481"
       height="3503"
       id="image10"
       x="0"
       y="0" />
  </g>
  <g
     inkscape:groupmode="layer"
     id="layer3"
     inkscape:label="speechbubbles"
     style="display:inline">
    <path
       style="color:#000000;display:inline;overflow:visible;visibility:visible;fill:#ffffff;fill-opacity:1;fill-rule:nonzero;stroke:none;stroke-width:1px;marker:none;enable-background:accumulate"
       d="m 1185.7261,356.51949 c 34.885,-62.04113 103.326,-93.47222 264.4961,-81.65272 103.3479,7.57907 162.667,30.85258 209.3451,66.1549 22.0478,16.67463 41.7895,103.78993 18.2974,170.30208 -23.4921,66.51213 -96.9153,132.62834 -254.3277,114.40365 -157.4122,-18.22484 -157.4824,-20.72611 -180.5184,-36.51617 -43.7659,-29.99924 -92.1776,-170.65055 -57.2925,-232.69174 z"
       id="path4530"
       inkscape:connector-curvature="0"
       sodipodi:nodetypes="zsssssz" />
    <path
       style="color:#000000;display:inline;overflow:visible;visibility:visible;fill:#ffffff;fill-opacity:1;fill-rule:nonzero;stroke:none;stroke-width:1px;marker:none;enable-background:accumulate"
       d="m 1137.6398,170.80031 c -5.2171,18.04469 -34.6427,19.55781 -45.4751,15.88991 21.8355,20.18631 21.0743,32.72839 -8.5723,34.67578 49.7178,36.381 9.0891,30.8757 1.0754,40.10089 39.0377,12.53769 21.5718,28.14117 14.6217,43.67415 44.87,0.53354 30.1861,25.43239 32.0773,45.26274 3.8039,-9.30528 21.8751,-37.63467 22.9624,-6.0918 29.6789,-30.0936 65.4263,-49.53257 68.2648,3.13136 11.9581,-26.49378 23.8803,-37.69113 22.9624,-6.0918 29.6284,-41.09892 56.2536,-26.30524 83.0367,-14.68913 7.0344,-12.40463 7.8541,-31.46172 30.6121,-26.9958 -3.1909,-12.29521 4.4931,-20.74689 21.8463,-25.76585 -23.0596,-7.42718 -27.3094,-15.08815 15.5071,-23.33253 -32.5809,-0.79746 -62.9628,-2.43129 -24.7383,-30.54704 -11.9921,-0.68032 -40.4445,22.78023 -27.1789,-45.87759 -20.621,21.97976 -42.6218,34.11104 -70.2128,-11.93096 -13.0574,23.00167 -35.7052,34.38382 -45.5582,5.6529 -3.5413,12.2485 -18.2256,16.85495 -30.6915,17.41359 -4.8206,-4.86535 -9.7925,-11.4737 -14.9808,-20.13172 -8.48,18.17954 -21.1651,30.4572 -45.5583,5.6529 z"
       id="path3549-3-7"
       inkscape:connector-curvature="0"
       sodipodi:nodetypes="cccccccccccccccccccc" />
    <path
       style="fill:#ffffff;fill-rule:evenodd;stroke:none;stroke-width:1px;stroke-linecap:butt;stroke-linejoin:miter;stroke-opacity:1"
       d="m 1497.7176,575.15777 c 39.3706,13.96771 -22.485,68.10223 -9.329,82.54185 9.0819,9.96796 46.6601,-7.96729 81.4034,37.57991 -40.7385,-30.89398 -73.2809,-5.93721 -92.7166,-17.39889 -36.9131,-21.76848 1.4853,-61.31653 3.4361,-70.97465 2.6091,-12.9174 17.2061,-31.74822 17.2061,-31.74822 z"
       id="path4186"
       inkscape:connector-curvature="0"
       sodipodi:nodetypes="cscssc" />
    <path
       style="fill:#ffffff;fill-rule:evenodd;stroke:none;stroke-width:1px;stroke-linecap:butt;stroke-linejoin:miter;stroke-opacity:1"
       d="m 751.16918,2225.6341 c -27.19224,-20.5338 -42.99463,-54.6914 -41.0873,-88.6975 0.0253,-5.2064 -0.52257,-11.8857 2.08026,-3.3284 2.42629,5.9709 9.87286,20.1787 12.9156,18.5545 -1.74181,-13.1135 -0.38049,-26.1845 1.42097,-39.1432 1.17884,-13.5542 10.39123,16.2867 15.87187,4.5111 -2.96352,-5.0072 -1.69992,-17.7446 3.6961,-6.6971 7.31381,9.2574 9.21416,0.1878 10.87078,-4.6823 7.37286,6.4364 9.15991,1.4279 12.09715,-3.2497 6.12014,4.1974 11.03004,3.8604 13.62468,-2.7509 9.42367,0.084 21.79648,6.9231 23.61264,-7.7597 4.54975,-6.8921 8.88908,8.6515 16.65288,4.1899 15.65105,-1.7329 31.1823,2.2501 46.79694,2.9293 13.11927,1.6936 23.2963,11.1458 33.56853,18.0046 -1.00207,-5.0952 -1.83167,-10.3441 4.99616,-5.2944 6.04122,-0.1228 -8.23274,-19.7418 2.30743,-8.345 13.40277,13.5474 22.03889,30.8562 33.1395,46.1992 9.95581,16.0715 22.97456,30.316 30.23541,48.0237 6.24153,13.7196 11.29652,28.4669 13.74293,43.1501 -2.3268,-5.4538 -11.71817,-17.2448 -10.72236,-4.0771 0.64554,5.8857 -2.61986,24.5969 -7.99617,12.9067 -5.36979,-3.1528 -8.02155,4.9547 -9.64713,-3.7971 -2.61641,-5.7165 -12.91236,-24.2439 -11.52146,-7.7934 -0.24092,6.6123 -0.39269,23.3456 -8.52773,22.6672 -0.71199,-6.4256 -4.35073,-6.7929 -7.47545,-2.8639 -3.47854,-4.1084 -6.67276,-6.4414 -10.54004,-3.8523 -8.49033,-6.1108 -19.90508,-6.7229 -28.50692,-0.5055 -9.56444,4.3212 -12.5154,18.0916 -24.75613,15.2535 -9.1367,1.5914 -16.28373,7.8308 -25.81189,2.606 -8.58247,3.7439 -19.2214,2.1376 -28.10671,-1.0829 -3.29947,-1.4401 -11.62277,-8.8856 -11.3785,-0.7559 -6.43774,2.3897 -19.71548,-8.2393 -20.06829,-5.4782 1.82413,10.9946 -10.76405,-6.012 -13.29134,-9.1584 -6.62097,-9.4733 -14.84659,-18.3884 -18.19241,-29.6829 z"
       id="path4197"
       inkscape:connector-curvature="0" />
    <path
       style="fill:#ffffff;fill-rule:evenodd;stroke:none;stroke-width:1px;stroke-linecap:butt;stroke-linejoin:miter;stroke-opacity:1"
       d="m 655.71365,2296.1928 c -17.95181,18.2899 -7.88993,44.3413 -4.02787,65.5464 -0.78972,14.4705 17.57845,35.3222 15.57416,42.109 -7.21475,-5.5069 -17.98908,-11.2348 -10.102,2.1537 10.0319,37.9812 40.15124,68.4065 71.60263,94.0716 9.6409,5.6838 39.24557,23.3727 37.16783,10.9356 18.05024,9.9972 39.59756,14.2006 60.12426,18.0572 23.2136,-0.6376 45.82297,3.9879 67.02707,12.3661 21.18136,5.4358 44.41079,13.3441 66.24797,6.0723 -8.57674,-25.9332 28.28246,-1.661 42.058,-10.8952 12.3214,3.7396 43.2785,-2.9813 64.0517,-7.1027 20.7858,-4.2919 41.4399,-10.3478 60.5369,-18.8931 13.344,0.7161 35.7139,-5.341 50.0218,-19.8299 12.4803,3.4948 27.7058,-46.6044 23.4612,-57.3936 -3.3644,-18.0047 -1.8657,-37.9421 -5.9053,-52.1069 -1.997,-16.8502 -18.76,-25.8506 -24.6379,-41.8276 -13.878,-28.3053 -39.0729,-50.9264 -69.2157,-65.8168 -25.1131,-12.4079 -51.6488,-24.7857 -80.1469,-29.0643 -18.5871,-0.4655 15.9303,18.1184 -7.1188,8.1885 -17.4276,-10.5388 2.3551,13.5317 -11.0725,3.5284 -7.54412,-7.8671 -22.96577,-14.4149 -17.20129,2.7638 -0.92588,6.8557 -7.34333,1.2221 -11.32524,7.2724 -19.93181,-10.8598 -42.31986,-2.7342 -64.27164,-2.5933 -12.09945,-1.2823 -30.84932,6.503 -36.40506,-7.5006 0.10893,16.9684 -19.04633,0.5865 -21.07068,17.1036 -9.14413,-4.2669 -24.2477,-14.0017 -25.84868,1.5342 -15.28777,13.235 -36.47274,-11.502 -46.11501,-6.1578 5.40502,26.2284 -21.049,3.8671 -30.7739,-2.259 -2.09311,29.0904 -33.88855,-5.5983 -47.70874,-1.2433 14.7217,16.6448 -4.93413,32.0925 -23.91662,20.996 8.9958,26.6108 -9.41126,6.1297 -21.00969,9.9853 z"
       id="path4236"
       inkscape:connector-curvature="0"
       sodipodi:nodetypes="ccccccccccccccccccccccccccccccc" />
    <path
       style="color:#000000;display:inline;overflow:visible;visibility:visible;fill:#ffffff;fill-opacity:1;fill-rule:nonzero;stroke:none;stroke-width:1px;marker:none;enable-background:accumulate"
       d="m 1154.4525,2480.363 c 77.6054,-20.2135 190.5062,-29.0114 200.0628,61.8536 46.6722,17.982 92.2731,10.9105 127.8862,96.224 -34.6047,-47.1488 -65.9093,-63.8257 -151.2113,-90.3725 -13.8401,-46.2271 -83.2495,-67.9956 -171.2273,-31.572 -87.9781,36.4236 -60.4008,31.3682 -60.4008,31.3682 l 28.5919,-57.398 z"
       id="path5074"
       inkscape:connector-curvature="0"
       sodipodi:nodetypes="ccccsccc" />
  </g>
  <g
     inkscape:groupmode="layer"
     id="layer1"
     inkscape:label="txt"
     style="display:inline">
    <text
       xml:space="preserve"
       style="font-style:normal;font-variant:normal;font-weight:normal;font-stretch:normal;font-size:12px;line-height:125%;font-family:Lavi;-inkscape-font-specification:Lavi;text-align:center;letter-spacing:0px;word-spacing:0px;text-anchor:middle;fill:#000000;fill-opacity:1;stroke:none"
       x="1224.7714"
       y="265.99097"
       id="text4246"
       sodipodi:linespacing="125%"><tspan
         sodipodi:role="line"
         style="font-size:45px"
         x="1224.7714"
         y="265.99097"
         id="tspan4252">¡Jajaja!</tspan></text>
    <text
       xml:space="preserve"
       style="font-style:normal;font-variant:normal;font-weight:normal;font-stretch:normal;font-size:12px;line-height:125%;font-family:Lavi;-inkscape-font-specification:Lavi;text-align:center;letter-spacing:0px;word-spacing:0px;text-anchor:middle;fill:#000000;fill-opacity:1;stroke:none"
       x="1427.9531"
       y="383.46786"
       id="text4246-5"
       sodipodi:linespacing="125%"><tspan
         sodipodi:role="line"
         style="font-size:45px"
         x="1427.9531"
         y="383.46786"
         id="tspan4252-6">¡Fiuu! ¡Esto va a ser</tspan><tspan
         sodipodi:role="line"
         style="font-size:45px"
         x="1435.8633"
         y="439.71786"
         id="tspan4162">un poquito más </tspan><tspan
         sodipodi:role="line"
         style="font-size:45px"
         x="1427.9531"
         y="495.96786"
         id="tspan4164">complicado de lo que</tspan><tspan
         sodipodi:role="line"
         style="font-size:45px"
         x="1427.9531"
         y="552.2179"
         id="tspan4166">había pensado!</tspan></text>
    <text
       xml:space="preserve"
       style="font-style:normal;font-variant:normal;font-weight:normal;font-stretch:normal;font-size:14.57404613px;line-height:125%;font-family:Lavi;-inkscape-font-specification:Lavi;text-align:center;letter-spacing:0px;word-spacing:0px;text-anchor:middle;fill:#000000;fill-opacity:1;stroke:none"
       x="847.05945"
       y="2205.2585"
       id="text4246-2"
       sodipodi:linespacing="125%"
       transform="scale(0.99940856,1.0005918)"><tspan
         sodipodi:role="line"
         style="font-size:54.65267181px"
         x="847.05945"
         y="2205.2585"
         id="tspan4252-4">¡Mpff!</tspan></text>
    <text
       xml:space="preserve"
       style="font-style:normal;font-variant:normal;font-weight:normal;font-stretch:normal;font-size:12px;line-height:125%;font-family:Lavi;-inkscape-font-specification:Lavi;text-align:center;letter-spacing:0px;word-spacing:0px;text-anchor:middle;fill:#000000;fill-opacity:1;stroke:none"
       x="914.37341"
       y="2319.8591"
       id="text4246-2-2"
       sodipodi:linespacing="125%"><tspan
         sodipodi:role="line"
         style="font-size:45px"
         x="914.37341"
         y="2319.8591"
         id="tspan4252-4-2">...y yo que</tspan><tspan
         sodipodi:role="line"
         style="font-size:45px"
         x="914.37341"
         y="2376.1091"
         id="tspan4230">creía que sería más</tspan><tspan
         sodipodi:role="line"
         style="font-size:45px"
         x="914.37341"
         y="2432.3591"
         id="tspan4234">fácil con un Dragón</tspan><tspan
         sodipodi:role="line"
         style="font-size:45px"
         x="914.37341"
         y="2488.6091"
         id="tspan3358">del Aire...</tspan></text>
  </g>
</svg>
