<?xml version="1.0" encoding="UTF-8" standalone="no"?>
<!-- Created with Inkscape (http://www.inkscape.org/) -->

<svg
   xmlns:dc="http://purl.org/dc/elements/1.1/"
   xmlns:cc="http://creativecommons.org/ns#"
   xmlns:rdf="http://www.w3.org/1999/02/22-rdf-syntax-ns#"
   xmlns:svg="http://www.w3.org/2000/svg"
   xmlns="http://www.w3.org/2000/svg"
   xmlns:xlink="http://www.w3.org/1999/xlink"
   xmlns:sodipodi="http://sodipodi.sourceforge.net/DTD/sodipodi-0.dtd"
   xmlns:inkscape="http://www.inkscape.org/namespaces/inkscape"
   id="svg2"
   version="1.1"
   inkscape:version="0.92.1 r15371"
   width="2646.3999"
   height="707.20001"
   sodipodi:docname="Pepper-and-Carrot_by-David-Revoy_E14P00.svg">
  <metadata
     id="metadata8">
    <rdf:RDF>
      <cc:Work
         rdf:about="">
        <dc:format>image/svg+xml</dc:format>
        <dc:type
           rdf:resource="http://purl.org/dc/dcmitype/StillImage" />
        <dc:title />
      </cc:Work>
    </rdf:RDF>
  </metadata>
  <defs
     id="defs6" />
  <sodipodi:namedview
     pagecolor="#ffffff"
     bordercolor="#666666"
     borderopacity="1"
     objecttolerance="10"
     gridtolerance="10"
     guidetolerance="10"
     inkscape:pageopacity="0"
     inkscape:pageshadow="2"
     inkscape:window-width="1305"
     inkscape:window-height="744"
     id="namedview4"
     showgrid="false"
     inkscape:zoom="0.43094102"
     inkscape:cx="1068.9978"
     inkscape:cy="333.48027"
     inkscape:window-x="61"
     inkscape:window-y="24"
     inkscape:window-maximized="1"
     inkscape:current-layer="layer1" />
  <g
     inkscape:groupmode="layer"
     id="layer2"
     inkscape:label="artwork"
     sodipodi:insensitive="true">
    <image
       sodipodi:absref="/home/emmiline/Documents/git/peppercarrot/peppercarrot_ep14_translation/da/../gfx_Pepper-and-Carrot_by-David-Revoy_E14P00.png"
       xlink:href="../gfx_Pepper-and-Carrot_by-David-Revoy_E14P00.png"
       y="0"
       x="0"
       id="image10"
       height="707.20001"
       width="2646.3999" />
  </g>
  <g
     inkscape:groupmode="layer"
     id="layer1"
     inkscape:label="txt"
     style="display:inline">
    <path
       style="display:inline;fill:#301b0b;fill-opacity:1;stroke:none;stroke-width:1.06666672"
       d="m 764.99039,535.09933 c -2.10694,-1.84987 -4.52708,-4.71031 -5.37845,-6.35656 l -1.54796,-2.99317 v -4.3747 -4.37468 l 2.62214,-2.6221 2.62215,-2.62212 1.91804,-0.0339 c 1.05486,-0.0193 2.84496,-0.73517 3.97775,-1.59217 l 2.05973,-1.55822 0.80006,-5.61864 0.80005,-5.61863 0.0773,-24.37333 0.0773,-24.37334 -1.10595,-2.06631 -1.10575,-2.0663 h -1.90516 c -1.04778,0 -4.45345,-0.75681 -7.56826,-1.68179 l -5.6631,-1.68178 -2.54272,-2.54274 -2.54271,-2.54273 v -1.65097 -1.65096 l 6.14244,-0.044 6.14267,-0.0439 4.80723,-2.35956 4.80722,-2.35958 0.30526,-37.3894 0.30504,-37.38941 -1.26781,-4.62139 -1.26804,-4.6214 -2.24218,-1.4542 -2.24198,-1.45419 -9.34741,-0.74801 -9.34719,-0.748 v -1.27948 -1.27949 l 4.72458,-4.79243 4.7248,-4.79244 13.52072,-6.11135 13.52052,-6.11134 2.05757,0.65304 c 1.13151,0.35917 3.49712,1.86435 5.25653,3.34485 l 3.19895,2.69183 v 1.43113 c 0,0.78712 0.75541,2.18654 1.6789,3.10984 l 1.67869,1.67869 h 11.02095 11.02094 l 9.26133,2.68379 c 5.09359,1.47609 11.57951,3.85865 14.41331,5.29456 2.83359,1.43595 8.97047,5.48807 13.63752,9.00475 l 8.48531,6.39397 2.93254,4.23158 2.93256,4.23162 1.52906,5.08089 1.52907,5.08091 v 7.21292 7.21292 l -1.99919,6.42382 -1.99939,6.42383 -3.95179,7.0665 -3.95178,7.06648 -6.42495,6.8683 -6.42495,6.8683 -7.11982,5.24696 c -3.91594,2.88585 -9.52345,6.43663 -12.46114,7.89064 -2.93771,1.45401 -10.86961,4.47401 -17.62643,6.71116 -6.75683,2.23712 -13.36682,4.45984 -14.68873,4.93936 l -2.40362,0.87186 v 23.03925 23.03923 l 2.57856,2.57868 2.57879,2.57867 3.02979,0.64211 c 1.66624,0.35314 3.83738,1.07692 4.82462,1.60834 l 1.79483,0.96623 4.65824,-0.0933 c 2.56203,-0.0513 7.11232,0.24403 10.11184,0.65657 l 5.4538,0.75006 3.39387,-1.7551 3.39408,-1.75509 3.14571,0.69091 c 1.73,0.38 5.30054,0.69092 7.93405,0.69092 2.63353,0 4.78834,0.22482 4.78834,0.49961 0,0.2748 -1.736,1.22494 -3.85776,2.11145 -3.89232,1.62634 -12.26322,6.88011 -17.88768,11.22684 l -3.05061,2.35759 -6.95088,1.92742 -6.95067,1.92739 -4.95428,3.14992 -4.95449,3.14995 -8.01197,2.2634 c -4.40645,1.24486 -10.45788,2.96756 -13.4471,3.82818 l -5.43534,1.56473 h -4.40902 -4.40902 l -3.83072,-3.36338 z m 47.1797,-114.62452 9.45603,-4.75144 8.61132,-6.91316 8.61111,-6.9132 5.15864,-6.22889 5.15842,-6.2289 3.0547,-6.40962 3.05447,-6.4096 8.7e-4,-4.59321 8.5e-4,-4.59318 -1.56405,-3.02451 c -0.86017,-1.66349 -3.05534,-4.27944 -4.87828,-5.81324 l -3.31423,-2.78875 -6.0714,-1.82337 -6.07161,-1.82339 -9.08015,-0.0282 -9.08036,-0.0282 -5.90246,1.33419 -5.90245,1.33422 -3.44496,2.09492 -3.44475,2.09492 v 32.01068 32.0107 l 1.86931,1.08885 c 1.02826,0.59889 2.42165,1.10349 3.09635,1.12135 0.67469,0.0172 5.48192,-2.10564 10.68263,-4.71894 z m 78.35928,116.30048 c -1.46875,-0.94968 -3.98313,-3.42727 -5.58712,-5.50573 l -2.91645,-3.77904 -0.6573,-3.50333 -0.6571,-3.50331 1.4372,-3.02861 1.43718,-3.02859 4.72029,-2.2652 4.72029,-2.26521 1.42216,-1.94498 1.42216,-1.94499 v -29.57508 -29.57505 l -5.60837,-0.62657 c -3.08453,-0.3446 -7.49182,-1.00678 -9.79369,-1.47149 l -4.18535,-0.8449 -0.33745,-1.0644 c -0.18461,-0.58544 0.0365,-1.65458 0.4946,-2.37588 l 0.83225,-1.31144 8.25799,-1.58001 c 4.54168,-0.869 8.72637,-1.86957 9.29889,-2.22346 l 1.04113,-0.64346 v -43.2549 -43.25489 l -1.55869,-3.01437 -1.5589,-3.01438 -8.85668,-1.25798 c -4.87142,-0.69187 -10.41925,-1.49655 -12.3287,-1.78819 l -3.47201,-0.53022 v -0.83364 c 0,-0.4585 1.08171,-1.81867 2.40362,-3.02258 2.61592,-2.38219 16.09694,-11.00272 17.20633,-11.00272 0.37631,0 4.96651,-1.92811 10.20007,-4.28471 l 9.5157,-4.28472 3.03602,1.15427 c 1.66967,0.63483 3.87794,1.91638 4.90726,2.84787 l 1.87146,1.69362 v 2.91464 2.91466 l 2.40362,0.64412 c 1.32191,0.35429 7.2205,0.65072 13.10771,0.65875 l 10.7041,0.015 7.66464,2.12397 c 4.21561,1.16816 10.39885,3.33313 13.74055,4.81102 l 6.0759,2.68706 7.06917,5.26019 c 3.88824,2.89312 8.84832,7.09772 11.02266,9.34355 l 3.95329,4.08333 2.37055,5.34134 2.37035,5.34134 0.47784,8.06805 0.47806,8.06804 -3.1266,9.07146 -3.12683,9.07143 -4.11279,6.19606 c -2.26193,3.40784 -6.5224,8.83266 -9.46761,12.05519 l -5.35485,5.85908 -3.40674,-0.63912 -3.40675,-0.6391 -1.1139,1.35598 c -0.61266,0.74579 -1.28006,2.55326 -1.48334,4.01659 l -0.36944,2.66061 -5.25652,3.43446 -5.25654,3.43448 -13.25754,4.85467 -13.25776,4.8547 -2.31711,0.0172 c -1.27425,0.009 -3.03795,0.47194 -3.91937,1.02878 l -1.60248,1.01243 v 22.92011 22.92012 l 2.5468,2.71177 2.54636,2.71176 5.54761,1.15164 5.5474,1.15166 10.60085,-0.0305 c 5.83011,-0.0172 13.39278,-0.0854 16.80554,-0.15284 l 6.20513,-0.12237 0.72966,0.72976 0.72985,0.72976 -2.12755,1.248 c -1.17014,0.6864 -5.18633,2.57601 -8.92451,4.19913 l -6.79697,2.95113 -3.16654,2.6645 c -1.74158,1.46544 -3.78305,2.66445 -4.53653,2.66445 h -1.37 l -4.69067,4.12082 c -2.57985,2.26642 -6.74931,5.16846 -9.2654,6.44899 l -4.57475,2.32821 -10.38103,2.82191 -10.38081,2.82191 -5.34131,0.36312 -5.34154,0.36314 -2.67065,-1.72669 z m 43.56343,-115.24691 7.71617,-3.69783 7.74364,-5.7486 7.74365,-5.74856 7.47787,-7.92716 7.47789,-7.92712 2.99352,-6.17525 2.99373,-6.17523 0.54095,-5.02739 0.54118,-5.02738 -1.93221,-3.71173 -1.93242,-3.7117 -4.27292,-2.97207 -4.27314,-2.97208 -8.01219,-1.69504 -8.01198,-1.69507 -6.94359,0.61957 c -3.81911,0.34076 -9.82804,1.35541 -13.3535,2.25477 l -6.40949,1.63522 -2.44999,2.76564 -2.44997,2.76568 0.31341,30.16997 0.31341,30.16998 1.46617,1.76462 1.46617,1.7646 h 1.76884 c 0.97265,0 5.24085,-1.66402 9.4848,-3.69784 z m 368.2542,82.82635 c -2.9377,-1.04712 -7.7883,-3.14436 -10.7788,-4.66058 l -5.4375,-2.75671 -3.3692,-3.83724 c -1.8532,-2.11048 -4.438,-5.86694 -5.7442,-8.34769 l -2.3751,-4.51045 -0.034,-8.012 -0.034,-8.01201 3.3726,-7.11863 3.3725,-7.11862 8.2896,-8.67651 8.2895,-8.67648 -3.001,-6.27871 -3.0008,-6.2787 0.6408,-3.20438 0.6407,-3.20441 -1.5288,-1.2689 -1.5289,-1.26888 1.6581,-3.20636 1.6581,-3.20638 -2.3708,-2.52355 -2.371,-2.52358 0.6776,-4.9421 0.6774,-4.94211 2.1278,-4.81019 2.1278,-4.81019 4.5429,-5.42622 4.5433,-5.42622 4.6896,-2.97409 4.6895,-2.97408 5.7857,-1.29476 5.7855,-1.29473 5.5618,1.75706 5.5617,1.75706 6.0986,3.81947 6.0985,3.81945 3.8914,6.40621 3.8917,6.4062 0.5466,4.07523 0.5468,4.07522 -2.3584,7.4723 -2.3583,7.47231 -4.1044,5.22635 c -2.2574,2.87449 -5.8692,7.87031 -8.026,11.10182 -2.1569,3.23152 -5.361,7.15302 -7.1202,8.71443 l -3.1983,2.83894 0.9096,1.55158 c 0.5001,0.85339 5.2867,6.19856 10.6365,11.8782 l 9.7271,10.32658 1.2757,-1.53724 1.276,-1.53727 0.2147,-3.03131 0.2146,-3.03132 -4.0007,-0.33123 -4.0005,-0.33121 -2.676,-3.50857 -2.6763,-3.50853 v -2.22646 -2.22647 l 1.5304,-1.53035 1.5303,-1.53033 8.8852,-2.76231 c 4.8872,-1.51927 11.2891,-3.30845 14.2268,-3.97594 l 5.3413,-1.21367 12.8192,-0.42149 c 7.0507,-0.23184 15.3431,-0.70727 18.4278,-1.05652 l 5.6084,-0.63496 -6e-4,1.41219 -5e-4,1.41221 -7.5974,6.94375 c -4.1782,3.81906 -9.1055,8.44473 -10.9491,10.27925 l -3.352,3.33551 -5.2108,0.75644 c -2.866,0.41604 -5.8706,1.00955 -6.6767,1.31892 l -1.4658,0.5625 v 5.18696 5.18698 l -2.2793,6.09181 -2.2793,6.09179 3.0695,2.22734 c 1.6881,1.22506 4.9972,3.71107 7.3536,5.52445 l 4.2841,3.29708 -0.1976,1.51013 c -0.1094,0.83056 -0.8631,3.30912 -1.6756,5.50788 l -1.4769,3.99777 -2.5168,2.67892 -2.5167,2.67892 -3.2856,-0.004 -3.2857,-0.004 -3.4978,-2.13256 c -1.9238,-1.17233 -4.1424,-2.13198 -4.9302,-2.13198 -0.7879,0 -2.6548,-0.96144 -4.1486,-2.13654 -1.4941,-1.1751 -3.3615,-2.12422 -4.1502,-2.10918 -0.7887,0.015 -4.078,1.71529 -7.3094,3.77831 l -5.8756,3.75101 -10.106,3.16542 -10.106,3.1654 -5.3839,-0.0781 -5.3838,-0.0782 -5.3413,-1.90383 z m 25.9214,-25.85204 4.6964,-2.27351 0.5231,-1.36309 0.523,-1.36308 -11.0247,-10.77856 -11.0248,-10.77857 -1.2897,-0.006 -1.2899,-0.006 -2.9832,3.9323 c -1.6409,2.16275 -4.5456,5.37589 -6.4552,7.14029 l -3.4718,3.20802 v 1.4447 1.44468 l 4.5399,4.63229 c 2.4973,2.54777 5.5017,5.15965 6.6768,5.80416 l 2.1366,1.17184 6.8736,0.0324 6.8733,0.0324 4.6965,-2.2735 z m -5.7147,-65.65503 8.2475,-7.03724 2.0599,-3.37839 2.0602,-3.37839 v -3.3899 -3.38992 l -2.649,-3.1482 -2.649,-3.14822 -3.2086,-1.32907 -3.2088,-1.32903 -3.6923,0.69268 -3.6923,0.69268 -2.8971,3.43553 c -1.5932,1.88958 -3.545,4.98249 -4.3373,6.87313 l -1.4413,3.43756 v 4.13762 4.1376 l 1.513,5.02661 c 1.5025,4.9926 3.3805,8.13218 4.8645,8.13218 0.4259,0 4.4859,-3.16676 9.022,-7.03723 z m 189.474,62.5917 c -3.3602,-0.43101 -9.5161,-1.87903 -13.6801,-3.21787 l -7.5703,-2.43422 -6.3434,-3.85288 c -3.4887,-2.1191 -8.8016,-5.77579 -11.8062,-8.12596 l -5.4628,-4.27308 -6.1771,-7.26917 -6.1771,-7.26917 -3.2316,-6.08421 c -1.7775,-3.34629 -4.2144,-9.20886 -5.4153,-13.02791 -1.2009,-3.81907 -3.2036,-12.46175 -4.4504,-19.20592 l -2.267,-12.26218 0.4746,-4.83013 c 0.686,-6.97797 3.7051,-22.47566 6.6804,-34.29105 2.9623,-11.76315 9.298,-30.42883 12.4689,-36.73392 4.7234,-9.39287 16.6076,-28.25639 23.9018,-37.93959 4.2316,-5.61755 10.9906,-13.58547 15.0199,-17.70647 4.0294,-4.12103 10.6895,-10.03554 14.8003,-13.14333 l 7.474,-5.65056 8.8581,-4.38939 8.8581,-4.38935 11.4428,-0.0719 11.4428,-0.0719 10.1485,4.09514 c 5.5817,2.25232 11.11,4.17521 12.2852,4.27307 l 2.1365,0.17796 0.5341,-5.92379 0.5341,-5.92384 1.9819,-3.02329 1.9817,-3.02326 5.8775,0.69077 5.8774,0.69078 5.7736,2.73136 5.7737,2.73137 3.7264,3.51455 3.7266,3.51455 v 5.34874 c 0,2.94181 -0.3006,6.85178 -0.6681,8.68878 l -0.6678,3.34002 -4.2137,4.78701 -4.2139,4.78699 0.6716,1.08681 0.6718,1.08679 h 1.9551 1.9552 l 2.4674,1.99798 2.4673,1.99799 -1.2687,14.82722 c -1.46,17.06528 -2.5557,25.21781 -4.838,35.99685 -0.8937,4.22053 -2.0905,10.07726 -2.6596,13.01501 -0.5692,2.93774 -1.8261,8.87523 -2.7931,13.19443 l -1.7584,7.85306 -2.652,5.23321 -2.6517,5.23324 h -0.9257 -0.9256 l -0.6443,-2.40362 c -0.3543,-1.32198 -0.6505,-4.94281 -0.6588,-8.04632 l -0.021,-5.64273 -1.4434,-3.45477 -1.4434,-3.45479 -0.7879,-13.82757 -0.7876,-13.8276 -4.5775,-13.39603 -4.5776,-13.39605 -4.6,-8.97025 -4.6005,-8.97024 -3.8382,-4.03478 -3.8383,-4.03479 -2.9596,-0.74283 -2.9597,-0.74286 -4.679,1.78686 c -2.5733,0.98279 -7.7202,3.79413 -11.4373,6.24743 l -6.7588,4.46054 -9.9562,10.09211 -9.9565,10.09206 -7.8698,11.83001 -7.8701,11.82998 -7.4673,15.4899 c -8.0191,16.63493 -13.3906,30.38735 -17.766,45.48556 l -2.743,9.46633 -0.6616,8.04398 -0.6616,8.04401 -2.5006,3.00868 -2.5005,3.00872 1.572,3.03982 c 0.8647,1.67194 2.9416,4.16379 4.6155,5.53746 l 3.0433,2.49762 2.8618,5.01156 2.8613,5.0116 5.066,5.18755 5.066,5.18757 5.176,2.49753 5.1758,2.49752 11.9165,-0.55979 11.9164,-0.55983 10.3447,-3.35113 c 5.6898,-1.8431 13.1088,-4.57355 16.4872,-6.06759 l 6.1425,-2.71647 1.898,0.49637 1.8984,0.49634 3.0679,-2.93192 3.0681,-2.93197 7.5328,-2.8785 7.5331,-2.87855 1.9909,-2.19987 c 1.0951,-1.20992 3.2462,-2.84904 4.7807,-3.6425 l 2.7898,-1.44265 1.2672,-2.98811 1.2673,-2.98813 6.0465,-3.67298 c 3.3256,-2.0201 7.8525,-5.30461 10.0599,-7.2988 l 4.0132,-3.62584 4.2399,-6.71329 4.2398,-6.71327 1.5978,-0.61311 1.5978,-0.61311 1.3073,1.57533 1.3073,1.57533 -1.1914,2.36719 c -0.6552,1.30194 -2.372,7.26444 -3.8152,13.24999 l -2.6237,10.88279 -5.1561,9.41432 -5.156,9.4143 -7.1401,7.14524 -7.1399,7.14526 -3.0651,1.58488 -3.0647,1.5849 -2.0596,-0.18396 -2.0595,-0.18398 -2.972,5.87548 -2.9719,5.87548 -11.4734,7.14855 -11.4732,7.14854 -9.6145,3.19277 -9.6144,3.1928 -8.3564,1.14255 c -9.1514,1.25127 -14.12,1.26801 -23.3917,0.0788 z m -1007.53093,-18.58189 -4.12631,-1.55076 -3.1822,-3.02222 -3.18221,-3.02222 -2.09772,-4.07906 -2.09771,-4.07908 -0.59977,-5.06386 -0.59979,-5.06389 2.5483,-2.96239 2.54809,-2.96241 6.69393,-0.78925 6.69392,-0.78928 1.81844,-1.81846 1.81843,-1.81844 0.54804,-9.8505 0.54783,-9.8505 3.20475,-0.54584 3.20496,-0.54582 0.33144,-2.86577 0.33166,-2.86577 -3.00231,-1.9117 c -1.65121,-1.05142 -3.35545,-2.40351 -3.78692,-3.00462 l -0.78504,-1.09295 -0.0214,-30.74623 -0.0214,-30.74627 1.33544,-0.4114 c 0.73436,-0.22625 2.60433,-0.68774 4.15528,-1.02551 l 2.81985,-0.61414 0.67856,-1.76799 0.67835,-1.76799 -1.36185,-1.82325 c -0.74896,-1.00276 -2.97999,-3.93692 -4.95792,-6.52029 l -3.59586,-4.69709 0.8636,-17.0923 c 0.47483,-9.40076 0.89129,-21.74148 0.92521,-27.42384 l 0.0623,-10.33153 -2.57943,-2.74384 -2.57965,-2.74381 -5.96663,-2.22476 -5.96664,-2.22475 -2.3171,-2.16435 -2.31732,-2.16435 -2.27503,-5.2883 -2.27481,-5.28828 -0.17603,-6.31406 -0.17603,-6.31403 2.50194,-2.66321 2.50193,-2.66323 9.20895,-3.36622 9.20917,-3.36624 16.55804,-3.08958 16.55825,-3.08956 19.22869,0.0227 19.22892,0.0227 10.2724,0.99968 10.27241,0.99968 8.77855,3.20378 c 4.82826,1.76207 11.7508,4.86594 15.38359,6.8975 3.6328,2.03158 8.78199,5.60992 11.44256,7.95193 l 4.8375,4.25815 6.777,9.44954 6.77679,9.44955 5.11956,10.68269 5.11978,10.68268 1.79418,6.94376 1.79418,6.94375 0.0966,8.01199 0.0966,8.01202 -1.38352,5.87549 -1.38373,5.87548 -4.17634,8.54614 -4.17632,8.54613 -6.13794,7.13184 c -3.37584,3.92251 -8.54155,9.26615 -11.47926,11.87477 -2.93791,2.60862 -9.10655,7.44356 -13.70856,10.7443 l -8.36725,6.00135 -12.99823,6.28894 c -16.38674,7.92845 -35.50896,15.58407 -44.51205,17.82057 -3.81912,0.94872 -8.72488,2.18208 -10.9018,2.74084 l -3.9578,1.01586 -1.65057,1.65046 -1.65034,1.6505 v 13.85973 13.85976 l 2.45019,2.45036 2.45041,2.45033 4.35471,0.69635 4.35471,0.69633 1.33781,1.61197 1.33779,1.61197 5.47763,0.015 5.47742,0.015 4.61123,1.60605 4.61103,1.60603 0.98961,-0.61154 c 0.93165,-0.57586 23.4194,-1.77164 30.38252,-1.61555 1.76262,0.0395 4.88729,0.0788 6.94358,0.0872 2.0565,0.009 4.394,0.24999 5.1947,0.53694 l 1.45565,0.52174 -1.31934,1.58975 -1.31955,1.58977 h -1.66839 c -0.91769,0 -3.86333,1.02128 -6.5458,2.26952 -2.68268,1.24821 -7.76189,3.61004 -11.28713,5.24849 -3.52524,1.63844 -9.29396,3.79317 -12.8192,4.78826 -3.52524,0.9951 -7.98815,2.47903 -9.91779,3.29765 l -3.50806,1.4884 h -3.99923 -3.99901 l -2.33643,1.63641 c -3.4926,2.44639 -10.32199,4.65751 -21.64089,7.00665 l -10.14855,2.10624 -12.8192,0.53366 -12.8192,0.53367 -4.12652,-1.55074 z m 79.8291,-118.8977 9.46998,-3.7422 4.62304,0.69326 4.62326,0.69329 1.7126,-2.61378 1.71261,-2.6138 -0.64335,-2.56347 -0.64336,-2.56345 2.10802,-1.90789 2.10824,-1.90786 2.2937,1.22754 2.29371,1.22755 1.6263,-1.34963 1.62609,-1.34964 -0.5944,-2.97182 -0.59419,-2.97181 5.33616,-6.09797 c 6.66602,-7.61779 12.04211,-15.6701 15.7612,-23.6077 l 2.87352,-6.13285 6.4e-4,-9.61441 6.5e-4,-9.61443 -2.84196,-6.06257 -2.84197,-6.06257 -4.37145,-4.74251 -4.37167,-4.74251 -6.22875,-2.79536 -6.22896,-2.79536 -8.19745,-1.21921 -8.19744,-1.21922 -10.4083,1.26301 c -5.72449,0.69466 -11.21007,1.49457 -12.19001,1.77759 l -1.78195,0.51455 -3.7004,-3.24901 -3.70042,-3.24902 h -2.22501 -2.225 l -1.10597,2.06632 c -0.60815,1.13646 -1.10575,3.21916 -1.10575,4.62821 v 2.56193 l -3.92236,2.58258 c -2.15719,1.42043 -4.86412,3.86321 -6.01537,5.42843 l -2.09321,2.84585 -0.87906,16.91714 -0.87926,16.9171 -0.0494,30.50856 -0.0494,30.50854 1.33544,1.68369 c 0.73436,0.92605 2.05627,1.9001 2.93769,2.16459 l 1.60249,0.48088 12.28489,-2.59418 12.28512,-2.59418 9.46999,-3.7422 z m 100.56174,116.43281 c -1.76263,-0.23377 -5.7653,-1.14733 -8.89491,-2.03008 l -5.69014,-1.60502 -4.50477,-4.50471 -4.50454,-4.50475 -4.6926,-12.26689 -4.69238,-12.26693 -0.44565,-14.37971 -0.44586,-14.37974 1.26867,-7.86517 1.2689,-7.86516 2.57255,-7.56369 c 1.41486,-4.16004 4.29697,-10.70099 6.40477,-14.53542 4.58956,-8.34968 11.8985,-18.06308 18.85882,-25.06286 l 5.09317,-5.12199 8.85432,-4.24855 8.85411,-4.24853 5.44672,-0.64509 5.44672,-0.64507 5.54203,3.01636 5.54203,3.01633 5.67254,5.45039 5.67255,5.45041 2.66379,5.2878 2.664,5.28782 1.20127,5.66098 1.20106,5.66099 V 363.05215 376.62 l -1.11519,4.01612 -1.1154,4.0161 -2.3506,1.52526 -2.35059,1.52527 -7.47789,1.22271 c -7.49741,1.22592 -44.32807,10.37343 -52.3452,13.00088 l -4.27313,1.40037 -1.86202,3.80625 -1.86201,3.80622 1.81135,4.73992 c 0.99626,2.60695 2.93298,6.56005 4.30362,8.78464 l 2.49206,4.04472 3.43401,2.16577 3.43401,2.16578 6.50545,-0.46533 6.50545,-0.46534 6.84784,-3.0201 c 3.76653,-1.66105 12.61398,-6.46965 19.66125,-10.68573 l 12.81319,-7.66565 1.45544,0.55853 1.45543,0.55852 -0.57101,3.51953 c -0.31427,1.93574 -1.54045,5.71038 -2.72475,8.38806 l -2.15374,4.86853 h -2.65435 -2.65435 l -1.75038,1.7503 -1.75038,1.7503 0.16958,4.39223 c 0.0944,2.41575 0.12665,4.91345 0.0708,5.55045 l -0.0988,1.15819 -9.37746,4.45646 -9.37768,4.45649 -7.44762,1.5776 c -7.37613,1.56246 -9.78276,1.6933 -15.99368,0.86953 z m 10.211,-78.82783 17.56397,-3.95003 4.44895,-1.93701 4.44874,-1.93704 1.15961,-2.16679 1.15963,-2.16678 v -11.26543 -11.26545 l -1.72226,-4.30443 -1.72226,-4.30442 -2.52298,-0.6332 -2.52296,-0.6332 -4.82226,2.33442 -4.82226,2.33443 -7.98192,7.45417 c -4.38991,4.0998 -9.62089,9.70816 -11.62437,12.46307 -2.00348,2.75489 -5.67984,8.93721 -8.16975,13.73849 l -4.52709,8.72958 0.75691,1.22473 0.75691,1.22474 1.28972,-0.49494 c 0.70947,-0.2722 9.19349,-2.27241 18.85367,-4.44491 z m 338.45319,77.02988 c -2.1256,-0.75955 -5.615,-2.46281 -7.7544,-3.785 l -3.8897,-2.40396 -2.673,-4.56114 c -1.4703,-2.5086 -4.4705,-9.55739 -6.6674,-15.66398 l -3.9942,-11.10288 0.099,-17.09229 0.099,-17.0923 2.3148,-8.54616 2.3145,-8.54616 4.3313,-9.08026 4.3313,-9.08031 5.7863,-7.57096 c 3.1824,-4.16405 8.4478,-10.08804 11.7006,-13.16443 l 5.9143,-5.59346 8.0456,-3.71733 8.0455,-3.71733 5.2003,-0.61589 5.2003,-0.6159 4.6288,2.26018 4.6288,2.26015 6.6325,5.93591 6.6322,5.93593 3.5164,7.13677 3.5163,7.13679 0.346,18.72297 0.3463,18.72294 -1.0998,2.88187 -1.0997,2.88187 -2.4513,1.59041 -2.4512,1.59042 -9.6472,1.66245 c -5.3061,0.91438 -18.7662,4.09038 -29.9115,7.05782 l -20.2644,5.39532 -4.8071,2.35742 -4.8072,2.35741 0.1803,6.59188 0.1803,6.5919 2.18,4.92806 2.1799,4.92811 3.7487,1.5663 3.7487,1.56634 7.7793,-0.0172 7.7793,-0.0172 9.0095,-3.65355 9.0096,-3.65355 2.029,1.08597 2.0292,1.08599 1.9517,-1.76615 c 1.0734,-0.97141 2.218,-2.81241 2.5436,-4.09117 l 0.5921,-2.32498 6.7207,-4.54014 6.7208,-4.54015 h 1.9657 1.9657 l 3.0558,-2.17581 c 1.6804,-1.19669 5.2799,-3.15975 7.9984,-4.36235 l 4.9431,-2.1865 0.5583,0.5585 0.5586,0.55849 -1.7905,4.68857 -1.7905,4.68853 -4.1654,5.50339 c -2.2911,3.02685 -5.1247,7.38406 -6.2974,9.68268 l -2.1323,4.17926 -5.4057,4.72879 -5.4056,4.72877 -9.8544,4.95958 -9.8543,4.95957 -5.0837,1.33377 -5.0839,1.33376 -1.6533,-2.36066 -1.6536,-2.36066 -2.877,0.004 -2.8771,0.004 -4.2732,2.63187 c -2.3504,1.44751 -4.9942,2.62575 -5.8756,2.61833 -0.8812,-0.006 -3.3415,-0.63503 -5.4671,-1.39463 z m 17.2179,-76.57346 c 7.9319,-1.75698 17.4312,-4.18455 21.1092,-5.3946 l 6.6877,-2.20008 1.1793,-2.20386 1.1796,-2.20381 0.1438,-12.39413 0.1439,-12.3941 -2.2231,-3.73894 -2.2231,-3.73895 -3.741,0.10603 -3.7409,0.10603 -6.5671,4.45972 -6.5672,4.45974 -2.538,-0.63701 -2.538,-0.637 -1.7571,1.75693 -1.7568,1.75696 0.6543,2.60717 0.6545,2.6072 -4.236,5.59463 c -2.3295,3.07704 -6.2292,9.25921 -8.6654,13.73814 l -4.4294,8.14362 v 2.39667 2.39668 l 2.4036,-0.6962 c 1.3219,-0.38292 8.8932,-2.13376 16.8251,-3.89073 z m 663.6831,77.2972 -2.3821,-0.46018 -2.1581,-2.74322 -2.1576,-2.74324 v -1.86165 -1.86166 l -1.5086,-1.25209 -1.5087,-1.25207 -6.4741,2.72483 c -3.5607,1.49872 -10.2127,3.95926 -14.7823,5.46793 l -8.3085,2.74302 -9.7001,0.60671 -9.7001,0.60671 -5.6681,-1.88269 -5.6681,-1.88267 -4.1216,-3.72356 -4.1213,-3.72359 -1.609,-5.41645 -1.6083,-5.41645 v -5.09886 -5.09884 l 2.5883,-7.13041 2.588,-7.13043 3.9985,-5.80521 3.9979,-5.80521 5.9658,-4.30697 5.9658,-4.30699 12.8192,-6.24507 12.8194,-6.24505 9.4103,-2.3464 9.411,-2.34641 2.2431,-1.81657 2.2432,-1.81658 -1.1794,-10.38219 -1.1794,-10.38219 -1.9281,-3.9453 -1.9284,-3.94532 -8.5462,-0.30079 -8.5461,-0.30077 -8.5461,4.15425 -8.5462,4.15428 -8.012,5.94457 c -4.4067,3.26954 -8.6259,6.58305 -9.3762,7.36334 -0.7503,0.78034 -2.5196,2.86092 -3.9318,4.62356 l -2.5674,3.20481 -1.285,-1.26388 -1.2846,-1.26387 2.8828,-7.28229 c 1.5853,-4.00523 4.4135,-9.85606 6.2846,-13.00179 l 3.402,-5.71956 6.2751,-5.26273 c 3.451,-2.89451 8.274,-6.43437 10.7176,-7.86638 2.4436,-1.43202 6.5902,-3.36787 9.215,-4.30191 l 4.7722,-1.69822 7.688,-0.0432 7.6878,-0.0432 5.7143,2.61603 5.7142,2.61603 3.9139,3.43662 3.9143,3.43666 2.5912,5.53561 2.5915,5.53563 1.2147,5.77288 1.2146,5.77288 1.0285,15.05837 c 0.5657,8.28211 1.0355,19.26467 1.0444,24.40572 l 0.021,9.34733 h 1.0053 c 0.5528,0 1.3021,-0.4807 1.6653,-1.06826 l 0.6602,-1.06827 h 2.2069 2.2073 l -0.6935,3.47188 c -0.3812,1.90954 -2.1238,6.53035 -3.8725,10.2685 l -3.179,6.79662 v 2.01658 2.01661 h 1.1273 c 0.6195,0 3.8646,-1.404 7.2107,-3.11999 8.9667,-4.59863 15.6702,-7.56271 17.1034,-7.56271 h 1.265 v 0.99274 c 0,0.54601 -1.9561,3.93762 -4.3468,7.53694 l -4.3468,6.54423 -0.8232,5.2085 -0.8235,5.20848 -1.7308,2.64159 -1.7306,2.64158 -5.6514,3.20785 -5.6513,3.20784 -5.8021,1.70224 c -3.1912,0.93622 -6.0757,1.63679 -6.4097,1.55675 -0.3341,-0.0801 -1.6794,-0.35254 -2.9897,-0.60564 z m -38.2051,-24.321 8.2068,-1.5702 6.0418,-2.75554 c 3.3228,-1.51554 7.8467,-4.00045 10.0526,-5.52204 l 4.0107,-2.76655 2.1318,-3.44945 2.1319,-3.44944 v -4.4626 -4.46263 l -2.6222,-2.6221 -2.6222,-2.62212 h -2.0547 -2.0549 l -1.6056,-2.4036 -1.6056,-2.40361 -2.0442,1.83645 -2.0443,1.83644 -7.2305,2.23334 -7.2306,2.23334 -3.9387,3.48122 c -2.166,1.91469 -6.2038,5.07942 -8.9733,7.03278 l -5.035,3.55156 -2.6032,3.85318 c -1.4316,2.11927 -2.9315,4.95838 -3.3327,6.30912 l -0.7296,2.45593 1.7155,2.61834 1.7159,2.61839 h 5.7571 5.7567 z m -541.4384,19.3059 -3.9196,-3.91962 -2.6707,-5.27011 -2.6706,-5.27014 v -2.64313 -2.64314 l 1.3302,-0.82203 1.3299,-0.82199 9.0857,-0.0422 9.0855,-0.0422 0.6432,-21.3654 0.6431,-21.36535 1.3117,-5.59295 1.3114,-5.59293 -0.3524,-13.82021 -0.3522,-13.82018 -2.3658,-2.51512 -2.3661,-2.51511 0.6176,-2.36188 0.6178,-2.36191 -1.7956,-0.68906 -1.7958,-0.68905 -2.3316,1.22692 -2.3313,1.2269 -5.3415,-2.04278 -5.3414,-2.04282 -0.3636,-1.80814 -0.3638,-1.80813 2.3716,-2.5244 2.3714,-2.52441 9.2092,-3.38358 9.2089,-3.38361 5.9424,-0.12622 5.9423,-0.12622 2.9601,1.93947 2.96,1.93949 1.5132,3.62153 1.5134,3.62153 v 5.37567 5.37566 l 1.3352,-6e-4 1.3354,-5.8e-4 6.1094,-6.8318 6.1093,-6.83179 4.6436,-2.24789 4.6434,-2.24793 h 4.9167 c 2.7041,0 5.714,0.30592 6.6883,0.67983 l 1.7717,0.67985 0.96,2.52496 0.96,2.52499 h 3.0313 3.0315 l 2.7382,2.93772 2.7384,2.93775 4.4053,9.11783 4.4051,9.11782 -0.062,2.09901 c -0.034,1.15445 -0.9186,5.38656 -1.9661,9.40472 l -1.9046,7.30571 -4.7106,2.1046 -4.7104,2.10463 -2.8383,2.71224 -2.8383,2.71224 -6.3771,-2.86189 -6.3771,-2.86186 -1.16,-2.54587 -1.1599,-2.54587 0.8851,-0.5471 0.8853,-0.5471 1.9108,2.11135 1.9107,2.11136 h 2.8351 2.8351 l 1.7495,-1.33535 1.7497,-1.33533 1.6437,-4.8072 c 0.9042,-2.64397 1.6508,-5.67031 1.6594,-6.72524 l 0.021,-1.91802 -2.6708,-2.67069 c -1.4686,-1.46886 -2.6706,-3.04574 -2.6706,-3.50416 0,-0.45844 -1.1126,-1.87873 -2.4723,-3.15625 l -2.4725,-2.32284 h -5.8362 -5.8358 l -2.3979,1.67947 -2.3975,1.67943 -3.0327,6.06549 c -1.6679,3.33605 -3.8077,8.46911 -4.7551,11.40685 -0.9475,2.93773 -2.9509,12.54177 -4.4526,21.34231 l -2.7299,16.00093 -0.1073,8.27924 -0.1073,8.27919 1.8304,2.79355 1.8305,2.79356 4.5908,2.0308 4.5911,2.03082 0.5811,2.22226 0.5811,2.22228 2.1911,-1.17262 2.1911,-1.17261 2.0952,1.30847 2.0953,1.30848 2.6541,-1.42054 2.6544,-1.42052 3.0202,0.75384 c 1.6608,0.4146 3.7409,1.37287 4.6224,2.12953 0.8813,0.75661 2.9341,1.69225 4.562,2.07914 l 2.9596,0.70349 2.2293,-1.19309 2.2293,-1.1931 1.0222,1.02226 1.0223,1.02226 -1.8303,1.83031 -1.8304,1.83034 -2.1653,-0.56628 -2.1658,-0.56631 -2.7494,1.47971 c -4.1779,2.24848 -12.9064,4.82833 -16.3357,4.82833 h -3.0571 l -4.4977,2.32801 -4.4974,2.32799 -11.751,0.79115 c -6.4629,0.43511 -16.3567,1.13528 -21.9859,1.5559 l -10.235,0.76479 -3.9199,-3.91963 z m 619.8462,0.80851 c -1.5257,-1.67985 -3.5687,-4.24291 -4.54,-5.69561 l -1.7663,-2.64131 v -2.96712 -2.96709 l 2.0943,-2.09447 2.0945,-2.09448 5.9162,-1.71985 5.9161,-1.71986 0.6091,-2.42652 0.609,-2.42653 -0.3405,-38.35937 -0.3406,-38.35938 -2.1943,-3.73529 -2.1942,-3.73531 -3.6813,-2.48077 -3.6812,-2.48075 v -1.26182 -1.2618 l 10.1487,-3.44468 c 5.5815,-1.89459 11.1098,-3.45692 12.2851,-3.47184 l 2.1364,-0.0271 2.7681,3.47185 2.7683,3.47184 1.3668,4.27307 c 0.7517,2.35021 1.7737,4.71386 2.2707,5.25255 l 0.904,0.97946 7.7803,-8.08127 7.7804,-8.08129 4.5402,-1.21844 4.5399,-1.21845 4.0296,1.08501 4.0292,1.08501 4.5329,3.33344 4.5327,3.33348 2.55,4.43592 c 1.4024,2.43976 2.8664,5.95575 3.2528,7.81336 l 0.703,3.37741 -1.2043,6.77114 c -0.6624,3.72411 -2.4173,10.78436 -3.8998,15.68944 l -2.6954,8.91833 -6.3184,6.47714 -6.3182,6.47718 -0.6563,-0.65622 -0.656,-0.65619 1.8277,-7.45802 1.8274,-7.45803 -0.6077,-10.94261 -0.6077,-10.94263 -1.0783,-1.07832 -1.0783,-1.0783 -5.9322,1.86994 -5.9321,1.86996 -3.2898,4.47212 c -1.8094,2.4597 -3.9537,6.01965 -4.7651,7.91107 l -1.4756,3.43893 -2.67,17.59215 -2.6703,17.59214 v 6.52991 6.5299 l 1.563,3.0223 c 0.8595,1.66226 2.1816,3.25339 2.9377,3.53586 0.7562,0.28244 7.1434,0.17002 14.1941,-0.24991 l 12.8192,-0.76345 0.9656,0.8642 0.9656,0.86421 -2.9287,3.83984 c -1.6111,2.11193 -4.4865,4.86085 -6.3902,6.10875 l -3.4612,2.26889 -2.3095,3.52305 -2.3091,3.5231 -2.7941,1.8306 -2.7939,1.83064 -10.3035,0.77305 c -5.6668,0.42519 -14.8703,1.1104 -20.4521,1.52267 l -10.1486,0.74957 -2.7738,-3.05431 z m 91.248,1.08002 c -1.2809,-1.09879 -3.5645,-3.86758 -5.0743,-6.15289 l -2.7456,-4.15507 v -2.06963 -2.06964 l 2.9931,-2.99293 2.9928,-2.99294 4.4235,-0.74736 4.4236,-0.74732 1.0312,-1.25183 1.0313,-1.25182 0.2276,-37.3894 0.2278,-37.38941 -1.0667,-5.11279 -1.0667,-5.11278 -1.8809,-2.07857 -1.8813,-2.07857 -5.4603,-2.03412 -5.4605,-2.03412 -0.2913,-1.45721 -0.2913,-1.45724 13.5447,-2.41703 13.5445,-2.41705 2.7707,1.76214 c 1.5239,0.96918 3.8352,3.0183 5.1361,4.55358 l 2.3654,2.79144 0.6914,3.47187 0.6912,3.47188 1.2163,-0.009 1.2166,-0.009 5.0197,-6.29566 5.02,-6.29568 5.8728,-2.8733 5.8728,-2.87328 3.5289,0.76021 c 1.941,0.41812 4.9712,1.47827 6.7339,2.35591 4.1127,2.04783 8.8804,6.48038 10.6867,9.93564 l 1.4159,2.70837 -1.5248,13.8498 -1.5247,13.84979 -3.1638,4.80721 c -1.7401,2.64396 -3.9862,6.36957 -4.9916,8.27908 l -1.8276,3.47188 h -1.7296 -1.7294 l -0.1035,-8.81321 -0.1035,-8.81322 -1.8162,-4.51964 -1.8165,-4.51962 -3.49,-2.15705 -3.4903,-2.15704 h -2.6801 -2.6801 l -2.1368,5.07427 c -1.1753,2.79085 -2.8892,7.47789 -3.8088,10.4156 -1.814,5.79356 -5.5356,28.49791 -6.677,40.73252 l -0.7105,7.61619 1.2482,3.78226 c 0.6863,2.08025 1.8248,4.25311 2.5289,4.82865 l 1.2806,1.04639 5.8756,-1.05132 c 3.2316,-0.57823 8.7597,-1.18101 12.2851,-1.3395 3.5253,-0.15842 7.2021,-0.6313 8.171,-1.05073 l 1.7616,-0.76252 0.7561,1.22365 0.7565,1.22364 -7.0226,6.7515 -7.0226,6.75148 -1.6688,4.17089 -1.6691,4.1709 -3.4192,2.01987 -3.4196,2.01991 -10.1697,0.75465 c -5.5934,0.41507 -14.4962,1.10141 -19.7843,1.52513 l -9.6142,0.77047 -2.329,-1.9978 z m 121.4408,0.0906 -5.8754,-1.6135 -5.6769,-3.8864 -5.6766,-3.88642 -4.1881,-4.89717 -4.188,-4.89715 -3.1131,-6.40962 -3.1128,-6.4096 -1.1768,-5.661 -1.1768,-5.661 0.021,-9.82891 0.021,-9.8289 1.0387,-7.18236 1.0388,-7.18236 2.2939,-6.70513 c 3.0195,-8.82534 7.9167,-18.55439 11.8562,-23.55354 l 3.1751,-4.0292 6.7,-4.78105 c 3.6851,-2.62962 9.3269,-5.98377 12.5379,-7.4537 l 5.8376,-2.67259 7.9184,-0.64544 7.9182,-0.64546 7.4541,1.75372 7.454,1.75374 4.4631,2.61549 4.463,2.61548 3.3028,4.17021 3.3028,4.17019 3.7082,7.86196 c 2.0396,4.32408 4.4736,10.7463 5.4092,14.2716 l 1.701,6.40962 0.5972,10.14854 0.5969,10.14857 -1.7282,9.08025 c -0.9508,4.99419 -2.2215,10.84222 -2.8238,12.99564 l -1.0954,3.91536 -3.7138,2.19116 -3.7137,2.19118 v 1.65292 c 0,0.90911 0.593,2.60241 1.3177,3.7629 l 1.3176,2.10998 -2.1188,3.94965 c -1.1653,2.17233 -4.3594,6.40447 -7.0977,9.40477 l -4.9789,5.45507 -5.7037,3.14898 -5.7041,3.14897 -13.3533,0.25902 -13.3532,0.25902 -5.8754,-1.61349 z m 25.592,-22.11838 5.8915,-1.33533 4.0877,-4.07247 4.0877,-4.07245 2.0762,-4.84415 2.0767,-4.84416 1.1772,-7.58778 1.1772,-7.5878 -0.7103,-15.00953 c -0.3907,-8.25523 -0.6908,-17.24267 -0.6665,-19.97208 l 0.043,-4.96254 -2.8853,-1.89062 c -1.5873,-1.03988 -5.444,-3.97446 -8.571,-6.52137 l -5.685,-4.63072 h -3.5036 -3.5036 l -5.4844,1.62873 -5.4845,1.62875 -3.4411,2.89548 -3.4412,2.8955 -4.0631,6.28628 -4.063,6.28627 -0.6517,3.87818 c -0.3585,2.133 -0.8758,4.69811 -1.1495,5.70024 -0.2739,1.00215 -2.3953,4.11802 -4.7142,6.92418 l -4.216,5.10209 v 1.65166 1.65164 l 1.9716,1.68815 1.9716,1.68815 0.7338,6.24416 0.7339,6.24414 4.6182,9.74897 4.6182,9.74896 3.131,2.22951 c 3.6955,2.6313 9.0837,4.31495 14.2385,4.4489 2.0391,0.053 6.3588,-0.50455 9.5992,-1.23896 z m 95.3571,21.01525 -5.5258,-2.75374 -2.7469,-3.2644 c -1.5108,-1.79539 -3.6416,-5.01816 -4.7352,-7.16163 l -1.9881,-3.89724 -1.1657,-6.30488 -1.1652,-6.30484 -0.075,-28.38001 -0.076,-28.37999 -0.8352,-2.13652 -0.8353,-2.13656 h -7.7095 -7.7095 l -4.1993,-4.49877 -4.1991,-4.49877 v -2.72653 -2.72654 l -1.2369,-1.98053 -1.2367,-1.98053 0.5822,-1.51761 0.5824,-1.51762 6.3021,-3.30351 6.302,-3.30352 6.1641,-1.37942 6.164,-1.37941 1.2746,-2.22006 1.2745,-2.22003 -0.2739,-21.71569 -0.2742,-21.71571 -1.1353,-2.12156 -1.1354,-2.12157 1.2732,-1.53411 1.2732,-1.53411 h 2.1331 2.1331 l 6.2511,3.79735 6.2513,3.79738 2.2486,3.15787 2.2487,3.15786 0.6218,16.1812 0.6219,16.1812 1.9842,1.98414 1.9841,1.98416 2.9214,-0.702 c 1.6068,-0.38609 4.604,-1.53467 6.6605,-2.55242 l 3.739,-1.8504 8.392,-0.77041 8.3921,-0.7704 3.893,-1.65878 3.8929,-1.65881 5.597,-0.10884 5.5968,-0.10883 0.5233,1.3648 0.5237,1.36482 -1.8473,1.50574 c -1.016,0.82818 -4.1021,3.33867 -6.8579,5.57894 -2.7559,2.24023 -9.0883,7.71562 -14.072,12.1675 l -9.0612,8.0943 -9.4301,3.56614 c -5.1864,1.96138 -10.151,4.22413 -11.0323,5.02836 l -1.6023,1.4622 -0.3441,29.60808 -0.3443,29.6081 0.6925,5.64326 0.6922,5.64326 2.4792,2.88197 2.4788,2.88197 3.2835,-1.58149 3.2835,-1.58146 12.1595,-11.89616 c 6.6878,-6.54292 13.2016,-12.45398 14.4756,-13.13571 l 2.3161,-1.23955 0.9119,0.56365 0.9119,0.56365 -0.8636,4.56004 c -0.4751,2.50801 -1.6312,6.38274 -2.5694,8.61051 l -1.7057,4.05048 -3.3155,2.96235 -3.3153,2.96233 1.2363,2.31014 1.2362,2.31013 -1.6774,4.03041 -1.6776,4.0304 -4.4894,4.67295 c -2.4694,2.57014 -6.6268,6.05536 -9.2389,7.74496 l -4.7495,3.07199 h -5.9904 -5.9908 l -5.5261,-2.75373 z"
       id="path4376"
       inkscape:connector-curvature="0" />
    <text
       xml:space="preserve"
       style="font-style:normal;font-variant:normal;font-weight:normal;font-stretch:normal;font-size:12.80000019px;line-height:0%;font-family:Arial;-inkscape-font-specification:Arial;letter-spacing:0px;word-spacing:0px;display:inline;fill:#2b1100;fill-opacity:1;stroke:#000000;stroke-width:2.13333344;stroke-miterlimit:4;stroke-dasharray:none;stroke-opacity:1"
       x="882.91547"
       y="621.3075"
       id="text4178"><tspan
         sodipodi:role="line"
         id="tspan4180"
         style="font-style:normal;font-variant:normal;font-weight:normal;font-stretch:normal;font-size:77.33333588px;line-height:1.25;font-family:Lavi;-inkscape-font-specification:Lavi;fill:#2b1100;stroke:none;stroke-width:2.13333344"
         x="882.91547"
         y="621.3075">Episode 14: Dragetanden</tspan></text>
  </g>
</svg>
