<?xml version="1.0" encoding="UTF-8" standalone="no"?>
<!-- Created with Inkscape (http://www.inkscape.org/) -->

<svg
   xmlns:dc="http://purl.org/dc/elements/1.1/"
   xmlns:cc="http://creativecommons.org/ns#"
   xmlns:rdf="http://www.w3.org/1999/02/22-rdf-syntax-ns#"
   xmlns:svg="http://www.w3.org/2000/svg"
   xmlns="http://www.w3.org/2000/svg"
   xmlns:xlink="http://www.w3.org/1999/xlink"
   xmlns:sodipodi="http://sodipodi.sourceforge.net/DTD/sodipodi-0.dtd"
   xmlns:inkscape="http://www.inkscape.org/namespaces/inkscape"
   id="svg2"
   version="1.1"
   inkscape:version="0.92.1 r15371"
   width="2646.3999"
   height="3736.5334"
   sodipodi:docname="Pepper-and-Carrot_by-David-Revoy_E14P03.svg">
  <metadata
     id="metadata8">
    <rdf:RDF>
      <cc:Work
         rdf:about="">
        <dc:format>image/svg+xml</dc:format>
        <dc:type
           rdf:resource="http://purl.org/dc/dcmitype/StillImage" />
        <dc:title />
      </cc:Work>
    </rdf:RDF>
  </metadata>
  <defs
     id="defs6" />
  <sodipodi:namedview
     pagecolor="#ffffff"
     bordercolor="#666666"
     borderopacity="1"
     objecttolerance="10"
     gridtolerance="10"
     guidetolerance="10"
     inkscape:pageopacity="0"
     inkscape:pageshadow="2"
     inkscape:window-width="1305"
     inkscape:window-height="744"
     id="namedview4"
     showgrid="false"
     inkscape:zoom="0.42255436"
     inkscape:cx="1483.2491"
     inkscape:cy="841.12423"
     inkscape:window-x="61"
     inkscape:window-y="24"
     inkscape:window-maximized="1"
     inkscape:current-layer="layer1" />
  <g
     inkscape:groupmode="layer"
     id="layer2"
     inkscape:label="artwork"
     sodipodi:insensitive="true">
    <image
       sodipodi:absref="/home/emmiline/Documents/git/peppercarrot/peppercarrot_ep14_translation/da/../gfx_Pepper-and-Carrot_by-David-Revoy_E14P03.png"
       xlink:href="../gfx_Pepper-and-Carrot_by-David-Revoy_E14P03.png"
       width="2646.3999"
       height="3736.5334"
       id="image10"
       x="0"
       y="0" />
  </g>
  <g
     inkscape:groupmode="layer"
     id="layer3"
     inkscape:label="speechbubbles"
     style="display:inline">
    <path
       style="color:#000000;display:inline;overflow:visible;visibility:visible;fill:#ffffff;fill-opacity:1;fill-rule:nonzero;stroke:none;stroke-width:1.06666672px;marker:none;enable-background:accumulate"
       d="m 1264.7745,380.28746 c 37.2107,-66.17721 110.2144,-99.70371 282.1292,-87.09624 110.2377,8.08434 173.5114,32.90942 223.3014,70.56523 23.5177,17.78627 44.5755,110.70926 19.5172,181.65555 -25.0582,70.94627 -103.3763,141.47023 -271.2828,122.03056 -167.9064,-19.43983 -167.9813,-22.10785 -192.553,-38.95058 -46.6836,-31.99919 -98.3228,-182.02725 -61.112,-248.20452 z"
       id="path4530"
       inkscape:connector-curvature="0"
       sodipodi:nodetypes="zsssssz" />
    <path
       style="color:#000000;display:inline;overflow:visible;visibility:visible;fill:#ffffff;fill-opacity:1;fill-rule:nonzero;stroke:none;stroke-width:1.06666672px;marker:none;enable-background:accumulate"
       d="m 1213.4825,182.187 c -5.565,19.24767 -36.9523,20.86166 -48.5068,16.94923 23.2912,21.53207 22.4792,34.91029 -9.1438,36.9875 53.0323,38.8064 9.695,32.93408 1.1471,42.77429 41.6402,13.37353 23.0099,30.01724 15.5965,46.58576 47.8613,0.56911 32.1985,27.12788 34.2158,48.28025 4.0574,-9.92563 23.3334,-40.14365 24.4932,-6.49792 31.6575,-32.09984 69.788,-52.83474 72.8158,3.34012 12.7553,-28.26003 25.4723,-40.20387 24.4932,-6.49792 31.6036,-43.83885 60.0038,-28.05892 88.5725,-15.66841 7.5033,-13.2316 8.3777,-33.55916 32.6529,-28.79552 -3.4036,-13.11489 4.7926,-22.13001 23.3027,-27.48357 -24.5969,-7.92232 -29.13,-16.09403 16.5409,-24.88803 -34.753,-0.85063 -67.1603,-2.59338 -26.3875,-32.58351 -12.7916,-0.72568 -43.1408,24.29891 -28.9908,-48.9361 -21.9958,23.44508 -45.4633,36.38511 -74.8937,-12.72635 -13.9279,24.53511 -38.0855,36.67607 -48.5954,6.02976 -3.7774,13.06506 -19.4406,17.97861 -32.7376,18.57449 -5.142,-5.1897 -10.4453,-12.23861 -15.9795,-21.47383 -9.0454,19.39151 -22.5761,32.48768 -48.5955,6.02976 z"
       id="path3549-3-7"
       inkscape:connector-curvature="0"
       sodipodi:nodetypes="cccccccccccccccccccc" />
    <path
       style="fill:#ffffff;fill-rule:evenodd;stroke:none;stroke-width:1.06666672px;stroke-linecap:butt;stroke-linejoin:miter;stroke-opacity:1"
       d="m 1597.5654,613.50162 c 41.9953,14.89889 -23.984,72.64238 -9.9509,88.04464 9.6874,10.63249 49.7708,-8.49844 86.8303,40.08524 -43.4544,-32.95358 -78.1663,-6.33303 -98.8977,-18.55882 -39.374,-23.21971 1.5843,-65.4043 3.6652,-75.70629 2.783,-13.77856 18.3531,-33.86477 18.3531,-33.86477 z"
       id="path4186"
       inkscape:connector-curvature="0"
       sodipodi:nodetypes="cscssc" />
    <path
       style="fill:#ffffff;fill-rule:evenodd;stroke:none;stroke-width:1.06666672px;stroke-linecap:butt;stroke-linejoin:miter;stroke-opacity:1"
       d="m 801.24713,2374.0097 c -29.00506,-21.9027 -45.86094,-58.3375 -43.82646,-94.6107 0.027,-5.5535 -0.55741,-12.678 2.21895,-3.5503 2.58804,6.369 10.53105,21.524 13.77664,19.7915 -1.85793,-13.9877 -0.40586,-27.9301 1.5157,-41.7527 1.25743,-14.4578 11.08398,17.3724 16.92999,4.8118 -3.16109,-5.341 -1.81325,-18.9276 3.94251,-7.1436 7.8014,9.8746 9.82844,0.2004 11.5955,-4.9944 7.86438,6.8655 9.77057,1.5231 12.90362,-3.4664 6.52815,4.4773 11.76538,4.1178 14.533,-2.9343 10.05191,0.09 23.24957,7.3847 25.18681,-8.277 4.85307,-7.3515 9.48169,9.2283 17.76307,4.4693 16.69446,-1.8485 33.26112,2.4001 49.91674,3.1245 13.99389,1.8065 24.84939,11.8889 35.80643,19.2049 -1.06887,-5.4348 -1.95378,-11.0337 5.32924,-5.6473 6.44397,-0.131 -8.78159,-21.0579 2.46126,-8.9013 14.29629,14.4505 23.50815,32.9132 35.34877,49.2791 10.6196,17.1429 24.5062,32.3371 32.2511,51.2253 6.6577,14.6342 12.0497,30.3647 14.6592,46.0268 -2.482,-5.8174 -12.4994,-18.3945 -11.4372,-4.349 0.6885,6.2781 -2.7945,26.2367 -8.5293,13.7672 -5.7278,-3.363 -8.5563,5.285 -10.2902,-4.0502 -2.7909,-6.0976 -13.7732,-25.8602 -12.2896,-8.313 -0.257,7.0531 -0.4189,24.902 -9.0962,24.1783 -0.7595,-6.8539 -4.64083,-7.2457 -7.97386,-3.0548 -3.71045,-4.3823 -7.11761,-6.8708 -11.24271,-4.1091 -9.05635,-6.5182 -21.23209,-7.1711 -30.40738,-0.5392 -10.20207,4.6093 -13.34976,19.2977 -26.40654,16.2704 -9.74582,1.6975 -17.36931,8.3528 -27.53268,2.7797 -9.15464,3.9935 -20.50283,2.2801 -29.9805,-1.1551 -3.51943,-1.5361 -12.39762,-9.4779 -12.13706,-0.8063 -6.86692,2.5491 -21.02985,-8.7885 -21.40618,-5.8434 1.94574,11.7276 -11.48165,-6.4128 -14.17743,-9.7689 -7.06237,-10.1049 -15.83636,-19.6143 -19.40523,-31.6618 z"
       id="path4197"
       inkscape:connector-curvature="0" />
    <path
       style="fill:#ffffff;fill-rule:evenodd;stroke:none;stroke-width:1.06666672px;stroke-linecap:butt;stroke-linejoin:miter;stroke-opacity:1"
       d="m 699.42789,2456.0014 c -19.14859,21.8931 -8.41592,53.0768 -4.29639,78.4595 -0.84237,17.3213 18.75035,42.2809 16.61244,50.4047 -7.69574,-6.5918 -19.18836,-13.4481 -10.77547,2.578 10.70069,45.4638 42.82799,81.8831 76.37614,112.6044 10.28362,6.8035 41.86194,27.9773 39.64568,13.09 19.25359,11.9667 42.2374,16.9982 64.13255,21.6145 24.76117,-0.7632 48.87783,4.7736 71.49554,14.8024 22.59345,6.5066 47.37151,15.973 70.66452,7.2686 -9.1485,-31.0423 30.1679,-1.9883 44.8618,-13.0416 13.1429,4.4762 46.1638,-3.5687 68.3219,-8.502 22.1715,-5.1375 44.2025,-12.3865 64.5727,-22.6153 14.2336,0.8573 38.0948,-6.3931 53.3565,-23.7364 13.3124,4.1833 29.5529,-55.7858 25.0253,-68.7006 -3.5887,-21.5518 -1.9901,-45.4169 -6.299,-62.3723 -2.1301,-20.1699 -20.0106,-30.9434 -26.2804,-50.068 -14.8032,-33.8816 -41.6778,-60.9592 -73.8301,-78.7831 -26.7873,-14.8523 -55.092,-29.6686 -85.49,-34.7901 -19.8262,-0.5572 16.9923,21.6878 -7.5934,9.8016 -18.5894,-12.6151 2.5121,16.1975 -11.8107,4.2236 -8.047,-9.417 -24.4968,-17.2548 -18.348,3.3082 -0.9876,8.2063 -7.8329,1.4628 -12.0803,8.7052 -21.2605,-12.9993 -45.14114,-3.273 -68.55637,-3.1042 -12.90608,-1.535 -32.90594,7.7841 -38.83206,-8.9784 0.11619,20.3114 -20.31609,0.7021 -22.47539,20.4732 -9.75374,-5.1075 -25.86422,-16.7601 -27.57193,1.8365 -16.30695,15.8423 -38.90426,-13.768 -49.18934,-7.371 5.76535,31.3956 -22.45227,4.629 -32.8255,-2.704 -2.23265,34.8214 -36.14778,-6.7012 -50.88932,-1.4883 15.70315,19.924 -5.26307,38.415 -25.51106,25.1324 9.59552,31.8533 -10.03868,7.3372 -22.41034,11.9525 z"
       id="path4236"
       inkscape:connector-curvature="0"
       sodipodi:nodetypes="ccccccccccccccccccccccccccccccc" />
    <path
       style="color:#000000;display:inline;overflow:visible;visibility:visible;fill:#ffffff;fill-opacity:1;fill-rule:nonzero;stroke:none;stroke-width:1.06666672px;marker:none;enable-background:accumulate"
       d="m 1231.416,2645.7205 c 82.7791,-21.561 203.2066,-30.9455 213.4003,65.9772 49.7837,19.1808 98.4247,11.6379 136.412,102.6389 -36.9117,-50.292 -70.3033,-68.0807 -161.2921,-96.3973 -14.7628,-49.3089 -88.7995,-72.5286 -182.6424,-33.6768 -93.8433,38.8518 -64.4276,33.4594 -64.4276,33.4594 l 30.4981,-61.2245 z"
       id="path5074"
       inkscape:connector-curvature="0"
       sodipodi:nodetypes="ccccsccc" />
  </g>
  <g
     inkscape:groupmode="layer"
     id="layer1"
     inkscape:label="txt"
     style="display:inline">
    <text
       xml:space="preserve"
       style="font-style:normal;font-variant:normal;font-weight:normal;font-stretch:normal;font-size:12.80000019px;line-height:0%;font-family:Lavi;-inkscape-font-specification:Lavi;text-align:center;letter-spacing:0px;word-spacing:0px;text-anchor:middle;fill:#000000;fill-opacity:1;stroke:none;stroke-width:1.06666672"
       x="1306.4227"
       y="283.72369"
       id="text4246"><tspan
         sodipodi:role="line"
         style="font-size:48px;line-height:1.25;stroke-width:1.06666672"
         x="1306.4227"
         y="283.72369"
         id="tspan4252">Ha ha!</tspan></text>
    <text
       xml:space="preserve"
       style="font-style:normal;font-variant:normal;font-weight:normal;font-stretch:normal;font-size:12.80000019px;line-height:0%;font-family:Lavi;-inkscape-font-specification:Lavi;text-align:center;letter-spacing:0px;word-spacing:0px;text-anchor:middle;fill:#000000;fill-opacity:1;stroke:none;stroke-width:1.06666672"
       x="1523.15"
       y="409.03238"
       id="text4246-5"><tspan
         sodipodi:role="line"
         style="font-size:48px;line-height:1.25;stroke-width:1.06666672"
         x="1523.15"
         y="409.03238"
         id="tspan4166">Hold da op!</tspan><tspan
         sodipodi:role="line"
         style="font-size:48px;line-height:1.25;stroke-width:1.06666672"
         x="1523.15"
         y="469.03238"
         id="tspan848">Det bliver vist lidt</tspan><tspan
         sodipodi:role="line"
         style="font-size:48px;line-height:1.25;stroke-width:1.06666672"
         x="1523.15"
         y="529.03235"
         id="tspan846">sværere end</tspan><tspan
         sodipodi:role="line"
         style="font-size:48px;line-height:1.25;stroke-width:1.06666672"
         x="1531.5875"
         y="589.03235"
         id="tspan856">jeg troede! </tspan></text>
    <text
       xml:space="preserve"
       style="font-style:normal;font-variant:normal;font-weight:normal;font-stretch:normal;font-size:12.80000019px;line-height:0%;font-family:Lavi;-inkscape-font-specification:Lavi;text-align:center;letter-spacing:0px;word-spacing:0px;text-anchor:middle;fill:#000000;fill-opacity:1;stroke:none;stroke-width:1.06666672"
       x="903.53009"
       y="2352.2759"
       id="text4246-2"
       transform="scale(0.99940856,1.0005918)"><tspan
         sodipodi:role="line"
         style="font-size:58.29618454px;line-height:1.25;stroke-width:1.06666672"
         x="903.53009"
         y="2352.2759"
         id="tspan4252-4">Pfff!</tspan></text>
    <text
       xml:space="preserve"
       style="font-style:normal;font-variant:normal;font-weight:normal;font-stretch:normal;font-size:12.80000019px;line-height:0%;font-family:Lavi;-inkscape-font-specification:Lavi;text-align:center;letter-spacing:0px;word-spacing:0px;text-anchor:middle;fill:#000000;fill-opacity:1;stroke:none;stroke-width:1.06666672"
       x="974.66498"
       y="2531.1831"
       id="text4246-2-2"><tspan
         sodipodi:role="line"
         style="font-size:48px;line-height:1.25;stroke-width:1.06666672"
         x="974.66498"
         y="2531.1831"
         id="tspan4234">… og jeg som troede det</tspan><tspan
         sodipodi:role="line"
         style="font-size:48px;line-height:1.25;stroke-width:1.06666672"
         x="974.66498"
         y="2591.1831"
         id="tspan875">ville være nemmere</tspan><tspan
         sodipodi:role="line"
         style="font-size:48px;line-height:1.25;stroke-width:1.06666672"
         x="983.10248"
         y="2651.1831"
         id="tspan877">med en vinddrage!  </tspan></text>
    <flowRoot
       xml:space="preserve"
       id="flowRoot858"
       style="fill:black;fill-opacity:1;stroke:none;font-family:sans-serif;font-style:normal;font-weight:normal;font-size:40px;line-height:1.25;letter-spacing:0px;word-spacing:0px"><flowRegion
         id="flowRegion860"><rect
           id="rect862"
           width="89.125"
           height="330.625"
           x="3116.5"
           y="2692.9084" /></flowRegion><flowPara
         id="flowPara864" /></flowRoot>  </g>
</svg>
