<?xml version="1.0" encoding="UTF-8" standalone="no"?>
<!-- Created with Inkscape (http://www.inkscape.org/) -->

<svg
   xmlns:dc="http://purl.org/dc/elements/1.1/"
   xmlns:cc="http://creativecommons.org/ns#"
   xmlns:rdf="http://www.w3.org/1999/02/22-rdf-syntax-ns#"
   xmlns:svg="http://www.w3.org/2000/svg"
   xmlns="http://www.w3.org/2000/svg"
   xmlns:xlink="http://www.w3.org/1999/xlink"
   xmlns:sodipodi="http://sodipodi.sourceforge.net/DTD/sodipodi-0.dtd"
   xmlns:inkscape="http://www.inkscape.org/namespaces/inkscape"
   id="svg2"
   version="1.1"
   inkscape:version="0.92.1 r15371"
   width="2646.3999"
   height="3736.5334"
   sodipodi:docname="Pepper-and-Carrot_by-David-Revoy_E14P02.svg">
  <metadata
     id="metadata8">
    <rdf:RDF>
      <cc:Work
         rdf:about="">
        <dc:format>image/svg+xml</dc:format>
        <dc:type
           rdf:resource="http://purl.org/dc/dcmitype/StillImage" />
        <dc:title />
      </cc:Work>
    </rdf:RDF>
  </metadata>
  <defs
     id="defs6" />
  <sodipodi:namedview
     pagecolor="#ffffff"
     bordercolor="#666666"
     borderopacity="1"
     objecttolerance="10"
     gridtolerance="10"
     guidetolerance="10"
     inkscape:pageopacity="0"
     inkscape:pageshadow="2"
     inkscape:window-width="1305"
     inkscape:window-height="744"
     id="namedview4"
     showgrid="false"
     inkscape:zoom="0.39515117"
     inkscape:cx="1243.3775"
     inkscape:cy="535.22464"
     inkscape:window-x="61"
     inkscape:window-y="24"
     inkscape:window-maximized="1"
     inkscape:current-layer="layer1" />
  <g
     inkscape:groupmode="layer"
     id="layer2"
     inkscape:label="artwork"
     sodipodi:insensitive="true">
    <image
       sodipodi:absref="/home/emmiline/Documents/git/peppercarrot/peppercarrot_ep14_translation/da/../gfx_Pepper-and-Carrot_by-David-Revoy_E14P02.png"
       xlink:href="../gfx_Pepper-and-Carrot_by-David-Revoy_E14P02.png"
       width="2646.3999"
       height="3736.5334"
       id="image10"
       x="0"
       y="0" />
  </g>
  <g
     inkscape:groupmode="layer"
     id="layer3"
     inkscape:label="speechbubbles">
    <path
       style="fill:#ffffff;fill-rule:evenodd;stroke:none;stroke-width:1.06666672px;stroke-linecap:butt;stroke-linejoin:miter;stroke-opacity:1"
       d="m 126.24311,133.34448 c 33.98834,13.69913 84.95554,23.90259 3.50676,61.36818 30.90565,2.41848 69.00197,3.23903 38.57428,19.28714 11.72574,16.36485 -27.7966,32.72969 -56.10805,49.09455 29.61368,-5.72837 60.06282,-15.13993 20.61295,20.56984 21.18964,-1.01485 18.21376,8.32695 -10.09269,28.5247 66.82558,-37.67941 90.11169,-47.11042 92.92896,-17.53376 8.43314,-15.80432 24.83219,-19.92722 14.02701,31.56077 43.68813,-90.39383 6.30565,91.30221 -5.26013,268.26662 21.46011,-81.31978 59.77398,-413.98415 64.87494,-245.47273 34.20952,-121.2244 82.78867,-20.1258 92.92896,-7.0135 -8.51023,-94.3745 53.83528,-55.22242 70.13506,-19.28715 -4.20201,-23.02589 15.78714,-69.40297 75.44865,-12.78987 -14.22536,-20.80602 -4.54402,-42.30594 49.04109,9.28312 -16.25047,-34.40682 13.85279,-44.09824 107.64207,-11.33231 -0.72348,-17.07571 -9.87074,-35.04881 88.7361,-4.44807 -1.8499,-15.68026 -21.95496,-37.29344 112.2161,-8.76688 0.87526,-27.36486 22.48794,-29.00604 60.14233,-16.24822 -6.43269,-23.51578 34.69025,-12.74862 86.8118,3.17043 -33.19647,-32.17828 12.0666,-28.56524 77.4781,-18.48299 -6.3517,-15.58866 -15.4326,-31.5972 22.7939,-40.32767 -39.0454,-37.24616 1.7712,-39.55275 14.027,-54.35467 -27.4976,2.59126 -48.7148,-10.74827 -17.02,-30.23498 -55.5106,7.20399 -35.1266,-15.30957 -32.0745,-27.62645 L 1008.1915,91.263439 920.5227,82.496556 815.32011,73.729673 717.13102,71.976297 H 617.18855 L 529.51972,75.48305 454.12453,66.716166 376.97597,75.48305 268.26661,73.729673 215.66532,103.53707 Z"
       id="path4323"
       inkscape:connector-curvature="0"
       sodipodi:nodetypes="ccccccccccccccccccccccccccccccccccc" />
    <path
       style="fill:#ffffff;stroke:none;stroke-width:1.06666672"
       d="m 834.85834,393.42816 c -1.85544,-31.33404 31.41092,-109.77577 193.68276,-103.87562 162.2719,5.9001 213.0604,40.36651 217.8157,96.06281 7.5226,88.11 -77.8485,111.65601 -200.4336,118.18224 C 919.55119,510.52555 832.89697,450.0438 834.85834,393.42816 Z"
       id="path3280"
       inkscape:connector-curvature="0"
       sodipodi:nodetypes="csssc" />
    <path
       style="color:#000000;display:inline;overflow:visible;visibility:visible;fill:#ffffff;fill-opacity:1;fill-rule:nonzero;stroke:none;stroke-width:1.06666672px;marker:none;enable-background:accumulate"
       d="m 873.12432,592.91698 c 41.79724,-40.20227 78.23147,-82.95341 70.00134,-124.96518 -11.634,-59.3873 -10.06145,-31.75482 -10.06145,-31.75482 l 44.59951,38.57853 c 4.71705,-1.46392 7.33873,52.45115 -104.5394,118.14147 z"
       id="path3072"
       inkscape:connector-curvature="0"
       sodipodi:nodetypes="csccc" />
    <path
       style="fill:#ffffff;fill-rule:evenodd;stroke:none;stroke-width:1.06666672px;stroke-linecap:butt;stroke-linejoin:miter;stroke-opacity:1"
       d="m 1427.2893,397.89551 c 9.0318,-32.58911 33.3535,-57.31545 59.8239,-73.82181 12.5971,-7.96902 26.9958,-13.80892 41.73,-12.27281 14.6375,0.9178 28.9348,6.39774 43.7343,4.49433 17.9957,-0.62864 36.3074,-3.37152 54.0965,0.54779 15.8139,4.27646 32.1067,6.49127 48.4255,6.61972 11.5124,-2.71451 22.0471,4.5204 32.3283,8.84771 9.23,4.67421 18.6576,9.57822 26.4103,16.80845 7.1425,10.14976 15.6947,18.9799 22.9206,29.03933 4.7281,5.4994 4.2738,13.09553 4.056,20.12562 -0.6141,14.39612 -1.654,29.01952 -5.5137,42.88897 -2.3097,8.80527 -10.847,11.71925 -17.4069,15.76542 -15.5217,8.54145 -32.0038,15.01871 -46.8173,25.07018 -14.6759,5.14685 -30.2724,2.73942 -45.3233,1.96163 -12.6116,-1.53207 -25.2982,-3.66846 -38.0182,-1.88683 -16.1896,1.30381 -32.33,4.6797 -48.5774,4.2473 -20.3536,-2.96729 -39.8469,-10.27346 -59.5712,-16.13428 -17.6964,-5.16574 -33.8251,-14.87947 -49.301,-25.27067 -8.2667,-5.90078 -17.018,-12.75962 -19.9354,-23.63405 -2.3916,-7.48799 -2.9551,-15.50582 -3.061,-23.396 z"
       id="path4365"
       inkscape:connector-curvature="0" />
    <path
       style="fill:#ffffff;stroke:none;stroke-width:1.06666672"
       d="m 1707.3065,575.42587 c -29.9471,-15.28139 -29.9419,-25.71605 -28.9486,-37.61876 0.993,-11.90266 3.2275,-22.62276 -1.9598,-28.36792 -5.1871,-5.74514 -14.8093,-9.6926 -22.3627,-11.66917 -7.5534,-1.97658 -2.7493,-10.83086 -3.7163,-18.97964 -0.967,-8.14884 -21.5158,-47.62215 -21.5158,-47.62215 0,0 -10.9778,31.70162 -11.1822,42.34811 -0.2046,10.64647 -0.3338,14.53853 0.7624,18.79525 1.0964,4.25682 5.3499,14.33237 12.5362,18.3682 7.1862,4.03588 15.9267,4.33257 22.0551,6.15627 6.1286,1.82362 6.672,11.2034 7.8614,20.36713 1.1892,9.16372 3.5513,15.62474 15.8395,25.24178 10.5333,8.24354 30.6308,12.9809 30.6308,12.9809 z"
       id="path3023"
       inkscape:connector-curvature="0"
       sodipodi:nodetypes="csssscssssssc" />
    <path
       style="fill:#ffffff;fill-rule:evenodd;stroke:none;stroke-width:1.06666672px;stroke-linecap:butt;stroke-linejoin:miter;stroke-opacity:1"
       d="m 606.78763,1406.2109 c 111.26747,47.7289 749.33677,165.5192 865.33897,76.6903 62.7359,33.1452 64.6387,44.908 129.742,5.1338 95.8793,46.4032 118.5119,30.6629 142.1859,21.3823 51.7889,8.1044 75.6767,11.5336 150.5341,42.4158 -79.7882,-21.8907 -100.1692,-25.3399 -147.5704,-27.493 -68.6544,23.8645 -119.5533,-6.6291 -142.0435,-18.5613 -66.7558,41.7778 -69.0397,33.0054 -134.0316,-6.4595 -69.537,66.8165 -431.4067,25.4657 -861.74917,-67.5204 4.73478,-13.258 -2.4063,-25.588 -2.4063,-25.588 z"
       id="path4385"
       inkscape:connector-curvature="0"
       sodipodi:nodetypes="cccccccccc" />
    <path
       style="color:#000000;display:inline;overflow:visible;visibility:visible;fill:#ffffff;fill-opacity:1;fill-rule:nonzero;stroke:none;stroke-width:1.14803135px;marker:none;enable-background:accumulate"
       d="m 159.07491,1378.9546 c 20.05443,-26.6246 62.23793,-49.0136 117.56053,-58.0901 55.32257,-9.0767 157.66939,-6.6563 175.64931,-3.6307 17.97977,3.0256 116.86891,13.9174 138.30634,29.045 21.4376,15.1277 50.48195,33.886 56.70569,53.2493 6.22394,19.3633 0.69164,65.9565 -19.36285,76.2434 -20.05446,10.2869 -111.33671,32.6755 -164.58479,33.8858 -53.24803,1.2102 -177.0322,-8.4714 -212.30043,-15.1275 -35.26815,-6.6562 -72.61088,-15.1278 -83.67537,-36.3064 -11.06458,-21.1788 -31.81054,-49.0136 -8.29843,-79.2688 z"
       id="path3533"
       inkscape:connector-curvature="0" />
    <path
       style="color:#000000;display:inline;overflow:visible;visibility:visible;fill:#ffffff;fill-opacity:1;fill-rule:nonzero;stroke:none;stroke-width:1.21430862px;marker:none;enable-background:accumulate"
       d="m 984.06851,1517.8438 c 1.21616,-40.2969 16.94779,-58.6233 77.71129,-64.8071 62.127,-6.3224 297.5473,-1.0247 342.793,16.1707 34.0044,12.923 42.2431,35.217 38.3418,61.5121 -3.5772,24.1139 -49.5097,50.4766 -125.9721,55.3472 -77.0139,4.9059 -211.908,0.1516 -253.2506,-10.1515 -41.3425,-10.3026 -77.12359,-25.8879 -79.62339,-58.0714 z"
       id="path3986"
       inkscape:connector-curvature="0"
       sodipodi:nodetypes="csssssc" />
    <path
       style="fill:#ffffff;fill-rule:evenodd;stroke:none;stroke-width:1.06666672px;stroke-linecap:butt;stroke-linejoin:miter;stroke-opacity:1"
       d="m 147.56368,2283.634 c -70.312495,152.8841 445.22346,90.556 488.67345,83.7223 35.48037,-4.1702 60.1877,-60.169 13.77913,-102.3353 -24.48473,-24.5726 -434.18821,-62.6227 -502.45258,18.613 z"
       id="path4430"
       inkscape:connector-curvature="0"
       sodipodi:nodetypes="cccc" />
    <path
       style="color:#000000;display:inline;overflow:visible;visibility:visible;fill:#ffffff;fill-opacity:1;fill-rule:nonzero;stroke:none;stroke-width:1.06666672px;marker:none;enable-background:accumulate"
       d="m 788.49057,2585.9857 c -31.00109,37.6319 -295.8369,81.5011 -389.9634,6.015 -94.12649,-75.486 -38.62828,-168.2712 14.5352,-198.2578 53.16335,-29.9868 210.23841,-64.1214 282.37072,-39.957 72.13246,24.1643 128.52586,60.9576 133.06345,137.745 1.85196,31.34 -9.00474,56.8226 -40.00597,94.4548 z"
       id="path4040"
       inkscape:connector-curvature="0"
       sodipodi:nodetypes="zssssz" />
    <path
       style="fill:#ffffff;stroke:none;stroke-width:1.06666672"
       d="m 907.2949,2750.0254 c -144.32563,-61.8295 -150.01558,-90.4013 -182.54264,-165.3922 -19.70817,-45.4371 -3.44352,-42.6998 -3.44352,-42.6998 l -52.45331,-11.8018 14.94516,48.4971 c 0,0 11.3598,121.6164 223.49431,171.3967 z"
       id="path3063"
       inkscape:connector-curvature="0"
       sodipodi:nodetypes="cscccc" />
    <path
       style="color:#000000;display:inline;overflow:visible;visibility:visible;fill:#ffffff;fill-opacity:1;fill-rule:nonzero;stroke:none;stroke-width:1.06666672px;marker:none;enable-background:accumulate"
       d="m 1809.8804,3408.6849 c 26.8717,-41.5229 83.9635,-76.8086 159.1813,-91.6708 75.2177,-14.8621 214.6955,-12.6055 239.2424,-8.1821 24.5468,4.4231 159.4571,19.8489 188.9193,42.963 29.4625,23.114 69.3496,51.7395 78.1565,81.6345 8.807,29.8951 2.058,102.129 -25.0901,118.3513 -27.148,16.2223 -151.1319,52.2237 -223.6563,54.8737 -72.5245,2.6501 -241.3312,-10.5387 -289.4931,-20.3324 -48.1618,-9.7936 -99.1807,-22.3682 -114.6131,-55.0038 -15.4327,-32.6358 -44.1678,-75.4381 -12.6469,-122.6334 z"
       id="path3533-6"
       inkscape:connector-curvature="0" />
    <path
       style="color:#000000;display:inline;overflow:visible;visibility:visible;fill:#ffffff;fill-opacity:1;fill-rule:nonzero;stroke:none;stroke-width:1.06666672px;marker:none;enable-background:accumulate"
       d="m 1900.4897,3384.1491 c -51.7891,68.1478 -78.0859,88.7867 -149.1606,47.2048 -71.0746,-41.582 -60.2586,-78.2835 -60.2586,-78.2835 -11.7421,13.1283 54.6091,106.3106 209.4192,31.0787 z"
       id="path5002"
       inkscape:connector-curvature="0"
       sodipodi:nodetypes="cscc" />
    <path
       style="color:#000000;display:inline;overflow:visible;visibility:visible;fill:#ffffff;fill-opacity:1;fill-rule:nonzero;stroke:none;stroke-width:1.06666672px;marker:none;enable-background:accumulate"
       d="m 635.57642,1503.9509 c -7.32597,23.6945 -48.64547,25.6814 -63.85631,20.8651 30.66154,26.5067 29.59262,42.9757 -12.03714,45.5328 69.81381,47.7719 12.76291,40.5429 1.51001,52.6565 54.81676,16.4633 30.29118,36.9522 20.53188,57.3486 63.00647,0.7006 32.66656,13.6864 16.05828,41.9998 17.80401,-12.5724 64.74326,-48.7885 61.22855,9.4356 33.93858,-32.332 72.42783,-46.9862 95.85747,4.1118 16.79159,-34.789 34.10598,-54.0777 64.34208,-3.4136 -8.26249,-54.5403 46.89339,-39.127 84.50221,-23.8738 -8.93044,-14.5787 6.18418,-52.4264 42.98558,-35.4483 -24.99875,-23.8391 6.30925,-27.2427 30.67661,-33.8331 -32.38035,-9.7527 -38.34795,-19.8123 21.77511,-30.638 -45.75011,-1.0472 -88.41242,-3.1925 -34.73757,-40.1114 -16.83929,-0.8933 -56.79227,29.9128 -38.16461,-60.2419 -28.95612,28.8617 -59.84968,44.7913 -98.59299,-15.6665 -18.3353,30.2035 -50.13747,45.1494 -63.97297,7.4228 -4.97276,16.0835 -25.59251,22.1322 -43.09713,22.8658 -6.76906,-6.3887 -13.75057,-15.0661 -21.03608,-26.435 -11.90759,23.8716 -29.72003,39.9934 -63.97298,7.4228 z"
       id="path3549-3-7"
       inkscape:connector-curvature="0"
       sodipodi:nodetypes="cccccccccccccccccccc" />
    <path
       style="color:#000000;display:inline;overflow:visible;visibility:visible;fill:#ffffff;fill-opacity:1;fill-rule:nonzero;stroke:none;stroke-width:1.06666672px;marker:none;enable-background:accumulate"
       d="m 584.85872,1588.8366 c -34.89778,-15.1125 -107.52094,-27.4779 -125.60575,-29.1064 -21.62184,14.9443 -53.98658,37.6602 -78.0858,53.5171 -5.66588,-1.4947 -97.61356,-51.0622 -106.20488,-48.804 -8.59116,2.2584 -84.34048,31.9971 -90.00339,39.9922 19.95345,-21.9465 88.6862,-52.9077 102.2681,-53.5353 9.15444,-0.7901 85.90331,37.6044 89.24342,40.622 16.05304,-16.9427 75.94779,-51.5044 85.13867,-55.9925 14.14503,0.8405 68.51171,4.1218 130.01284,26.0005 61.50117,21.8788 -6.76321,27.3064 -6.76321,27.3064 z"
       id="path5901"
       inkscape:connector-curvature="0"
       sodipodi:nodetypes="ccccccccsc" />
  </g>
  <g
     inkscape:groupmode="layer"
     id="layer1"
     inkscape:label="txt">
    <text
       xml:space="preserve"
       style="font-style:normal;font-variant:normal;font-weight:normal;font-stretch:normal;font-size:12.80000019px;line-height:0%;font-family:Lavi;-inkscape-font-specification:Lavi;text-align:center;letter-spacing:0px;word-spacing:0px;text-anchor:middle;fill:#000000;fill-opacity:1;stroke:none;stroke-width:1.06666672"
       x="1042.3811"
       y="383.99966"
       id="text4246-7"><tspan
         sodipodi:role="line"
         style="font-size:48px;line-height:1.25;stroke-width:1.06666672"
         x="1042.3811"
         y="383.99966"
         id="tspan4144-1">I denne kulde?!</tspan><tspan
         sodipodi:role="line"
         style="font-size:48px;line-height:1.25;stroke-width:1.06666672"
         x="1042.3811"
         y="443.99966"
         id="tspan4169">Nej tak!</tspan></text>
    <text
       xml:space="preserve"
       style="font-style:normal;font-variant:normal;font-weight:normal;font-stretch:normal;font-size:12.80000019px;line-height:0%;font-family:Lavi;-inkscape-font-specification:Lavi;text-align:center;letter-spacing:0px;word-spacing:0px;text-anchor:middle;fill:#000000;fill-opacity:1;stroke:none;stroke-width:1.06666672"
       x="1607.8895"
       y="385.67816"
       id="text4246-7-6"><tspan
         sodipodi:role="line"
         style="font-size:48px;line-height:1.25;stroke-width:1.06666672"
         x="1607.8895"
         y="385.67816"
         id="tspan4169-5">Mmm...</tspan><tspan
         sodipodi:role="line"
         style="font-size:48px;line-height:1.25;stroke-width:1.06666672"
         x="1607.8895"
         y="445.67816"
         id="tspan4196">Enig...</tspan></text>
    <text
       xml:space="preserve"
       style="font-style:normal;font-variant:normal;font-weight:normal;font-stretch:normal;font-size:12.80000019px;line-height:0%;font-family:Lavi;-inkscape-font-specification:Lavi;text-align:center;letter-spacing:0px;word-spacing:0px;text-anchor:middle;fill:#000000;fill-opacity:1;stroke:none;stroke-width:1.06666672"
       x="401.16245"
       y="1391.9818"
       id="text4246-7-6-4"><tspan
         sodipodi:role="line"
         style="font-size:48px;line-height:1.25;stroke-width:1.06666672"
         x="401.16245"
         y="1391.9818"
         id="tspan4196-8">Ingen problemer.</tspan><tspan
         sodipodi:role="line"
         style="font-size:48px;line-height:1.25;stroke-width:1.06666672"
         x="401.16245"
         y="1451.9818"
         id="tspan4221">Det tager jeg mig af!</tspan></text>
    <text
       xml:space="preserve"
       style="font-style:normal;font-variant:normal;font-weight:normal;font-stretch:normal;font-size:11.62141514px;line-height:0%;font-family:Lavi;-inkscape-font-specification:Lavi;text-align:center;letter-spacing:0px;word-spacing:0px;text-anchor:middle;fill:#000000;fill-opacity:1;stroke:none;stroke-width:0.96845138"
       x="1263.6443"
       y="1467.1624"
       id="text4246-7-6-4-6"
       transform="scale(0.9605171,1.0411059)"><tspan
         sodipodi:role="line"
         style="font-size:35.83625412px;line-height:1.25;stroke-width:0.96845138"
         x="1263.6443"
         y="1467.1624"
         id="tspan4221-0">Jeg er straks tilbage!</tspan></text>
    <text
       xml:space="preserve"
       style="font-style:normal;font-variant:normal;font-weight:normal;font-stretch:normal;font-size:12.80000019px;line-height:0%;font-family:Lavi;-inkscape-font-specification:Lavi;text-align:center;letter-spacing:0px;word-spacing:0px;text-anchor:middle;fill:#000000;fill-opacity:1;stroke:none;stroke-width:1.06666672"
       x="401.73187"
       y="2327.5322"
       id="text4246-7-6-4-6-4"><tspan
         sodipodi:role="line"
         style="font-size:48px;line-height:1.25;stroke-width:1.06666672"
         x="401.73187"
         y="2327.5322"
         id="tspan4221-0-2">&quot;Kulden&quot;, &quot;kulden&quot;!</tspan></text>
    <text
       xml:space="preserve"
       style="font-style:normal;font-variant:normal;font-weight:normal;font-stretch:normal;font-size:12.80000019px;line-height:0%;font-family:Lavi;-inkscape-font-specification:Lavi;text-align:center;letter-spacing:0px;word-spacing:0px;text-anchor:middle;fill:#000000;fill-opacity:1;stroke:none;stroke-width:1.06666672"
       x="589.32733"
       y="2478.9661"
       id="text4246-7-6-4-6-4-5"><tspan
         sodipodi:role="line"
         style="font-size:48px;line-height:1.25;stroke-width:1.06666672"
         x="589.32733"
         y="2478.9661"
         id="tspan4221-0-2-9">Sikke en</tspan><tspan
         sodipodi:role="line"
         style="font-size:48px;line-height:1.25;stroke-width:1.06666672"
         x="589.32733"
         y="2538.9661"
         id="tspan4284">flok bangebukse!</tspan></text>
    <text
       xml:space="preserve"
       style="font-style:normal;font-variant:normal;font-weight:normal;font-stretch:normal;font-size:12.80000019px;line-height:0%;font-family:Lavi;-inkscape-font-specification:Lavi;text-align:center;letter-spacing:0px;word-spacing:0px;text-anchor:middle;fill:#000000;fill-opacity:1;stroke:none;stroke-width:1.06666672"
       x="2159.5427"
       y="3406.7939"
       id="text4246-7-6-4-6-4-5-2"><tspan
         sodipodi:role="line"
         style="font-size:48px;line-height:1.25;stroke-width:1.06666672"
         x="2159.5427"
         y="3406.7939"
         id="tspan867">En god tang, noget</tspan><tspan
         sodipodi:role="line"
         style="font-size:48px;line-height:1.25;stroke-width:1.06666672"
         x="2159.5427"
         y="3466.7939"
         id="tspan56">beskyttelsesudstyr og så er</tspan><tspan
         sodipodi:role="line"
         style="font-size:48px;line-height:1.25;stroke-width:1.06666672"
         x="2159.5427"
         y="3526.7939"
         id="tspan869">dragertænderne vores!</tspan></text>
    <text
       xml:space="preserve"
       style="font-style:normal;font-variant:normal;font-weight:normal;font-stretch:normal;font-size:12.80000019px;line-height:0%;font-family:Lavi;-inkscape-font-specification:Lavi;text-align:center;letter-spacing:0px;word-spacing:0px;text-anchor:middle;fill:#000000;fill-opacity:1;stroke:#000000;stroke-width:1.38666666;stroke-miterlimit:4;stroke-dasharray:none;stroke-opacity:1"
       x="763.86005"
       y="1587.6213"
       id="text4246-7-6-4-0"><tspan
         sodipodi:role="line"
         style="font-size:64.83318329px;line-height:1.25;stroke:#000000;stroke-width:1.38666666;stroke-miterlimit:4;stroke-dasharray:none;stroke-opacity:1"
         x="763.86005"
         y="1587.6213"
         id="tspan4208">Pepper</tspan><tspan
         sodipodi:role="line"
         style="font-size:64.83318329px;line-height:1.25;stroke:#000000;stroke-width:1.38666666;stroke-miterlimit:4;stroke-dasharray:none;stroke-opacity:1"
         x="763.86005"
         y="1668.6628"
         id="tspan4212">vent!</tspan></text>
    <text
       xml:space="preserve"
       style="font-style:normal;font-weight:normal;font-size:40px;line-height:1.25;font-family:sans-serif;letter-spacing:0px;word-spacing:0px;fill:#000000;fill-opacity:1;stroke:none"
       x="1354.3478"
       y="249.57709"
       id="text59"><tspan
         sodipodi:role="line"
         id="tspan57"
         x="1354.3478"
         y="284.96771" /></text>
    <text
       xml:space="preserve"
       style="font-style:normal;font-variant:normal;font-weight:normal;font-stretch:normal;font-size:12.80000019px;line-height:0%;font-family:Lavi;-inkscape-font-specification:Lavi;text-align:center;letter-spacing:0px;word-spacing:0px;text-anchor:middle;fill:#000000;fill-opacity:1;stroke:none;stroke-width:1.06666672"
       x="620.49457"
       y="177.95453"
       id="text4246"><tspan
         sodipodi:role="line"
         style="font-style:normal;font-variant:normal;font-weight:normal;font-stretch:normal;font-size:48px;line-height:1.25;font-family:Lavi;-inkscape-font-specification:Lavi;stroke-width:1.06666672"
         x="620.49457"
         y="177.95453"
         id="tspan4144">Cayenne! Timian! Kan i gå ud</tspan><tspan
         sodipodi:role="line"
         style="font-style:normal;font-variant:normal;font-weight:normal;font-stretch:normal;font-size:48px;line-height:1.25;font-family:Lavi;-inkscape-font-specification:Lavi;stroke-width:1.06666672"
         x="620.49457"
         y="237.95453"
         id="tspan55">at hente noget dragetand?</tspan></text>
  </g>
</svg>
