<?xml version="1.0" encoding="UTF-8" standalone="no"?>
<!-- Created with Inkscape (http://www.inkscape.org/) -->

<svg
   xmlns:dc="http://purl.org/dc/elements/1.1/"
   xmlns:cc="http://creativecommons.org/ns#"
   xmlns:rdf="http://www.w3.org/1999/02/22-rdf-syntax-ns#"
   xmlns:svg="http://www.w3.org/2000/svg"
   xmlns="http://www.w3.org/2000/svg"
   xmlns:xlink="http://www.w3.org/1999/xlink"
   xmlns:sodipodi="http://sodipodi.sourceforge.net/DTD/sodipodi-0.dtd"
   xmlns:inkscape="http://www.inkscape.org/namespaces/inkscape"
   id="svg2"
   version="1.1"
   inkscape:version="0.91 r13725"
   width="2481"
   height="3503"
   sodipodi:docname="Pepper-and-Carrot_by-David-Revoy_E14P04.svg">
  <metadata
     id="metadata8">
    <rdf:RDF>
      <cc:Work
         rdf:about="">
        <dc:format>image/svg+xml</dc:format>
        <dc:type
           rdf:resource="http://purl.org/dc/dcmitype/StillImage" />
        <dc:title />
      </cc:Work>
    </rdf:RDF>
  </metadata>
  <defs
     id="defs6" />
  <sodipodi:namedview
     pagecolor="#ffffff"
     bordercolor="#666666"
     borderopacity="1"
     objecttolerance="10"
     gridtolerance="10"
     guidetolerance="10"
     inkscape:pageopacity="0"
     inkscape:pageshadow="2"
     inkscape:window-width="1920"
     inkscape:window-height="1137"
     id="namedview4"
     showgrid="false"
     inkscape:zoom="0.49190039"
     inkscape:cx="1662.0088"
     inkscape:cy="905.20459"
     inkscape:window-x="-8"
     inkscape:window-y="-8"
     inkscape:window-maximized="1"
     inkscape:current-layer="layer1"
     showguides="false" />
  <g
     inkscape:groupmode="layer"
     id="layer2"
     inkscape:label="artwork"
     sodipodi:insensitive="true">
    <image
       sodipodi:absref="C:\Users\Alexandre\GitHub\peppercarrot_ep14_translation\pt\..\gfx_Pepper-and-Carrot_by-David-Revoy_E14P04.png"
       xlink:href="../gfx_Pepper-and-Carrot_by-David-Revoy_E14P04.png"
       y="0"
       x="0"
       id="image10"
       height="3503"
       width="2481" />
  </g>
  <g
     inkscape:groupmode="layer"
     id="layer3"
     inkscape:label="speechbubbles">
    <path
       style="color:#000000;display:inline;overflow:visible;visibility:visible;fill:#ffffff;fill-opacity:1;fill-rule:nonzero;stroke:none;stroke-width:1px;marker:none;enable-background:accumulate"
       d="m 1624.3083,358.98599 c 10.5479,-20.326 55.0295,-17.6728 70.7719,-11.75341 -29.8179,-26.89811 -26.7953,-41.4565 18.0836,-39.27815 -69.3273,-50.03545 -9.0474,-37.4874 4.3862,-47.07518 -56.8344,-20.53598 -28.2304,-36.16477 -15.4523,-53.29185 -67.4031,-7.3692 -41.5914,-34.29072 -41.467,-57.77429 -7.1139,10.31432 -38.5335,40.73998 -35.4467,3.67491 -49.1411,30.74469 -105.8142,48.1124 -102.199,-13.92516 -21.9509,29.19715 -41.5578,40.50459 -35.4468,3.67491 -50.7129,43.62724 -88.5417,22.31788 -127.0835,4.70221 -12.4366,13.45458 -16.5223,35.62602 -50.081,26.98031 2.9584,14.86369 -9.8635,23.59611 -36.7135,26.85913 33.569,12.15538 38.8137,21.7567 -26.8152,24.96534 48.8812,5.83063 94.3299,12.30915 32.6325,39.45537 17.9337,2.5986 64.2375,-20.57052 34.0078,57.75726 34.3039,-22.61401 69.2086,-33.499 103.8116,24.51255 23.0815,-24.94651 58.8471,-34.85784 69.3644,0.23525 7.1597,-13.79701 29.934,-16.97865 48.7659,-15.75827 6.5216,6.41655 13.0098,14.89498 19.5168,25.80383 15.4752,-19.99328 36.3912,-32.44989 69.3643,0.23524 z"
       id="path3549-3-7"
       inkscape:connector-curvature="0"
       sodipodi:nodetypes="cccccccccccccccccccc" />
    <path
       style="fill:#ffffff;fill-rule:evenodd;stroke:none;stroke-width:1px;stroke-linecap:butt;stroke-linejoin:miter;stroke-opacity:1"
       d="m 1508.6164,333.23881 c -15.3152,-2.75755 -29.2942,5.52359 -42.1829,12.07893 -8.2999,3.93838 -17.2007,7.60882 -22.8974,14.87533 -5.6251,5.73841 -7.5735,15.9276 -0.2658,21.24242 5.2004,2.76075 12.724,7.97375 7.839,14.25838 -2.8138,5.32331 -10.4066,7.01313 -11.6472,13.1085 -3.0261,8.49796 4.5095,16.17783 12.2891,19.25645 5.7655,2.03439 11.0919,2.80096 11.8596,9.29875 5.8761,9.76609 18.8133,11.34577 29.558,12.19411 9.2239,0.44992 18.5328,1.81986 27.6625,-0.24661 10.2363,-1.707 22.5885,-4.58685 31.0346,2.99641 14.8586,8.48643 32.8244,10.30023 49.8811,11.07215 8.5829,0.0565 17.2602,0.95629 25.7889,0.12757 18.0132,-2.8175 36.4342,-3.75591 54.5921,-1.71264 18.9401,-0.095 32.6432,-16.69364 51.6866,-16.25915 15.6838,-3.33988 33.1081,-6.59382 44.206,-18.5539 4.8379,-4.36517 4.512,-11.66902 10.6928,-14.45037 4.7395,-6.16102 -1.8469,-14.45989 -8.6486,-15.99606 -6.5873,-0.32119 5.8595,-2.213 7.1975,-5.01905 6.8047,-4.59011 11.6663,-14.65891 5.2166,-21.34731 -14.5154,-12.80871 -36.5518,-13.59931 -51.1438,-26.36988 -12.148,-5.50852 -25.0631,1.08434 -37.383,2.33379 -6.0699,-1.26427 -8.6596,-10.50793 -16.2784,-11.5648 -9.7782,-3.81615 -20.5731,-3.95541 -30.9917,-4.03777 -10.0959,6.39721 -22.905,3.94985 -33.5658,0.29467 -9.3038,-3.10334 -19.2273,-5.53554 -29.1108,-3.50688 -7.2854,0.53179 -15.5709,3.98461 -22.3974,1.19596 -9.6036,-7.44542 -22.752,-3.72347 -34.0568,-4.54728 -7.7689,-2.01053 -14.8655,2.57428 -21.7164,5.36572 -2.7392,1.11665 -11.3006,5.89786 -2.083,3.91252"
       id="path4220"
       inkscape:connector-curvature="0" />
    <path
       style="color:#000000;display:inline;overflow:visible;visibility:visible;fill:#ffffff;fill-opacity:1;fill-rule:nonzero;stroke:none;stroke-width:1px;marker:none;enable-background:accumulate"
       d="m 1280.8534,546.00632 c 21.2486,-41.3416 65.9441,-76.10613 124.561,-90.19986 58.617,-14.09373 167.0584,-10.33545 186.109,-5.63747 19.0504,4.69787 123.8282,21.61029 146.5422,45.09987 22.7142,23.48959 53.4881,52.61665 60.0825,82.68319 6.5945,30.06666 0.7327,102.41451 -20.5159,118.38743 -21.2487,15.97293 -117.9667,50.73746 -174.3856,52.61654 -56.4188,1.87919 -187.5742,-13.15414 -224.9425,-23.48948 -37.3683,-10.33545 -76.9348,-23.48959 -88.6581,-56.37492 -11.7235,-32.88545 -33.7048,-76.10624 -8.7926,-123.0853 z"
       id="path3533"
       inkscape:connector-curvature="0" />
    <path
       style="color:#000000;display:inline;overflow:visible;visibility:visible;fill:#ffffff;fill-opacity:1;fill-rule:nonzero;stroke:none;stroke-width:1px;marker:none;filter:url(#filter4386);enable-background:accumulate"
       d="m 1678.4528,528.49189 c 30.5923,52.37324 -103.4044,94.84893 -110.4621,125.45674 -2.3684,10.27079 -5.582,32.22619 0.4801,42.42915 10.2279,17.21496 39.4486,19.14791 -24.0871,109.8658 -15.4603,19.92013 12.0481,56.95066 47.151,66.90119 28.0513,17.10155 -7.3932,123.12378 -37.4741,172.62433 43.7979,-42.6678 77.2922,-149.02168 64.215,-140.15631 4.5835,-35.53698 -13.701,-44.07469 -23.5467,-53.21369 -9.8457,-9.13907 -29.5569,-14.98259 -28.3948,-30.06869 1.1623,-15.08705 39.8018,-58.24357 44.8599,-85.55656 5.0578,-27.31218 -22.1531,-43.05915 -16.0064,-68.06815 6.1465,-25.00909 83.9624,-57.20023 102.0984,-79.91604 20.9522,-23.39323 25.1007,-60.90229 25.1007,-60.90229 z"
       id="path3153"
       inkscape:connector-curvature="0"
       sodipodi:nodetypes="cssccccscssccc" />
    <path
       style="color:#000000;display:inline;overflow:visible;visibility:visible;fill:#ffffff;fill-opacity:1;fill-rule:nonzero;stroke:none;stroke-width:1px;marker:none;enable-background:accumulate"
       d="m 1468.0466,926.34512 c 0.7421,-48.54939 15.1995,-94.46231 143.3615,-92.87344 96.0964,1.19134 121.6874,38.59757 123.8165,87.67122 1.5005,34.58313 -50.4883,66.59398 -133.0517,64.89829 -78.9147,-1.62074 -128.3552,-22.67233 -134.1263,-59.69607 z"
       id="path5026"
       inkscape:connector-curvature="0"
       sodipodi:nodetypes="csssc" />
    <path
       style="color:#000000;display:inline;overflow:visible;visibility:visible;fill:#ffffff;fill-opacity:1;fill-rule:nonzero;stroke:none;stroke-width:1px;marker:none;enable-background:accumulate"
       d="m 202.08269,1924.4114 c 10.52893,-47.2323 32.48033,-96.5528 232.91894,-86.9265 200.43863,9.6263 245.11196,52.3112 245.58912,101.3399 0.62503,64.2246 -51.73571,74.3908 -81.1353,82.1087 -29.39946,7.7179 -98.20547,15.9385 -147.67628,17.9745 -26.59939,1.0949 -187.80969,-7.5047 -217.96914,-32.2803 -30.05191,-24.6873 -34.58782,-48.2268 -31.72734,-82.2163 z"
       id="path3365"
       inkscape:connector-curvature="0"
       sodipodi:nodetypes="csssssc" />
    <path
       style="fill:#ffffff;stroke:none"
       d="m 822.15272,2218.8389 c -8.72758,85.5065 -132.14228,98.7311 -189.1148,101.2582 -56.97246,2.5271 -208.49774,13.5551 -259.83324,-57.9686 -51.33552,-71.5236 -28.78782,-104.3326 4.59766,-139.1863 28.46993,-29.7221 95.40268,-44.1015 153.99263,-51.1407 72.75112,-8.7405 193.53448,11.5765 243.97646,48.1556 26.90014,19.507 55.10893,13.3754 46.38129,98.8818 z"
       id="path3100"
       inkscape:connector-curvature="0"
       sodipodi:nodetypes="zsssssz" />
    <path
       style="fill:#ffffff;fill-rule:evenodd;stroke:none;stroke-width:1px;stroke-linecap:butt;stroke-linejoin:miter;stroke-opacity:1"
       d="m 534.12829,1990.1588 c 25.7289,58.6047 40.02273,101.4862 22.87013,151.5146 -17.15259,50.0284 1.42939,104.345 -12.86445,141.509 -14.29383,37.1639 -38.54491,47.2584 -11.43506,107.2037 19.79941,43.7805 -85.08462,39.3605 -44.31895,127.2554 -63.78914,-78.8501 40.07923,-99.8873 25.7289,-127.2151 -28.88282,-55.0024 -7.13885,-80.0858 2.86684,-105.8147 10.00568,-25.7289 -6.87995,-119.2204 10.00568,-151.5146 18.13588,-34.6853 -17.29178,-107.4567 -22.87013,-131.5032 -7.17205,-30.9164 30.01704,-11.4351 30.01704,-11.4351 z"
       id="path4313"
       inkscape:connector-curvature="0"
       sodipodi:nodetypes="cssscssssc" />
  </g>
  <g
     inkscape:groupmode="layer"
     id="layer1"
     inkscape:label="txt">
    <text
       xml:space="preserve"
       style="font-size:18.10567665px;font-style:normal;font-variant:normal;font-weight:normal;font-stretch:normal;text-align:center;line-height:125%;letter-spacing:0px;word-spacing:0px;text-anchor:middle;fill:#000000;fill-opacity:1;stroke:none;font-family:Lavi;-inkscape-font-specification:Lavi"
       x="1503.0696"
       y="262.59164"
       id="text4246"
       sodipodi:linespacing="125%"><tspan
         sodipodi:role="line"
         style="font-size:67.89629364px"
         x="1503.0696"
         y="262.59164"
         id="tspan4252">Carrot! ...</tspan></text>
    <text
       xml:space="preserve"
       style="font-style:normal;font-variant:normal;font-weight:normal;font-stretch:normal;font-size:12px;line-height:125%;font-family:Lavi;-inkscape-font-specification:Lavi;text-align:center;letter-spacing:0px;word-spacing:0px;text-anchor:middle;fill:#000000;fill-opacity:1;stroke:none"
       x="1625.382"
       y="408.19888"
       id="text4246-1"
       sodipodi:linespacing="125%"><tspan
         sodipodi:role="line"
         style="font-size:45px"
         x="1625.382"
         y="408.19888"
         id="tspan4252-8">Volta aqui ...</tspan></text>
    <text
       xml:space="preserve"
       style="font-style:normal;font-variant:normal;font-weight:normal;font-stretch:normal;font-size:12px;line-height:125%;font-family:Lavi;-inkscape-font-specification:Lavi;text-align:center;letter-spacing:0px;word-spacing:0px;text-anchor:middle;fill:#000000;fill-opacity:1;stroke:none"
       x="1538.5493"
       y="559.84924"
       id="text4246-1-3"
       sodipodi:linespacing="125%"><tspan
         sodipodi:role="line"
         style="font-size:45px"
         x="1538.5493"
         y="559.84924"
         id="tspan4174">... Dragões do Pântano</tspan><tspan
         sodipodi:role="line"
         style="font-size:45px"
         x="1538.5493"
         y="616.09924"
         id="tspan3510">são famosos por</tspan><tspan
         sodipodi:role="line"
         style="font-size:45px"
         x="1538.5493"
         y="672.34924"
         id="tspan3605">serem dóceis!</tspan></text>
    <text
       xml:space="preserve"
       style="font-style:normal;font-variant:normal;font-weight:normal;font-stretch:normal;font-size:9.4791708px;line-height:125%;font-family:Lavi;-inkscape-font-specification:Lavi;text-align:center;letter-spacing:0px;word-spacing:0px;text-anchor:middle;fill:#000000;fill-opacity:1;stroke:none"
       x="1607.5629"
       y="896.56146"
       id="text4246-1-3-6"
       sodipodi:linespacing="125%"><tspan
         sodipodi:role="line"
         style="font-size:35.54689407px"
         x="1607.5629"
         y="896.56146"
         id="tspan3609">Ou pelo menos</tspan><tspan
         sodipodi:role="line"
         style="font-size:35.54689407px"
         x="1607.5629"
         y="940.99506"
         id="tspan3613">eu pensava...</tspan></text>
    <text
       xml:space="preserve"
       style="font-style:normal;font-variant:normal;font-weight:normal;font-stretch:normal;font-size:12px;line-height:125%;font-family:Lavi;-inkscape-font-specification:Lavi;text-align:center;letter-spacing:0px;word-spacing:0px;text-anchor:middle;fill:#000000;fill-opacity:1;stroke:none"
       x="447.2666"
       y="1921.0948"
       id="text4246-10"
       sodipodi:linespacing="125%"><tspan
         sodipodi:role="line"
         style="font-size:45px"
         x="447.2666"
         y="1921.0948"
         id="tspan4262">Hmm... Já o</tspan><tspan
         sodipodi:role="line"
         style="font-size:45px"
         x="447.2666"
         y="1977.3448"
         id="tspan3514">Dragão de Choque...</tspan></text>
    <text
       xml:space="preserve"
       style="font-style:normal;font-variant:normal;font-weight:normal;font-stretch:normal;font-size:12px;line-height:125%;font-family:Lavi;-inkscape-font-specification:Lavi;text-align:center;letter-spacing:0px;word-spacing:0px;text-anchor:middle;fill:#000000;fill-opacity:1;stroke:none"
       x="581.8111"
       y="2145.9912"
       id="text4246-10-5"
       sodipodi:linespacing="125%"><tspan
         sodipodi:role="line"
         style="font-size:45px"
         x="581.8111"
         y="2145.9912"
         id="tspan3531">... eu não acho</tspan><tspan
         sodipodi:role="line"
         style="font-size:45px"
         x="581.8111"
         y="2202.2412"
         id="tspan3620">que esta seja a</tspan><tspan
         sodipodi:role="line"
         style="font-size:45px"
         x="581.8111"
         y="2258.4912"
         id="tspan3622">ferramenta certa...</tspan></text>
  </g>
</svg>
