<?xml version="1.0" encoding="UTF-8" standalone="no"?>
<!-- Created with Inkscape (http://www.inkscape.org/) -->

<svg
   xmlns:dc="http://purl.org/dc/elements/1.1/"
   xmlns:cc="http://creativecommons.org/ns#"
   xmlns:rdf="http://www.w3.org/1999/02/22-rdf-syntax-ns#"
   xmlns:svg="http://www.w3.org/2000/svg"
   xmlns="http://www.w3.org/2000/svg"
   xmlns:xlink="http://www.w3.org/1999/xlink"
   xmlns:sodipodi="http://sodipodi.sourceforge.net/DTD/sodipodi-0.dtd"
   xmlns:inkscape="http://www.inkscape.org/namespaces/inkscape"
   id="svg2"
   version="1.1"
   inkscape:version="0.48.4 r9939"
   width="2481"
   height="3503"
   sodipodi:docname="Pepper-and-Carrot_by-David-Revoy_E14P05.svg">
  <metadata
     id="metadata8">
    <rdf:RDF>
      <cc:Work
         rdf:about="">
        <dc:format>image/svg+xml</dc:format>
        <dc:type
           rdf:resource="http://purl.org/dc/dcmitype/StillImage" />
        <dc:title />
      </cc:Work>
    </rdf:RDF>
  </metadata>
  <defs
     id="defs6">
    <linearGradient
       inkscape:collect="always"
       id="linearGradient4232">
      <stop
         style="stop-color:#2b0000;stop-opacity:1"
         offset="0"
         id="stop4234" />
      <stop
         style="stop-color:#800000;stop-opacity:1"
         offset="1"
         id="stop4236" />
    </linearGradient>
    <filter
       style="color-interpolation-filters:sRGB"
       id="filter5561-7"
       inkscape:label="Roughen">
      <feFlood
         id="feFlood5563-4"
         flood-opacity="1"
         flood-color="rgb(196,140,139)"
         result="flood" />
      <feComposite
         id="feComposite5565-6"
         in2="SourceGraphic"
         in="flood"
         operator="in"
         result="composite1" />
      <feMorphology
         id="feMorphology5567-3"
         operator="dilate"
         radius="2"
         result="result3" />
      <feComposite
         id="feComposite5569-6"
         in2="result3"
         in="SourceGraphic"
         operator="over"
         result="fbSourceGraphic"
         radius="3.3999999999999999" />
      <feColorMatrix
         result="fbSourceGraphicAlpha"
         in="fbSourceGraphic"
         values="0 0 0 -1 0 0 0 0 -1 0 0 0 0 -1 0 0 0 0 1 0"
         id="feColorMatrix4681" />
      <feTurbulence
         id="feTurbulence4683"
         type="fractalNoise"
         numOctaves="1"
         seed="20"
         baseFrequency="0.0030000000000000001 0.044999999999999998"
         result="turbulence" />
      <feDisplacementMap
         id="feDisplacementMap4685"
         in2="turbulence"
         in="fbSourceGraphic"
         scale="37.8"
         yChannelSelector="G"
         xChannelSelector="R" />
    </filter>
    <linearGradient
       inkscape:collect="always"
       xlink:href="#linearGradient4232"
       id="linearGradient4238-1"
       x1="1956.4867"
       y1="1758.8628"
       x2="1955.2883"
       y2="1705.3795"
       gradientUnits="userSpaceOnUse" />
    <filter
       style="color-interpolation-filters:sRGB"
       id="filter5561-7-0"
       inkscape:label="Roughen">
      <feFlood
         id="feFlood5563-4-4"
         flood-opacity="1"
         flood-color="rgb(196,140,139)"
         result="flood" />
      <feComposite
         id="feComposite5565-6-8"
         in2="SourceGraphic"
         in="flood"
         operator="in"
         result="composite1" />
      <feMorphology
         id="feMorphology5567-3-1"
         operator="dilate"
         radius="2"
         result="result3" />
      <feComposite
         id="feComposite5569-6-9"
         in2="result3"
         in="SourceGraphic"
         operator="over"
         result="fbSourceGraphic"
         radius="3.3999999999999999" />
      <feColorMatrix
         result="fbSourceGraphicAlpha"
         in="fbSourceGraphic"
         values="0 0 0 -1 0 0 0 0 -1 0 0 0 0 -1 0 0 0 0 1 0"
         id="feColorMatrix4681-7" />
      <feTurbulence
         id="feTurbulence4683-1"
         type="fractalNoise"
         numOctaves="1"
         seed="20"
         baseFrequency="0.0030000000000000001 0.044999999999999998"
         result="turbulence" />
      <feDisplacementMap
         id="feDisplacementMap4685-9"
         in2="turbulence"
         in="fbSourceGraphic"
         scale="37.8"
         yChannelSelector="G"
         xChannelSelector="R" />
    </filter>
    <linearGradient
       inkscape:collect="always"
       xlink:href="#linearGradient4232"
       id="linearGradient4328"
       x1="1956.4867"
       y1="1758.8628"
       x2="1955.2883"
       y2="1705.3795"
       gradientUnits="userSpaceOnUse" />
    <linearGradient
       inkscape:collect="always"
       xlink:href="#linearGradient4232"
       id="linearGradient4336"
       x1="1956.4867"
       y1="1758.8628"
       x2="1955.2883"
       y2="1705.3795"
       gradientUnits="userSpaceOnUse" />
    <linearGradient
       inkscape:collect="always"
       xlink:href="#linearGradient4232"
       id="linearGradient4344"
       x1="1956.4867"
       y1="1758.8628"
       x2="1955.2883"
       y2="1705.3795"
       gradientUnits="userSpaceOnUse" />
    <linearGradient
       inkscape:collect="always"
       xlink:href="#linearGradient4232"
       id="linearGradient4352"
       x1="1956.4867"
       y1="1758.8628"
       x2="1955.2883"
       y2="1705.3795"
       gradientUnits="userSpaceOnUse" />
    <filter
       style="color-interpolation-filters:sRGB"
       id="filter5561-7-4"
       inkscape:label="Roughen">
      <feFlood
         id="feFlood5563-4-2"
         flood-opacity="1"
         flood-color="rgb(135,2,0)"
         result="flood" />
      <feComposite
         id="feComposite5565-6-3"
         in2="SourceGraphic"
         in="flood"
         operator="in"
         result="composite1" />
      <feMorphology
         id="feMorphology5567-3-5"
         operator="dilate"
         radius="1.3"
         result="result3"
         scale="33.299999999999997" />
      <feComposite
         id="feComposite5569-6-6"
         in2="result3"
         in="SourceGraphic"
         operator="over"
         result="fbSourceGraphic"
         radius="3.3999999999999999" />
      <feColorMatrix
         result="fbSourceGraphicAlpha"
         in="fbSourceGraphic"
         values="0 0 0 -1 0 0 0 0 -1 0 0 0 0 -1 0 0 0 0 1 0"
         id="feColorMatrix4681-0" />
      <feTurbulence
         id="feTurbulence4683-0"
         type="fractalNoise"
         numOctaves="1"
         seed="311"
         baseFrequency="0.002 0.032999999999999988"
         result="turbulence" />
      <feDisplacementMap
         id="feDisplacementMap4685-7"
         in2="turbulence"
         in="fbSourceGraphic"
         scale="33.292831"
         yChannelSelector="G"
         xChannelSelector="R" />
    </filter>
    <linearGradient
       inkscape:collect="always"
       xlink:href="#linearGradient4232"
       id="linearGradient4210"
       x1="1956.4867"
       y1="1758.8628"
       x2="1955.2883"
       y2="1705.3795"
       gradientUnits="userSpaceOnUse" />
    <linearGradient
       inkscape:collect="always"
       xlink:href="#linearGradient4232"
       id="linearGradient4218"
       x1="1956.4867"
       y1="1758.8628"
       x2="1955.2883"
       y2="1705.3795"
       gradientUnits="userSpaceOnUse" />
    <linearGradient
       inkscape:collect="always"
       xlink:href="#linearGradient4232"
       id="linearGradient4226"
       x1="1956.4867"
       y1="1758.8628"
       x2="1955.2883"
       y2="1705.3795"
       gradientUnits="userSpaceOnUse" />
    <linearGradient
       inkscape:collect="always"
       xlink:href="#linearGradient4232"
       id="linearGradient4234"
       x1="1956.4867"
       y1="1758.8628"
       x2="1955.2883"
       y2="1705.3795"
       gradientUnits="userSpaceOnUse" />
  </defs>
  <sodipodi:namedview
     pagecolor="#ffffff"
     bordercolor="#666666"
     borderopacity="1"
     objecttolerance="10"
     gridtolerance="10"
     guidetolerance="10"
     inkscape:pageopacity="0"
     inkscape:pageshadow="2"
     inkscape:window-width="1366"
     inkscape:window-height="740"
     id="namedview4"
     showgrid="false"
     inkscape:zoom="0.46000001"
     inkscape:cx="1147.0331"
     inkscape:cy="627.67116"
     inkscape:window-x="0"
     inkscape:window-y="0"
     inkscape:window-maximized="1"
     inkscape:current-layer="layer1" />
  <g
     inkscape:groupmode="layer"
     id="layer2"
     inkscape:label="artwork"
     sodipodi:insensitive="true">
    <image
       sodipodi:absref="/home/yann/Bureau/Esperanto/PepperKarot/peppercarrot_ep14_translation-master/eo/../gfx_Pepper-and-Carrot_by-David-Revoy_E14P05.png"
       xlink:href="../gfx_Pepper-and-Carrot_by-David-Revoy_E14P05.png"
       width="2481"
       height="3503"
       id="image10"
       x="0"
       y="0" />
  </g>
  <g
     inkscape:groupmode="layer"
     id="layer3"
     inkscape:label="speechbubbles">
    <path
       style="fill:#ffffff;fill-rule:evenodd;stroke:none;stroke-width:1px;stroke-linecap:butt;stroke-linejoin:miter;stroke-opacity:1"
       d="m 363.71908,254.90407 c 0,-45.11245 -5.63906,-78.94678 22.55622,-82.70615 28.19528,-3.75937 90.22489,-6.5789 105.26237,0 19.73669,-3.75937 60.14992,4.69921 67.66866,9.39842 7.51875,4.69922 16.91717,70.4882 15.03749,86.46552 -1.87969,15.97732 -10.33827,36.65386 -25.37575,39.47339 -15.03749,2.81953 -62.02961,4.69921 -74.24757,5.63905 -12.21795,0.93985 -60.14992,3.75937 -74.24756,-3.75937 -14.09764,-7.51874 -17.85701,-20.67653 -17.85701,-20.67653 0,0 -21.61638,-7.51874 -18.79685,-33.83433 z"
       id="path4440"
       inkscape:connector-curvature="0" />
    <path
       style="fill:#ffffff;fill-rule:evenodd;stroke:none;stroke-width:1px;stroke-linecap:butt;stroke-linejoin:miter;stroke-opacity:1"
       d="m 629.69452,346.06879 c 1.82526,-22.39656 2.21887,-44.71358 47.93198,-69.54835 22.35657,-7.1297 47.49513,-12.40475 92.10457,-4.69921 23.15938,-2.02462 27.58721,5.31653 36.65386,10.33827 27.94169,-2.58584 48.9899,4.01964 69.54835,11.27811 22.62961,-3.2062 30.63327,8.21355 41.35307,16.91716 17.9194,9.05395 24.26541,23.89459 27.25544,40.41323 -1.68016,17.43557 -2.19087,35.33893 -15.97733,47.93198 -15.68324,34.87803 -42.34967,39.55227 -67.66866,47.93197 -20.98905,12.46912 -48.98605,20.03267 -94.9241,15.03748 -81.273,4.10041 -82.18864,-8.54029 -108.0819,-15.97733 -16.46088,-11.2386 -32.46681,-22.75017 -36.65386,-41.35307 -13.4791,-20.90511 -5.41424,-39.85167 8.45858,-58.27024 z"
       id="path4442"
       inkscape:connector-curvature="0"
       sodipodi:nodetypes="ccccccccccccc" />
    <path
       style="color:#000000;display:inline;overflow:visible;visibility:visible;fill:#ffffff;fill-opacity:1;fill-rule:nonzero;stroke:none;stroke-width:1px;marker:none;enable-background:accumulate"
       d="m 1000.82,397.0401 c 16.6624,-20.18866 51.7108,-37.16548 97.6761,-44.04798 45.9652,-6.88251 131.001,-5.0472 145.9397,-2.753 14.9387,2.29416 97.1015,10.55313 114.913,22.02397 17.8117,11.47085 41.9433,25.69469 47.1144,40.37731 5.1712,14.68268 0.5746,50.01285 -16.0878,57.81304 -16.6624,7.80017 -92.505,24.777 -136.7467,25.69463 -44.2415,0.91768 -147.0887,-6.42367 -176.3916,-11.4708 -29.3028,-5.04719 -60.3294,-11.47085 -69.5223,-27.52999 -9.19309,-16.05921 -26.43009,-37.16554 -6.8948,-60.10718 z"
       id="path3533"
       inkscape:connector-curvature="0" />
    <path
       style="fill:#ffffff;fill-rule:evenodd;stroke:none;stroke-width:1px;stroke-linecap:butt;stroke-linejoin:miter;stroke-opacity:1"
       d="m 538.5298,282.1595 c 108.46432,85.46643 201.45864,107.77733 422.76207,131.26148 70.44463,7.47541 458.14913,11.44158 478.07033,12.23835 22.2085,0.88825 103.2041,19.66336 135.2856,37.49051 -29.2751,-29.03069 -97.2656,-42.24132 -118.8317,-47.5327 -61.2168,-15.01995 -418.6614,-9.54779 -500.96632,-15.56754 -40.70969,-2.97749 -260.83615,-55.14213 -294.54908,-70.46092 -37.82328,-17.18649 -126.81478,-74.9138 -126.81478,-74.9138 z"
       id="path4460"
       inkscape:connector-curvature="0"
       sodipodi:nodetypes="csscssscc" />
    <path
       style="fill:#ffffff;fill-opacity:1;stroke:none"
       d="m 485.72469,1165.1675 c 28.17771,7.0151 39.01522,13.5291 33.95759,17.5379 11.56014,2.0043 15.89523,54.1168 5.05763,63.6373 -0.72253,1.0024 -5.78007,4.0088 -3.61257,4.5099 2.16751,0.501 15.17262,-1.0022 17.34012,1.002 2.1675,2.0045 -19.50762,30.5661 -16.61768,31.5684 2.89013,1.0021 69.36054,-18.039 78.75298,-13.5293 9.39255,4.5098 4.33509,16.0346 7.22513,16.5358 2.88986,0.5011 29.62268,-2.5054 33.23525,-2.0044 3.61238,0.5011 10.1148,15.5335 13.72736,16.0346 3.61257,0.5011 20.23023,-6.514 23.12027,-6.013 2.89003,0.5011 1.44488,13.0283 5.05744,13.5292 3.61257,0.5011 19.50762,-10.5226 21.6752,-10.0216 2.16742,0.5011 10.11508,25.5554 13.72755,27.0584 3.61257,1.5033 26.73265,-27.5594 28.90024,-28.0605 2.16741,-0.5012 15.89496,34.0736 18.78508,34.5747 2.89004,0.5011 17.34,-23.551 19.5076,-23.0499 2.1675,0.501 15.89504,14.5315 18.78499,15.5336 2.89003,1.0021 21.6752,-31.0671 24.56515,-31.0671 2.89011,0 27.45517,13.5292 29.62277,16.0345 2.1675,2.5055 4.33491,-13.028 7.22495,-13.028 2.89003,0 36.12519,9.0195 36.8478,8.5185 0.72244,-0.5012 -5.05762,-10.0218 -2.89012,-10.0218 2.16751,0 36.12519,12.5271 37.57034,10.0218 1.44489,-2.5055 73.69544,12.527 78.75294,10.5227 5.0576,-2.0044 -32.51276,-41.0888 -28.90038,-44.0953 3.61257,-3.0066 16.61788,0.501 17.34038,-1.0022 0.7224,-1.5032 -7.94767,-8.0173 -5.78023,-10.0216 2.16773,-2.0043 26.73273,-10.0217 28.90013,-12.527 2.1676,-2.5055 -10.8374,-9.0196 -7.9475,-10.5229 2.8901,-1.5032 45.518,-11.0238 46.2404,-13.5292 0.7225,-2.5054 -21.6751,-14.5313 -18.7851,-18.0389 2.89,-3.5076 10.8376,-5.0108 10.1151,-7.5162 -0.7226,-2.5054 -14.4502,-5.512 -13.7277,-8.0175 0.7226,-2.5053 7.9475,-15.0324 10.115,-17.0366 2.1676,-2.0044 -15.1725,-1.0023 -15.1725,-3.0066 0,-2.0043 1.276,-32.1019 26.9449,-50.3125 -44.8964,12.063 -63.7927,6.2172 -87.63523,2.2086 -23.84281,-4.0088 -14.45009,-29.0627 -18.06257,-30.5661 -3.61256,-1.5032 -30.34529,8.5185 -33.95786,5.0109 -3.61247,-3.5075 -5.05744,-10.0216 -7.94757,-10.0216 -2.88985,0 -19.50761,14.0302 -23.12,13.5292 -3.61256,-0.5011 -37.57024,-22.5487 -42.62787,-23.0498 -5.05745,-0.501 -24.56506,8.5184 -28.90015,9.0195 -4.33501,0.5011 -7.94748,-12.026 -11.56004,-11.0237 -3.61257,1.0019 -26.73266,10.0215 -30.34504,9.0194 -3.61256,-1.0023 -6.5026,-5.0108 -9.3927,-4.0086 -2.88985,1.002 -15.89505,5.0107 -15.89505,5.0107 0,0 -9.39254,-3.0065 -13.72755,-3.0065 -4.335,0 -33.95759,16.5358 -37.57016,17.5379 -3.61255,1.0021 -40.69996,-17.0789 -38.53246,-20.0854 -4.6033,13.1575 -26.84651,21.4306 -31.5505,22.0898 -5.05744,1.5031 -20.23014,-3.0065 -21.67502,-1.5033 -1.44507,1.5033 -5.78007,9.5205 -10.11516,10.0217 -4.33501,0.501 -14.45008,2.5053 -14.45008,2.5053 l 1.44497,3.0065 c 0,0 -30.34512,-8.0173 -33.95769,-11.0238 -3.61247,-3.0064 2.1676,13.0281 4.3351,17.0368 -13.00502,-4.0087 -51.29779,-12.5271 -54.18765,-15.0325 -2.89013,-2.5054 5.05735,9.0195 9.39236,12.5272 -5.77998,-1.5034 -10.8376,-2.0045 -10.8376,-2.0045 l 16.61766,12.026 -5.05762,1.0023 c 0,0 10.8376,5.5119 10.8376,8.0173 0,2.5054 -28.17753,5.5119 -28.17753,5.5119 0,0 11.56004,4.5096 8.67001,7.015 -2.89012,2.5055 -10.11516,4.0088 -10.11516,4.0088 l -1.44488,6.514 z"
       id="path5888"
       inkscape:connector-curvature="0"
       sodipodi:nodetypes="cccsccsscccccccsccscscsccsccccccsccscscssccsccscscccccccsccccccsccccc" />
    <path
       style="color:#000000;display:inline;overflow:visible;visibility:visible;fill:#ffffff;fill-opacity:1;fill-rule:nonzero;stroke:none;stroke-width:1px;marker:none;enable-background:accumulate"
       d="m 1001.5954,1236.5662 c 42.6212,26.8313 96.2172,54.3217 109.5529,59.8583 -0.1257,-15.4 8.674,-28.8272 10.9088,-39.3494 23.8311,12.087 139.6406,63.2512 157.7592,86.2438 -42.1379,-58.18 -134.076,-99.2843 -174.7203,-116.5248 -5.904,13.2622 -7.3093,22.0583 -10.6283,28.9634 -20.7371,-7.757 -81.7976,-45.1678 -81.7976,-45.1678 z"
       id="path5066"
       inkscape:connector-curvature="0"
       sodipodi:nodetypes="cccccccc" />
    <path
       style="color:#000000;display:inline;overflow:visible;visibility:visible;fill:#ffffff;fill-opacity:1;fill-rule:nonzero;stroke:none;stroke-width:1px;marker:none;enable-background:accumulate"
       d="m 635.86075,2911.9919 c -39.55156,-35.0668 -85.65988,-65.0712 -117.59331,-106.0199 l 4.0885,44.3251 c -20.1647,-9.0852 -31.88657,-27.8044 -46.47536,-43.2525 l -2.66904,27.7953 c -47.28802,-21.9682 -76.79877,-57.0987 -114.9018,-85.8672 l -0.23637,48.752 c 42.45277,24.9963 89.04879,43.4727 126.84109,75.803 l 5.77292,-26.9299 c 14.83868,9.5053 29.26651,19.5611 41.85939,32.0767 l 3.81661,-34.3598 z"
       id="path4032"
       inkscape:connector-curvature="0"
       sodipodi:nodetypes="cccccccccccc" />
    <path
       style="fill:#ffffff;fill-rule:evenodd;stroke:none;stroke-width:1px;stroke-linecap:butt;stroke-linejoin:miter;stroke-opacity:1"
       d="m 297.48061,2585.2233 c 10.80907,28.6703 23.83712,40.1434 43.31448,1.6345 15.88805,9.3062 15.78078,38.1623 67.83212,3.269 -29.87463,44.0445 -17.34353,47.6109 0,46.5835 -25.19619,57.0601 -3.70944,48.2148 5.72078,56.3906 -30.87927,34.4658 -26.83314,50.6373 -12.25882,61.2941 -10.41151,20.8792 -17.68526,41.1308 4.08627,55.5733 -17.02673,5.6974 -41.13559,3.1323 -33.50743,37.5937 -27.03627,-21.8029 -45.90514,-15.8367 -62.11133,-0.8173 -13.98253,-19.9805 -25.33708,-45.217 -64.5631,-14.7106 21.72388,-33.8017 13.12891,-50.7597 -4.08627,-62.9286 32.34197,-32.7226 7.09452,-44.1159 -17.9796,-55.5733 45.33089,-3.9346 32.4477,-40.2104 20.43136,-76.0046 21.2249,7.1893 42.525,14.905 53.12154,-52.3043 z"
       id="path4489"
       inkscape:connector-curvature="0"
       sodipodi:nodetypes="cccccccccccccc" />
  </g>
  <g
     inkscape:groupmode="layer"
     id="layer1"
     inkscape:label="txt">
    <text
       xml:space="preserve"
       style="font-size:16.91906166px;font-style:normal;font-variant:normal;font-weight:normal;font-stretch:normal;text-align:center;line-height:125%;letter-spacing:0px;word-spacing:0px;text-anchor:middle;fill:#000000;fill-opacity:1;stroke:none;font-family:Lavi;-inkscape-font-specification:Lavi"
       x="473.69452"
       y="261.18845"
       id="text4246"
       sodipodi:linespacing="125%"><tspan
         sodipodi:role="line"
         style="font-size:63.44648361px"
         x="473.69452"
         y="261.18845"
         id="tspan4252">Nu.</tspan></text>
    <text
       xml:space="preserve"
       style="font-size:12px;font-style:normal;font-variant:normal;font-weight:normal;font-stretch:normal;text-align:center;line-height:125%;letter-spacing:0px;word-spacing:0px;text-anchor:middle;fill:#000000;fill-opacity:1;stroke:none;font-family:Lavi;-inkscape-font-specification:Lavi"
       x="780.05139"
       y="350.61276"
       id="text4246-4"
       sodipodi:linespacing="125%"><tspan
         sodipodi:role="line"
         style="font-size:45px"
         x="780.05139"
         y="350.61276"
         id="tspan4162">Tio estas tro</tspan><tspan
         sodipodi:role="line"
         style="font-size:45px"
         x="780.05139"
         y="406.86276"
         id="tspan3054">malfacila...</tspan></text>
    <text
       xml:space="preserve"
       style="font-size:12px;font-style:normal;font-variant:normal;font-weight:normal;font-stretch:normal;text-align:center;line-height:125%;letter-spacing:0px;word-spacing:0px;text-anchor:middle;fill:#000000;fill-opacity:1;stroke:none;font-family:Lavi;-inkscape-font-specification:Lavi"
       x="1202.3103"
       y="435.224"
       id="text4246-4-9"
       sodipodi:linespacing="125%"><tspan
         sodipodi:role="line"
         style="font-size:45px"
         x="1202.3103"
         y="435.224"
         id="tspan4162-1">... mi rezignas.</tspan></text>
    <text
       xml:space="preserve"
       style="font-size:12px;font-style:normal;font-variant:normal;font-weight:normal;font-stretch:normal;text-align:center;line-height:125%;letter-spacing:0px;word-spacing:0px;text-anchor:middle;fill:#000000;fill-opacity:1;stroke:none;font-family:Lavi;-inkscape-font-specification:Lavi"
       x="779.58319"
       y="1212.4401"
       id="text4246-4-9-8"
       sodipodi:linespacing="125%"><tspan
         sodipodi:role="line"
         style="font-size:45px"
         x="779.58319"
         y="1212.4401"
         id="tspan4205">Ne! Pipro neniam</tspan><tspan
         sodipodi:role="line"
         style="font-size:45px"
         x="779.58319"
         y="1268.6901"
         id="tspan3058">rezignas!</tspan></text>
    <text
       xml:space="preserve"
       style="font-size:14.78443336px;font-style:normal;font-variant:normal;font-weight:normal;font-stretch:normal;text-align:center;line-height:125%;letter-spacing:0px;word-spacing:0px;text-anchor:middle;fill:#000000;fill-opacity:1;stroke:none;font-family:Lavi;-inkscape-font-specification:Lavi"
       x="780.83496"
       y="1158.7135"
       id="text4246-5"
       sodipodi:linespacing="125%"><tspan
         sodipodi:role="line"
         style="font-size:55.44162369px;stroke:#000000;stroke-width:2.18458223;stroke-miterlimit:4;stroke-opacity:1;stroke-dasharray:none"
         x="780.83496"
         y="1158.7135"
         id="tspan4252-1">Ne !</tspan></text>
    <text
       xml:space="preserve"
       style="font-size:12px;font-style:normal;font-variant:normal;font-weight:normal;font-stretch:normal;text-align:center;line-height:125%;letter-spacing:0px;word-spacing:0px;text-anchor:middle;fill:#000000;fill-opacity:1;stroke:none;font-family:Lavi;-inkscape-font-specification:Lavi"
       x="310.95746"
       y="1886.489"
       id="text4246-4-9-8-0"
       sodipodi:linespacing="125%"><tspan
         sodipodi:role="line"
         style="font-size:45px"
         x="310.95746"
         y="1886.489"
         id="tspan4205-3">La morgaŭon</tspan></text>
    <text
       xml:space="preserve"
       style="font-style:normal;font-variant:normal;font-weight:normal;font-stretch:normal;font-size:9.40283489px;line-height:125%;font-family:Lavi;-inkscape-font-specification:Lavi;text-align:center;letter-spacing:0px;word-spacing:0px;text-anchor:middle;fill:#000000;fill-opacity:1;stroke:none"
       x="-376.50845"
       y="2795.0046"
       id="text4246-4-9-8-0-3"
       sodipodi:linespacing="125%"
       transform="matrix(0.9106769,-0.80340828,0.24287987,0.88381324,0,0)"><tspan
         sodipodi:role="line"
         style="font-size:141.04251099px"
         x="-376.50845"
         y="2795.0046"
         id="tspan4205-3-3"><tspan
   style="font-size:121.45326996px"
   id="tspan4438">!</tspan>!</tspan></text>
    <text
       xml:space="preserve"
       style="font-size:160.11950684px;font-style:normal;font-variant:normal;font-weight:normal;font-stretch:normal;line-height:125%;letter-spacing:0.02734961px;word-spacing:0px;opacity:0.7;color:#000000;fill:url(#linearGradient4238-1);fill-opacity:1;fill-rule:nonzero;stroke:#854611;stroke-width:0.07121496;stroke-linecap:butt;stroke-linejoin:miter;stroke-miterlimit:4;stroke-opacity:1;stroke-dasharray:none;stroke-dashoffset:0;marker:none;visibility:visible;display:inline;overflow:visible;filter:url(#filter5561-7-4);enable-background:accumulate;font-family:Arial;-inkscape-font-specification:Arial"
       x="1705.2566"
       y="1742.2045"
       id="text4251"
       sodipodi:linespacing="125%"
       transform="matrix(1.0496631,-0.00680912,-0.72183224,1.8831671,499.77495,-1332.9519)"><tspan
         sodipodi:role="line"
         id="tspan4253"
         x="1705.2566"
         y="1742.2045"
         style="font-style:normal;font-variant:normal;font-weight:normal;font-stretch:normal;fill:url(#linearGradient4238-1);fill-opacity:1;stroke:#854611;stroke-width:0.07121496;stroke-miterlimit:4;stroke-opacity:1;stroke-dasharray:none;font-family:Lavi;-inkscape-font-specification:Lavi"><tspan
           id="tspan4365"
           style="font-size:45.57711792px;fill:url(#linearGradient4238-1);fill-opacity:1;stroke:#854611;stroke-width:0.07121496;stroke-miterlimit:4;stroke-opacity:1;stroke-dasharray:none">KOKERIKO<tspan
   style="font-size:35.7850647px;fill:url(#linearGradient4238-1)"
   id="tspan4245">O</tspan>oooo ! </tspan><tspan
           id="tspan4311"
           style="font-size:55.8440094px;fill:url(#linearGradient4238-1);fill-opacity:1;stroke:#854611;stroke-width:0.07121496;stroke-miterlimit:4;stroke-opacity:1;stroke-dasharray:none">! </tspan><tspan
           id="tspan4369"
           style="font-size:72.51364136px;fill:url(#linearGradient4238-1);fill-opacity:1;stroke:#854611;stroke-width:0.07121496;stroke-miterlimit:4;stroke-opacity:1;stroke-dasharray:none">!</tspan></tspan></text>
  </g>
</svg>
