<?xml version="1.0" encoding="UTF-8" standalone="no"?>
<!-- Created with Inkscape (http://www.inkscape.org/) -->

<svg
   xmlns:dc="http://purl.org/dc/elements/1.1/"
   xmlns:cc="http://creativecommons.org/ns#"
   xmlns:rdf="http://www.w3.org/1999/02/22-rdf-syntax-ns#"
   xmlns:svg="http://www.w3.org/2000/svg"
   xmlns="http://www.w3.org/2000/svg"
   xmlns:xlink="http://www.w3.org/1999/xlink"
   xmlns:sodipodi="http://sodipodi.sourceforge.net/DTD/sodipodi-0.dtd"
   xmlns:inkscape="http://www.inkscape.org/namespaces/inkscape"
   id="svg2"
   version="1.1"
   inkscape:version="0.48.4 r9939"
   width="2481"
   height="3503"
   sodipodi:docname="Pepper-and-Carrot_by-David-Revoy_E14P02.svg">
  <metadata
     id="metadata8">
    <rdf:RDF>
      <cc:Work
         rdf:about="">
        <dc:format>image/svg+xml</dc:format>
        <dc:type
           rdf:resource="http://purl.org/dc/dcmitype/StillImage" />
        <dc:title />
      </cc:Work>
    </rdf:RDF>
  </metadata>
  <defs
     id="defs6" />
  <sodipodi:namedview
     pagecolor="#ffffff"
     bordercolor="#666666"
     borderopacity="1"
     objecttolerance="10"
     gridtolerance="10"
     guidetolerance="10"
     inkscape:pageopacity="0"
     inkscape:pageshadow="2"
     inkscape:window-width="1366"
     inkscape:window-height="740"
     id="namedview4"
     showgrid="false"
     inkscape:zoom="0.46000002"
     inkscape:cx="1278.5179"
     inkscape:cy="2911.3903"
     inkscape:window-x="0"
     inkscape:window-y="0"
     inkscape:window-maximized="1"
     inkscape:current-layer="layer1" />
  <g
     inkscape:groupmode="layer"
     id="layer2"
     inkscape:label="artwork"
     sodipodi:insensitive="true">
    <image
       sodipodi:absref="/home/yann/Bureau/Esperanto/PepperKarot/Rakonto14/peppercarrot_ep14_translation-master/eo/../gfx_Pepper-and-Carrot_by-David-Revoy_E14P02.png"
       xlink:href="../gfx_Pepper-and-Carrot_by-David-Revoy_E14P02.png"
       y="0"
       x="0"
       id="image10"
       height="3503"
       width="2481" />
  </g>
  <g
     inkscape:groupmode="layer"
     id="layer3"
     inkscape:label="speechbubbles">
    <path
       style="fill:#ffffff;fill-rule:evenodd;stroke:none"
       d="m 116.49588,127.45881 c 27.36434,12.89936 68.39854,22.50713 2.82333,57.78545 24.88244,2.27728 55.55417,3.04993 31.05653,18.16113 9.44051,15.40946 -22.37932,30.81891 -45.17315,46.22837 23.84227,-5.39394 48.35717,-14.25604 16.59569,19.36896 17.05999,-0.9556 14.66408,7.84081 -8.12572,26.85939 53.80193,-35.47964 72.54982,-44.36006 74.81803,-16.51012 6.7896,-14.88165 19.99264,-18.76384 11.29328,29.71823 35.17374,-85.11656 5.07674,85.9719 -4.23498,252.60496 17.27774,-76.57225 48.12462,-389.81537 52.23145,-231.1418 27.54243,-114.14721 66.65398,-18.95084 74.81802,-6.60405 -6.85167,-88.86482 43.34333,-51.99848 56.46644,-18.16114 -3.38307,-21.68162 12.71039,-65.35117 60.74446,-12.04319 -11.45298,-19.59135 -3.65844,-39.83608 39.48346,8.74116 -13.0834,-32.39811 11.15302,-41.52374 86.6637,-10.67072 -0.58248,-16.07881 -7.94703,-33.00263 71.44231,-4.18839 -1.48937,-14.76483 -17.67615,-35.11621 90.34629,-8.25506 0.70469,-25.76727 18.10528,-27.31264 48.42119,-15.29963 -5.17902,-22.14291 27.92947,-12.00434 69.89304,2.98534 -26.7268,-30.29968 9.71494,-26.89758 62.37836,-17.40394 -5.1138,-14.67858 -12.42488,-29.75252 18.35161,-37.97331 -31.43578,-35.07169 1.42601,-37.24362 11.29326,-51.18139 -22.13859,2.43999 -39.22074,-10.12077 -13.70292,-28.46983 -44.69215,6.78342 -28.28078,-14.41579 -25.82355,-26.01359 L 826.56129,87.834499 755.97824,79.579435 671.2786,71.32437 l -79.05301,-1.651012 -80.46467,0 -70.58305,3.302026 -60.70141,-8.255065 -62.11307,8.255065 -87.52298,-1.651014 -42.34982,28.067218 z"
       id="path4323"
       inkscape:connector-curvature="0"
       sodipodi:nodetypes="ccccccccccccccccccccccccccccccccccc" />
    <path
       style="fill:#ffffff;stroke:none"
       d="m 797.89026,368.8389 c -1.56327,-29.37566 26.46465,-102.91478 163.18358,-97.38339 136.71906,5.53134 179.50986,37.8436 183.51636,90.05888 6.338,82.60313 -65.5897,104.67751 -168.87141,110.79585 C 869.24656,478.6177 796.23774,421.91606 797.89026,368.8389 z"
       id="path3280"
       inkscape:connector-curvature="0"
       sodipodi:nodetypes="csssc" />
    <path
       style="color:#000000;display:inline;overflow:visible;visibility:visible;fill:#ffffff;fill-opacity:1;fill-rule:nonzero;stroke:none;stroke-width:1px;marker:none;enable-background:accumulate"
       d="m 818.55405,555.85967 c 39.18491,-37.68963 73.342,-77.76882 65.62626,-117.15486 -10.90688,-55.67559 -9.43261,-29.77014 -9.43261,-29.77014 l 41.81204,36.16737 c 4.42223,-1.37242 6.88006,49.17295 -98.00569,110.75763 z"
       id="path3072"
       inkscape:connector-curvature="0"
       sodipodi:nodetypes="csccc" />
    <path
       style="fill:#ffffff;fill-rule:evenodd;stroke:none"
       d="m 1366.3446,373.02704 c 6.7019,-30.55229 24.7493,-53.73323 44.3913,-69.20795 9.3474,-7.47095 20.0318,-12.94586 30.965,-11.50576 10.8616,0.86044 21.4706,5.99789 32.4523,4.21344 13.3533,-0.58935 26.9413,-3.1608 40.1414,0.51355 11.7343,4.00918 23.8242,6.08557 35.9332,6.20599 8.5427,-2.54485 16.3597,4.23787 23.9887,8.29473 6.849,4.38207 13.8446,8.97958 19.5972,15.75792 5.3001,9.5154 11.6461,17.79366 17.008,27.22437 3.5083,5.15569 3.1713,12.27706 3.0097,18.86777 -0.4557,13.49636 -1.2273,27.2058 -4.0914,40.20841 -1.7139,8.25494 -8.0488,10.9868 -12.9165,14.78008 -11.5176,8.00761 -23.7478,14.08004 -34.74,23.50329 -10.89,4.82518 -22.463,2.56821 -33.6314,1.83903 -9.3582,-1.43631 -18.7721,-3.43918 -28.2107,-1.7689 -12.0132,1.22232 -23.9898,4.38722 -36.046,3.98184 -15.103,-2.78183 -29.5677,-9.63137 -44.2038,-15.12588 -13.1312,-4.84289 -25.0993,-13.94951 -36.5829,-23.69126 -6.1342,-5.53198 -12.6279,-11.96214 -14.7928,-22.15692 -1.7745,-7.01999 -2.1928,-14.53671 -2.2713,-21.93375 z"
       id="path4365"
       inkscape:connector-curvature="0" />
    <path
       style="fill:#ffffff;stroke:none"
       d="m 1600.5998,539.46175 c -28.0754,-14.3263 -28.0705,-24.10879 -27.1393,-35.26758 0.931,-11.15875 3.0258,-21.20884 -1.8373,-26.59493 -4.8629,-5.38607 -13.8837,-9.08681 -20.965,-10.93985 -7.0813,-1.85304 -2.5775,-10.15393 -3.484,-17.79341 -0.9066,-7.63954 -20.1711,-44.64576 -20.1711,-44.64576 0,0 -10.2917,29.72026 -10.4833,39.70135 -0.1918,9.98106 -0.313,13.62987 0.7147,17.62055 1.0279,3.99076 5.0156,13.43659 11.7527,17.22018 6.7371,3.78364 14.9313,4.06179 20.6767,5.77151 5.7455,1.70964 6.255,10.50318 7.37,19.09418 1.1149,8.59099 3.3294,14.64819 14.8496,23.66417 9.8749,7.72832 28.7163,12.16959 28.7163,12.16959 z"
       id="path3023"
       inkscape:connector-curvature="0"
       sodipodi:nodetypes="csssscssssssc" />
    <path
       style="fill:#ffffff;fill-rule:evenodd;stroke:none;stroke-width:1px;stroke-linecap:butt;stroke-linejoin:miter;stroke-opacity:1"
       d="m 568.8634,1318.3227 c 104.31326,44.7459 702.5032,155.1743 811.2553,71.8972 58.8149,31.0736 60.5988,42.1012 121.6331,4.8129 89.8869,43.503 111.1049,28.7465 133.2993,20.0459 48.5521,7.5979 70.9469,10.8128 141.1257,39.7648 -74.8014,-20.5225 -93.9086,-23.7561 -138.3472,-25.7747 -64.3635,22.373 -112.0813,-6.2147 -133.1658,-17.4012 -62.5836,39.1667 -64.7247,30.9426 -125.6546,-6.0558 -65.191,62.6405 -404.44384,23.8741 -807.88989,-63.3003 4.43886,-12.4294 -2.25591,-23.9888 -2.25591,-23.9888 z"
       id="path4385"
       inkscape:connector-curvature="0"
       sodipodi:nodetypes="cccccccccc" />
    <path
       style="color:#000000;display:inline;overflow:visible;visibility:visible;fill:#ffffff;fill-opacity:1;fill-rule:nonzero;stroke:none;stroke-width:1px;marker:none;enable-background:accumulate"
       d="m 184.63694,1291.4244 c 16.60013,-24.4048 51.51765,-44.927 97.31111,-53.2468 45.79344,-8.3199 130.51135,-6.1013 145.39429,-3.328 14.8828,2.7733 96.73862,12.757 114.48352,26.6234 17.74503,13.8664 41.78659,31.0607 46.93831,48.8096 5.1519,17.7489 0.57251,60.4574 -16.02766,69.8866 -16.60014,9.4292 -92.15932,29.9512 -136.23559,31.0606 -44.07623,1.1093 -146.53898,-7.7651 -175.73237,-13.8663 -29.19332,-6.1012 -60.10389,-13.8664 -69.26256,-33.2793 -9.15873,-19.413 -26.33127,-44.9271 -6.86905,-72.6598 z"
       id="path3533"
       inkscape:connector-curvature="0" />
    <path
       style="color:#000000;display:inline;overflow:visible;visibility:visible;fill:#ffffff;fill-opacity:1;fill-rule:nonzero;stroke:none;stroke-width:1px;marker:none;enable-background:accumulate"
       d="m 930.7164,1415.9898 c 0.98919,-33.5988 13.78488,-48.879 63.20835,-54.035 50.53245,-5.2715 242.01715,-0.8543 278.81895,13.4829 27.6583,10.7749 34.3593,29.3632 31.1862,51.2876 -2.9097,20.1057 -40.2699,42.0863 -102.4624,46.1473 -62.6412,4.0905 -172.3605,0.1265 -205.98752,-8.464 -33.62695,-8.5902 -62.73031,-21.5849 -64.76358,-48.4188 z"
       id="path3986"
       inkscape:connector-curvature="0"
       sodipodi:nodetypes="csssssc" />
    <path
       style="fill:#ffffff;fill-rule:evenodd;stroke:none"
       d="m 138.34095,2144.4482 c -65.917964,154.3091 417.39699,91.4 458.13136,84.5026 33.26285,-4.209 56.42597,-60.7298 12.91793,-103.2891 -22.95443,-24.8016 -407.05144,-63.2064 -471.04929,18.7865 z"
       id="path4430"
       inkscape:connector-curvature="0"
       sodipodi:nodetypes="cccc" />
    <path
       style="color:#000000;fill:#ffffff;fill-opacity:1;fill-rule:nonzero;stroke:none;stroke-width:1px;marker:none;visibility:visible;display:inline;overflow:visible;enable-background:accumulate"
       d="m 719.1125,2391.2846 c -26.12142,28.7406 -249.27124,62.2448 -328.58194,4.5939 -79.31068,-57.6509 -32.54806,-128.5136 12.24732,-151.4152 44.79527,-22.9017 177.14622,-48.9713 237.92468,-30.5162 60.77858,18.4548 108.29549,46.555 112.11885,105.1997 1.56046,23.9351 -7.58737,43.397 -33.70891,72.1378 z"
       id="path4040"
       inkscape:connector-curvature="0"
       sodipodi:nodetypes="zssssz" />
    <path
       style="fill:#ffffff;stroke:none"
       d="m 850.58897,2578.1488 c -135.30528,-57.9651 -140.63961,-84.7512 -171.13373,-155.0552 -18.47641,-42.5973 -3.2283,-40.031 -3.2283,-40.031 l -49.17497,-11.0642 14.01108,45.466 c 0,0 10.64982,114.0154 209.52592,160.6844 z"
       id="path3063"
       inkscape:connector-curvature="0"
       sodipodi:nodetypes="cscccc" />
    <path
       style="color:#000000;fill:#ffffff;fill-opacity:1;fill-rule:nonzero;stroke:none;stroke-width:1px;marker:none;visibility:visible;display:inline;overflow:visible;enable-background:accumulate"
       d="m 1694.4646,3211.8841 c 20.8321,-32.3407 65.0922,-59.8235 123.4043,-71.3992 58.3121,-11.5755 166.4415,-9.818 185.4713,-6.3727 19.0298,3.445 123.6182,15.4595 146.4585,33.4624 22.8406,18.0027 53.7629,40.2981 60.5904,63.5823 6.8276,23.2843 1.5955,79.5447 -19.4509,92.1797 -21.0464,12.6351 -117.1642,40.6753 -173.3883,42.7393 -56.2242,2.064 -187.0905,-8.2083 -224.4278,-15.8362 -37.3372,-7.6279 -76.8892,-17.4218 -88.8531,-42.8406 -11.9641,-25.419 -34.2409,-58.756 -9.8044,-95.515 z"
       id="path3533-6"
       inkscape:connector-curvature="0" />
    <path
       style="color:#000000;display:inline;overflow:visible;visibility:visible;fill:#ffffff;fill-opacity:1;fill-rule:nonzero;stroke:none;stroke-width:1px;marker:none;enable-background:accumulate"
       d="m 1781.7091,3172.6398 c -48.5523,63.8885 -73.2055,83.2375 -139.8381,44.2545 -66.6324,-38.9831 -56.4924,-73.3908 -56.4924,-73.3908 -11.0082,12.3078 51.196,99.6662 196.3305,29.1363 z"
       id="path5002"
       inkscape:connector-curvature="0"
       sodipodi:nodetypes="cscc" />
    <path
       style="color:#000000;display:inline;overflow:visible;visibility:visible;fill:#ffffff;fill-opacity:1;fill-rule:nonzero;stroke:none;stroke-width:1px;marker:none;enable-background:accumulate"
       d="m 595.85289,1409.954 c -6.86809,22.2136 -45.60512,24.0763 -59.86529,19.561 28.7452,24.85 27.74308,40.2897 -11.28482,42.687 65.45045,44.7862 11.96523,38.009 1.41564,49.3655 51.39071,15.4343 28.39798,34.6427 19.24864,53.7643 59.06856,0.6568 30.6249,12.831 15.05463,39.3748 16.69126,-11.7866 60.69681,-45.7392 57.40177,8.8459 31.81742,-30.3113 67.90109,-44.0496 89.86638,3.8548 15.74211,-32.6147 31.97435,-50.6979 60.3207,-3.2003 -7.74609,-51.1315 43.96255,-36.6815 79.22082,-22.3817 -8.37229,-13.6675 5.79767,-49.1497 40.29898,-33.2327 -23.43633,-22.3492 5.91492,-25.5401 28.75932,-31.7186 -30.35658,-9.1431 -35.9512,-18.574 20.41417,-28.7231 -42.89073,-0.9817 -82.88665,-2.993 -32.56647,-37.6044 -15.78684,-0.8375 -53.24276,28.0432 -35.77933,-56.4768 -27.14636,27.0578 -56.10907,41.9918 -92.43092,-14.6874 -17.18935,28.3158 -47.00388,42.3276 -59.97466,6.9589 -4.66197,15.0783 -23.99298,20.749 -40.40356,21.4367 -6.346,-5.9894 -12.89116,-14.1245 -19.72133,-24.7828 -11.16336,22.3796 -27.86253,37.4938 -59.97467,6.9589 z"
       id="path3549-3-7"
       inkscape:connector-curvature="0"
       sodipodi:nodetypes="cccccccccccccccccccc" />
    <path
       style="color:#000000;display:inline;overflow:visible;visibility:visible;fill:#ffffff;fill-opacity:1;fill-rule:nonzero;stroke:none;stroke-width:1px;marker:none;enable-background:accumulate"
       d="m 548.30505,1489.5343 c -32.71667,-14.168 -100.80088,-25.7605 -117.75539,-27.2872 -20.27048,14.0102 -50.61242,35.3064 -73.20544,50.1722 -5.31176,-1.4012 -91.51271,-47.8708 -99.56707,-45.7537 -8.05422,2.1172 -79.0692,29.9973 -84.37818,37.4927 18.70636,-20.5749 83.14331,-49.601 95.87634,-50.1894 8.58229,-0.7407 80.53436,35.2542 83.66571,38.0832 15.04972,-15.8838 71.20105,-48.2854 79.8175,-52.493 13.26097,0.788 64.22973,3.8642 121.88704,24.3755 57.65735,20.5113 -6.34051,25.5997 -6.34051,25.5997 z"
       id="path5901"
       inkscape:connector-curvature="0"
       sodipodi:nodetypes="ccccccccsc" />
  </g>
  <g
     inkscape:groupmode="layer"
     id="layer1"
     inkscape:label="txt">
    <text
       xml:space="preserve"
       style="font-size:12px;font-style:normal;font-variant:normal;font-weight:normal;font-stretch:normal;text-align:center;line-height:125%;letter-spacing:0px;word-spacing:0px;text-anchor:middle;fill:#000000;fill-opacity:1;stroke:none;font-family:Lavi;-inkscape-font-specification:Lavi"
       x="531.71368"
       y="169.00629"
       id="text4246"
       sodipodi:linespacing="125%"><tspan
         sodipodi:role="line"
         style="font-size:45px;font-style:normal;font-variant:normal;font-weight:normal;font-stretch:normal;font-family:Lavi;-inkscape-font-specification:Lavi"
         x="531.71368"
         y="169.00629"
         id="tspan4144">Kajena! Timiana! Ĉu vi povus</tspan><tspan
         sodipodi:role="line"
         style="font-size:45px;font-style:normal;font-variant:normal;font-weight:normal;font-stretch:normal;font-family:Lavi;-inkscape-font-specification:Lavi"
         x="531.71368"
         y="225.25629"
         id="tspan3030">elserĉi por mi iom da drakodento?</tspan></text>
    <text
       xml:space="preserve"
       style="font-size:12px;font-style:normal;font-variant:normal;font-weight:normal;font-stretch:normal;text-align:center;line-height:125%;letter-spacing:0px;word-spacing:0px;text-anchor:middle;fill:#000000;fill-opacity:1;stroke:none;font-family:Lavi;-inkscape-font-specification:Lavi"
       x="972.88446"
       y="323.04318"
       id="text4246-7"
       sodipodi:linespacing="125%"><tspan
         sodipodi:role="line"
         style="font-size:45px"
         x="972.88446"
         y="323.04318"
         id="tspan4169">En tia</tspan><tspan
         sodipodi:role="line"
         style="font-size:45px"
         x="972.88446"
         y="379.29318"
         id="tspan3037">malvarmo?!</tspan><tspan
         sodipodi:role="line"
         style="font-size:45px"
         x="972.88446"
         y="435.54318"
         id="tspan3035">Ne, dankon!</tspan></text>
    <text
       xml:space="preserve"
       style="font-size:12px;font-style:normal;font-variant:normal;font-weight:normal;font-stretch:normal;text-align:center;line-height:125%;letter-spacing:0px;word-spacing:0px;text-anchor:middle;fill:#000000;fill-opacity:1;stroke:none;font-family:Lavi;-inkscape-font-specification:Lavi"
       x="1500.8748"
       y="361.57327"
       id="text4246-7-6"
       sodipodi:linespacing="125%"><tspan
         sodipodi:role="line"
         style="font-size:45px"
         x="1500.8748"
         y="361.57327"
         id="tspan3028">Jeŝ...</tspan><tspan
         sodipodi:role="line"
         style="font-size:45px"
         x="1500.8748"
         y="417.82327"
         id="tspan4196">Same...</tspan></text>
    <text
       xml:space="preserve"
       style="font-size:12px;font-style:normal;font-variant:normal;font-weight:normal;font-stretch:normal;text-align:center;line-height:125%;letter-spacing:0px;word-spacing:0px;text-anchor:middle;fill:#000000;fill-opacity:1;stroke:none;font-family:Lavi;-inkscape-font-specification:Lavi"
       x="382.04089"
       y="1307.184"
       id="text4246-7-6-4"
       sodipodi:linespacing="125%"><tspan
         sodipodi:role="line"
         style="font-size:45px"
         x="382.04089"
         y="1307.184"
         id="tspan4221">Ne zorgu! Mi</tspan><tspan
         sodipodi:role="line"
         style="font-size:45px"
         x="382.04089"
         y="1363.434"
         id="tspan3041">taskiĝas pri tio!</tspan></text>
    <text
       xml:space="preserve"
       style="font-size:9.86764526px;font-style:normal;font-variant:normal;font-weight:normal;font-stretch:normal;text-align:center;line-height:125%;letter-spacing:0px;word-spacing:0px;text-anchor:middle;fill:#000000;fill-opacity:1;stroke:none;font-family:Lavi;-inkscape-font-specification:Lavi"
       x="1117.7277"
       y="1427.5325"
       id="text4246-7-6-4-6"
       sodipodi:linespacing="125%"><tspan
         sodipodi:role="line"
         style="font-size:40px"
         x="1117.7277"
         y="1427.5325"
         id="tspan4221-0">Mi revenos baldaŭ!</tspan></text>
    <text
       xml:space="preserve"
       style="font-size:12px;font-style:normal;font-variant:normal;font-weight:normal;font-stretch:normal;text-align:center;line-height:125%;letter-spacing:0px;word-spacing:0px;text-anchor:middle;fill:#000000;fill-opacity:1;stroke:none;font-family:Lavi;-inkscape-font-specification:Lavi"
       x="385.31927"
       y="2158.1484"
       id="text4246-7-6-4-6-4"
       sodipodi:linespacing="125%"><tspan
         sodipodi:role="line"
         style="font-size:45px"
         x="385.31927"
         y="2158.1484"
         id="tspan3043">&quot;La malvarmo&quot;,</tspan><tspan
         sodipodi:role="line"
         style="font-size:45px"
         x="385.31927"
         y="2214.3984"
         id="tspan3045">La malvarmo&quot;!</tspan></text>
    <text
       xml:space="preserve"
       style="font-size:12px;font-style:normal;font-variant:normal;font-weight:normal;font-stretch:normal;text-align:center;line-height:125%;letter-spacing:0px;word-spacing:0px;text-anchor:middle;fill:#000000;fill-opacity:1;stroke:none;font-family:Lavi;-inkscape-font-specification:Lavi"
       x="552.49438"
       y="2308.0525"
       id="text4246-7-6-4-6-4-5"
       sodipodi:linespacing="125%"><tspan
         sodipodi:role="line"
         style="font-size:45px"
         x="552.49438"
         y="2308.0525"
         id="tspan4284">Kia gregaĉo da</tspan><tspan
         sodipodi:role="line"
         style="font-size:45px"
         x="552.49438"
         y="2364.3025"
         id="tspan3054">malkuraĝulinoj!</tspan></text>
    <text
       xml:space="preserve"
       style="font-size:12px;font-style:normal;font-variant:normal;font-weight:normal;font-stretch:normal;text-align:center;line-height:125%;letter-spacing:0px;word-spacing:0px;text-anchor:middle;fill:#000000;fill-opacity:1;stroke:none;font-family:Lavi;-inkscape-font-specification:Lavi"
       x="1957.1801"
       y="3204.739"
       id="text4246-7-6-4-6-4-5-2"
       sodipodi:linespacing="125%"><tspan
         sodipodi:role="line"
         style="font-size:45px"
         x="1957.1801"
         y="3204.739"
         id="tspan4321">Neŝerca tenajlo,</tspan><tspan
         sodipodi:role="line"
         style="font-size:45px"
         x="1957.1801"
         y="3260.989"
         id="tspan3036">kelkaj ŝirmiloj, kaj al</tspan><tspan
         sodipodi:role="line"
         style="font-size:45px"
         x="1957.1801"
         y="3317.239"
         id="tspan3038">ni la drakodentoj!</tspan></text>
    <text
       xml:space="preserve"
       style="font-size:16.20829773px;font-style:normal;font-variant:normal;font-weight:normal;font-stretch:normal;text-align:center;line-height:125%;letter-spacing:0px;word-spacing:0px;text-anchor:middle;fill:#000000;fill-opacity:1;stroke:#000000;stroke-width:1.29999995;stroke-miterlimit:4;stroke-opacity:1;stroke-dasharray:none;font-family:Lavi;-inkscape-font-specification:Lavi"
       x="716.11877"
       y="1488.395"
       id="text4246-7-6-4-0"
       sodipodi:linespacing="125%"><tspan
         sodipodi:role="line"
         style="font-size:60.78111267px;stroke:#000000;stroke-width:1.29999995;stroke-miterlimit:4;stroke-opacity:1;stroke-dasharray:none"
         x="716.11877"
         y="1488.395"
         id="tspan4208">Pipro!</tspan><tspan
         sodipodi:role="line"
         style="font-size:60.78111267px;stroke:#000000;stroke-width:1.29999995;stroke-miterlimit:4;stroke-opacity:1;stroke-dasharray:none"
         x="716.11877"
         y="1564.3715"
         id="tspan4212">Atendu!</tspan></text>
  </g>
</svg>
