<?xml version="1.0" encoding="UTF-8" standalone="no"?>
<!-- Created with Inkscape (http://www.inkscape.org/) -->

<svg
   xmlns:dc="http://purl.org/dc/elements/1.1/"
   xmlns:cc="http://creativecommons.org/ns#"
   xmlns:rdf="http://www.w3.org/1999/02/22-rdf-syntax-ns#"
   xmlns:svg="http://www.w3.org/2000/svg"
   xmlns="http://www.w3.org/2000/svg"
   xmlns:xlink="http://www.w3.org/1999/xlink"
   xmlns:sodipodi="http://sodipodi.sourceforge.net/DTD/sodipodi-0.dtd"
   xmlns:inkscape="http://www.inkscape.org/namespaces/inkscape"
   id="svg2"
   version="1.1"
   inkscape:version="0.91 r13725"
   width="2481"
   height="3503"
   sodipodi:docname="Pepper-and-Carrot_by-David-Revoy_E14P05.svg">
  <metadata
     id="metadata8">
    <rdf:RDF>
      <cc:Work
         rdf:about="">
        <dc:format>image/svg+xml</dc:format>
        <dc:type
           rdf:resource="http://purl.org/dc/dcmitype/StillImage" />
        <dc:title />
      </cc:Work>
    </rdf:RDF>
  </metadata>
  <defs
     id="defs6">
    <linearGradient
       inkscape:collect="always"
       xlink:href="#linearGradient4232"
       id="linearGradient4238"
       x1="1956.4867"
       y1="1758.8628"
       x2="1955.2883"
       y2="1705.3795"
       gradientUnits="userSpaceOnUse" />
    <linearGradient
       inkscape:collect="always"
       id="linearGradient4232">
      <stop
         style="stop-color:#2b0000;stop-opacity:1"
         offset="0"
         id="stop4234" />
      <stop
         style="stop-color:#800000;stop-opacity:1"
         offset="1"
         id="stop4236" />
    </linearGradient>
    <filter
       style="color-interpolation-filters:sRGB"
       id="filter5561-7"
       inkscape:label="Roughen">
      <feFlood
         id="feFlood5563-4"
         flood-opacity="1"
         flood-color="rgb(135,2,0)"
         result="flood" />
      <feComposite
         id="feComposite5565-6"
         in2="SourceGraphic"
         in="flood"
         operator="in"
         result="composite1" />
      <feMorphology
         id="feMorphology5567-3"
         operator="dilate"
         radius="1.3"
         result="result3"
         scale="33.299999999999997" />
      <feComposite
         id="feComposite5569-6"
         in2="result3"
         in="SourceGraphic"
         operator="over"
         result="fbSourceGraphic"
         radius="3.3999999999999999" />
      <feColorMatrix
         result="fbSourceGraphicAlpha"
         in="fbSourceGraphic"
         values="0 0 0 -1 0 0 0 0 -1 0 0 0 0 -1 0 0 0 0 1 0"
         id="feColorMatrix4681" />
      <feTurbulence
         id="feTurbulence4683"
         type="fractalNoise"
         numOctaves="1"
         seed="311"
         baseFrequency="0.002 0.032999999999999988"
         result="turbulence" />
      <feDisplacementMap
         id="feDisplacementMap4685"
         in2="turbulence"
         in="fbSourceGraphic"
         scale="33.29283110571081"
         yChannelSelector="G"
         xChannelSelector="R" />
    </filter>
    <linearGradient
       inkscape:collect="always"
       xlink:href="#linearGradient4232"
       id="linearGradient4238-1"
       x1="1956.4867"
       y1="1758.8628"
       x2="1955.2883"
       y2="1705.3795"
       gradientUnits="userSpaceOnUse" />
    <filter
       style="color-interpolation-filters:sRGB"
       id="filter5561-7-0"
       inkscape:label="Roughen">
      <feFlood
         id="feFlood5563-4-4"
         flood-opacity="1"
         flood-color="rgb(196,140,139)"
         result="flood" />
      <feComposite
         id="feComposite5565-6-8"
         in2="SourceGraphic"
         in="flood"
         operator="in"
         result="composite1" />
      <feMorphology
         id="feMorphology5567-3-1"
         operator="dilate"
         radius="2"
         result="result3" />
      <feComposite
         id="feComposite5569-6-9"
         in2="result3"
         in="SourceGraphic"
         operator="over"
         result="fbSourceGraphic"
         radius="3.3999999999999999" />
      <feColorMatrix
         result="fbSourceGraphicAlpha"
         in="fbSourceGraphic"
         values="0 0 0 -1 0 0 0 0 -1 0 0 0 0 -1 0 0 0 0 1 0"
         id="feColorMatrix4681-7" />
      <feTurbulence
         id="feTurbulence4683-1"
         type="fractalNoise"
         numOctaves="1"
         seed="20"
         baseFrequency="0.0030000000000000001 0.044999999999999998"
         result="turbulence" />
      <feDisplacementMap
         id="feDisplacementMap4685-9"
         in2="turbulence"
         in="fbSourceGraphic"
         scale="37.8"
         yChannelSelector="G"
         xChannelSelector="R" />
    </filter>
    <linearGradient
       inkscape:collect="always"
       xlink:href="#linearGradient4232"
       id="linearGradient4328"
       x1="1956.4867"
       y1="1758.8628"
       x2="1955.2883"
       y2="1705.3795"
       gradientUnits="userSpaceOnUse" />
    <linearGradient
       inkscape:collect="always"
       xlink:href="#linearGradient4232"
       id="linearGradient4336"
       x1="1956.4867"
       y1="1758.8628"
       x2="1955.2883"
       y2="1705.3795"
       gradientUnits="userSpaceOnUse" />
    <linearGradient
       inkscape:collect="always"
       xlink:href="#linearGradient4232"
       id="linearGradient4344"
       x1="1956.4867"
       y1="1758.8628"
       x2="1955.2883"
       y2="1705.3795"
       gradientUnits="userSpaceOnUse" />
    <linearGradient
       inkscape:collect="always"
       xlink:href="#linearGradient4232"
       id="linearGradient4352"
       x1="1956.4867"
       y1="1758.8628"
       x2="1955.2883"
       y2="1705.3795"
       gradientUnits="userSpaceOnUse" />
  </defs>
  <sodipodi:namedview
     pagecolor="#ffffff"
     bordercolor="#666666"
     borderopacity="1"
     objecttolerance="10"
     gridtolerance="10"
     guidetolerance="10"
     inkscape:pageopacity="0"
     inkscape:pageshadow="2"
     inkscape:window-width="1858"
     inkscape:window-height="1057"
     id="namedview4"
     showgrid="false"
     inkscape:zoom="0.46000001"
     inkscape:cx="718.79065"
     inkscape:cy="2764.7835"
     inkscape:window-x="54"
     inkscape:window-y="-8"
     inkscape:window-maximized="1"
     inkscape:current-layer="layer3" />
  <g
     inkscape:groupmode="layer"
     id="layer2"
     inkscape:label="artwork"
     sodipodi:insensitive="true">
    <image
       sodipodi:absref="C:\Users\Rumiko\Desktop\Krita\Pepper&amp;Carrot\peppercarrot_ep14_translation-master\ja\..\gfx_Pepper-and-Carrot_by-David-Revoy_E14P05.png"
       xlink:href="..\gfx_Pepper-and-Carrot_by-David-Revoy_E14P05.png"
       y="0"
       x="0"
       id="image10"
       height="3503"
       width="2481" />
  </g>
  <g
     inkscape:groupmode="layer"
     id="layer3"
     inkscape:label="speechbubbles">
    <path
       style="fill:#ffffff;fill-rule:evenodd;stroke:none;stroke-width:1px;stroke-linecap:butt;stroke-linejoin:miter;stroke-opacity:1"
       d="m 363.71908,254.90407 c 0,-45.11245 -5.63906,-78.94678 22.55622,-82.70615 28.19528,-3.75937 90.22489,-6.5789 105.26237,0 19.73669,-3.75937 60.14992,4.69921 67.66866,9.39842 7.51875,4.69922 16.91717,70.4882 15.03749,86.46552 -1.87969,15.97732 -10.33827,36.65386 -25.37575,39.47339 -15.03749,2.81953 -62.02961,4.69921 -74.24757,5.63905 -12.21795,0.93985 -60.14992,3.75937 -74.24756,-3.75937 -14.09764,-7.51874 -17.85701,-20.67653 -17.85701,-20.67653 0,0 -21.61638,-7.51874 -18.79685,-33.83433 z"
       id="path4440"
       inkscape:connector-curvature="0" />
    <path
       style="fill:#ffffff;fill-rule:evenodd;stroke:none;stroke-width:1px;stroke-linecap:butt;stroke-linejoin:miter;stroke-opacity:1"
       d="m 626.11724,346.06879 c 1.70353,-22.39656 2.07089,-44.71358 44.73536,-69.54835 20.86559,-7.1297 44.32764,-12.40475 85.96205,-4.69921 21.61487,-2.02462 25.7474,5.31653 34.20939,10.33827 26.07824,-2.58584 45.72273,4.01964 64.91013,11.27811 21.12042,-3.2062 28.5903,8.21355 38.5952,16.91716 16.72434,9.05395 22.64713,23.89459 25.43775,40.41323 -1.56811,17.43557 -2.04476,35.33893 -14.91179,47.93198 -14.63731,34.87803 -39.52534,39.55227 -63.15579,47.93197 -19.58927,12.46912 -45.71913,20.03267 -88.59354,15.03748 -75.85285,4.10041 -76.70742,-8.54029 -100.87384,-15.97733 -15.3631,-11.2386 -30.30159,-22.75017 -34.20939,-41.35307 -12.58017,-20.90511 -5.05316,-39.85167 7.89447,-58.27024 z"
       id="path4442"
       inkscape:connector-curvature="0"
       sodipodi:nodetypes="ccccccccccccc" />
    <path
       style="color:#000000;display:inline;overflow:visible;visibility:visible;fill:#ffffff;fill-opacity:1;fill-rule:nonzero;stroke:none;stroke-width:1px;marker:none;enable-background:accumulate"
       d="m 1000.7607,393.25938 c 16.9044,-20.18866 52.4618,-37.16548 99.0944,-44.04798 46.6327,-6.88251 132.9032,-5.0472 148.0589,-2.753 15.1555,2.29416 98.5113,10.55313 116.5816,22.02397 18.0703,11.47085 42.5523,25.69469 47.7985,40.37731 5.2462,14.68268 0.5829,50.01285 -16.3214,57.81304 -16.9044,7.80017 -93.8482,24.777 -138.7325,25.69463 -44.8839,0.91768 -149.2243,-6.42367 -178.9528,-11.4708 -29.7282,-5.04719 -61.2054,-11.47085 -70.5317,-27.52999 -9.32668,-16.05921 -26.81392,-37.16554 -6.995,-60.10718 z"
       id="path3533"
       inkscape:connector-curvature="0" />
    <path
       style="fill:#ffffff;fill-rule:evenodd;stroke:none;stroke-width:1px;stroke-linecap:butt;stroke-linejoin:miter;stroke-opacity:1"
       d="m 532.85872,282.1595 c 108.46432,85.46643 201.45864,107.77733 422.76207,131.26148 70.44461,7.47541 458.14911,11.44158 478.07031,12.23835 22.2085,0.88825 103.2041,19.66336 135.2856,37.49051 -29.2751,-29.03069 -97.2656,-42.24132 -118.8317,-47.5327 -61.2168,-15.01995 -418.6614,-9.54779 -500.9663,-15.56754 -40.70969,-2.97749 -260.83615,-55.14213 -294.54908,-70.46092 -37.82328,-17.18649 -126.81478,-74.9138 -126.81478,-74.9138 z"
       id="path4460"
       inkscape:connector-curvature="0"
       sodipodi:nodetypes="csscssscc" />
    <path
       style="fill:#ffffff;fill-opacity:1;stroke:none"
       d="m 444.42034,1178.2116 c 30.18372,8.0234 41.79277,15.4737 36.37508,20.0587 12.38312,2.2923 17.02683,61.8952 5.41769,72.7841 -0.77397,1.1464 -6.19156,4.585 -3.86975,5.1581 2.32181,0.573 16.25277,-1.1463 18.57458,1.146 2.32181,2.2926 -20.89639,34.9595 -17.80071,36.1058 3.09588,1.1461 74.2984,-20.6318 84.35951,-15.4739 10.06121,5.158 4.64371,18.3393 7.73949,18.9125 3.09559,0.5732 31.73156,-2.8655 35.60131,-2.2925 3.86955,0.5733 10.83489,17.7662 14.70463,18.3395 3.86975,0.573 21.67045,-7.4503 24.76623,-6.8774 3.09578,0.5731 1.54775,14.9009 5.41749,15.4738 3.86975,0.5731 20.89639,-12.0351 23.21829,-11.4621 2.32172,0.5732 10.83518,29.2286 14.70483,30.9476 3.86975,1.7194 28.63578,-31.5206 30.95769,-32.0937 2.32171,-0.5732 17.02654,38.9711 20.12241,39.5442 3.09578,0.5731 18.57446,-26.936 20.89637,-26.3629 2.32181,0.573 17.02663,16.6201 20.12232,17.7663 3.09578,1.1461 23.21829,-35.5325 26.31397,-35.5325 3.09587,0 29.40975,15.4738 31.73166,18.3392 2.32181,2.8656 4.64352,-14.9005 7.7393,-14.9005 3.09578,0 38.69699,10.3158 39.47105,9.7428 0.77387,-0.5732 -5.41768,-11.4622 -3.09587,-11.4622 2.32181,0 38.69699,14.3276 40.24502,11.4622 1.54775,-2.8656 78.94187,14.3276 84.35947,12.0352 5.4176,-2.2925 -34.82739,-46.9946 -30.95784,-50.4332 3.86975,-3.4388 17.80093,0.573 18.57484,-1.1463 0.7739,-1.7192 -8.51345,-9.1697 -6.19171,-11.462 2.322,-2.2923 28.63591,-11.4622 30.95761,-14.3276 2.3219,-2.8656 -11.609,-10.316 -8.5133,-12.0353 3.0958,-1.7193 48.7585,-12.6083 49.5323,-15.4737 0.7739,-2.8656 -23.2182,-16.62 -20.1225,-20.6319 3.0958,-4.0117 11.6092,-5.7309 10.8352,-8.5964 -0.774,-2.8655 -15.4789,-6.3043 -14.7049,-9.1699 0.774,-2.8653 8.5133,-17.193 10.8351,-19.4853 2.3219,-2.2925 -16.2527,-1.1464 -16.2527,-3.4388 0,-2.2923 1.3669,-36.7159 28.8631,-57.544 -48.0926,13.7967 -68.33411,7.1109 -93.87405,2.526 -25.54021,-4.585 -15.47881,-33.2399 -19.34846,-34.9594 -3.86975,-1.7191 -32.50562,9.7429 -36.37537,5.7311 -3.86965,-4.0116 -5.41749,-11.462 -8.51337,-11.462 -3.09558,0 -20.89638,16.0468 -24.76594,15.4738 -3.86974,-0.5731 -40.24492,-25.7897 -45.66261,-26.3628 -5.41749,-0.573 -26.31387,9.7428 -30.95759,10.3159 -4.64362,0.5731 -8.51327,-13.7546 -12.38301,-12.6082 -3.86975,1.146 -28.63579,11.4619 -32.50534,10.3158 -3.86975,-1.1464 -6.96553,-5.731 -10.06138,-4.5848 -3.09559,1.146 -17.02664,5.7309 -17.02664,5.7309 0,0 -10.06121,-3.4386 -14.70483,-3.4386 -4.64362,0 -36.37508,18.9125 -40.24483,20.0587 -3.86974,1.1461 -43.59745,-19.5337 -41.27564,-22.9724 -4.93102,15.0487 -28.75775,24.5109 -33.79662,25.2647 -5.41749,1.7193 -21.67035,-3.4385 -23.2181,-1.7192 -1.54794,1.7192 -6.19156,10.8889 -10.83527,11.4621 -4.64362,0.5732 -15.4788,2.8654 -15.4788,2.8654 l 1.54784,3.4387 c 0,0 -32.50543,-9.1697 -36.37518,-12.6083 -3.86965,-3.4387 2.32191,14.9006 4.64372,19.4855 -13.93086,-4.5849 -54.94975,-14.3276 -58.04534,-17.1931 -3.09588,-2.8655 5.41739,10.3159 10.06101,14.3277 -6.19146,-1.7195 -11.60914,-2.2925 -11.60914,-2.2925 l 17.8007,13.7544 -5.41768,1.1464 c 0,0 11.60914,6.3041 11.60914,9.1697 0,2.8655 -30.18353,6.3041 -30.18353,6.3041 0,0 12.38302,5.1578 9.28724,8.0232 -3.09587,2.8657 -10.83527,4.5851 -10.83527,4.5851 l -1.54774,7.4502 z"
       id="path5888"
       inkscape:connector-curvature="0"
       sodipodi:nodetypes="cccsccsscccccccsccscscsccsccccccsccscscssccsccscscccccccsccccccsccccc" />
    <path
       style="color:#000000;display:inline;overflow:visible;visibility:visible;fill:#ffffff;fill-opacity:1;fill-rule:nonzero;stroke:none;stroke-width:1px;marker:none;enable-background:accumulate"
       d="m 1001.5954,1236.5662 c 42.6212,26.8313 96.2172,54.3217 109.5529,59.8583 -0.1257,-15.4 8.674,-28.8272 10.9088,-39.3494 23.8311,12.087 139.6406,63.2512 157.7592,86.2438 -42.1379,-58.18 -134.076,-99.2843 -174.7203,-116.5248 -5.904,13.2622 -7.3093,22.0583 -10.6283,28.9634 -20.7371,-7.757 -81.7976,-45.1678 -81.7976,-45.1678 z"
       id="path5066"
       inkscape:connector-curvature="0"
       sodipodi:nodetypes="cccccccc" />
    <path
       style="color:#000000;display:inline;overflow:visible;visibility:visible;fill:#ffffff;fill-opacity:1;fill-rule:nonzero;stroke:none;stroke-width:1px;marker:none;enable-background:accumulate"
       d="m 635.86075,2911.9919 c -39.55156,-35.0668 -85.65988,-65.0712 -117.59331,-106.0199 l 4.0885,44.3251 c -20.1647,-9.0852 -31.88657,-27.8044 -46.47536,-43.2525 l -2.66904,27.7953 c -47.28802,-21.9682 -76.79877,-57.0987 -114.9018,-85.8672 l -0.23637,48.752 c 42.45277,24.9963 89.04879,43.4727 126.84109,75.803 l 5.77292,-26.9299 c 14.83868,9.5053 29.26651,19.5611 41.85939,32.0767 l 3.81661,-34.3598 z"
       id="path4032"
       inkscape:connector-curvature="0"
       sodipodi:nodetypes="cccccccccccc" />
    <path
       style="fill:#ffffff;fill-rule:evenodd;stroke:none;stroke-width:1px;stroke-linecap:butt;stroke-linejoin:miter;stroke-opacity:1"
       d="m 297.48061,2585.2233 c 10.80907,28.6703 23.83712,40.1434 43.31448,1.6345 15.88805,9.3062 15.78078,38.1623 67.83212,3.269 -29.87463,44.0445 -17.34353,47.6109 0,46.5835 -25.19619,57.0601 -3.70944,48.2148 5.72078,56.3906 -30.87927,34.4658 -26.83314,50.6373 -12.25882,61.2941 -10.41151,20.8792 -17.68526,41.1308 4.08627,55.5733 -17.02673,5.6974 -41.13559,3.1323 -33.50743,37.5937 -27.03627,-21.8029 -45.90514,-15.8367 -62.11133,-0.8173 -13.98253,-19.9805 -25.33708,-45.217 -64.5631,-14.7106 21.72388,-33.8017 13.12891,-50.7597 -4.08627,-62.9286 32.34197,-32.7226 7.09452,-44.1159 -17.9796,-55.5733 45.33089,-3.9346 32.4477,-40.2104 20.43136,-76.0046 21.2249,7.1893 42.525,14.905 53.12154,-52.3043 z"
       id="path4489"
       inkscape:connector-curvature="0"
       sodipodi:nodetypes="cccccccccccccc" />
  </g>
  <g
     inkscape:groupmode="layer"
     id="layer1"
     inkscape:label="txt">
    <text
       xml:space="preserve"
       style="font-style:normal;font-variant:normal;font-weight:normal;font-stretch:normal;font-size:63.44624996px;line-height:125%;font-family:'Rounded M+ 1c';-inkscape-font-specification:'Rounded M+ 1c, Normal';text-align:center;letter-spacing:0px;word-spacing:0px;text-anchor:middle;fill:#000000;fill-opacity:1;stroke:none;writing-mode:lr;"
       x="473.69452"
       y="261.18845"
       id="text4246"
       sodipodi:linespacing="125%"><tspan
         sodipodi:role="line"
         id="tspan3387">ふぅ</tspan></text>
    <text
       xml:space="preserve"
       style="font-style:normal;font-variant:normal;font-weight:normal;font-stretch:normal;font-size:45px;line-height:125%;font-family:'Rounded M+ 1c';-inkscape-font-specification:'Rounded M+ 1c, Normal';text-align:center;letter-spacing:0px;word-spacing:0px;writing-mode:lr-tb;text-anchor:middle;fill:#000000;fill-opacity:1;stroke:none"
       x="773.52966"
       y="385.39539"
       id="text4246-4"
       sodipodi:linespacing="125%"><tspan
         sodipodi:role="line"
         id="tspan3396"
         x="773.52966"
         y="385.39539">大変すぎる...</tspan></text>
    <text
       xml:space="preserve"
       style="font-size:45px;font-style:normal;font-variant:normal;font-weight:normal;font-stretch:normal;text-align:center;line-height:125%;letter-spacing:0px;word-spacing:0px;text-anchor:middle;fill:#000000;fill-opacity:1;stroke:none;font-family:'Rounded M+ 1c';-inkscape-font-specification:'Rounded M+ 1c, Normal';writing-mode:lr;"
       x="1200.1364"
       y="433.05008"
       id="text4246-4-9"
       sodipodi:linespacing="125%"><tspan
         sodipodi:role="line"
         id="tspan3389">...無理なのかな...</tspan></text>
    <text
       xml:space="preserve"
       style="font-style:normal;font-variant:normal;font-weight:normal;font-stretch:normal;font-size:45px;line-height:125%;font-family:'Rounded M+ 1c';-inkscape-font-specification:'Rounded M+ 1c, Normal';text-align:center;letter-spacing:0px;word-spacing:0px;text-anchor:middle;fill:#000000;fill-opacity:1;stroke:none;writing-mode:lr;"
       x="771.69177"
       y="1211.0106"
       id="text4246-4-9-8"
       sodipodi:linespacing="125%"><tspan
         sodipodi:role="line"
         id="tspan3393">ペッパーはあきらめたり</tspan><tspan
         sodipodi:role="line"
         id="tspan3395">なんかしないんだから !</tspan></text>
    <text
       xml:space="preserve"
       style="font-size:55.4412508px;font-style:normal;font-variant:normal;font-weight:normal;font-stretch:normal;text-align:center;line-height:125%;letter-spacing:0px;word-spacing:0px;text-anchor:middle;fill:#000000;fill-opacity:1;stroke:none;font-family:'Rounded M+ 1c';-inkscape-font-specification:'Rounded M+ 1c, Normal';writing-mode:lr;"
       x="767.7915"
       y="1158.7135"
       id="text4246-5"
       sodipodi:linespacing="125%"><tspan
         sodipodi:role="line"
         id="tspan3391">ダメっ !</tspan></text>
    <text
       xml:space="preserve"
       style="color:#000000;font-style:normal;font-variant:normal;font-weight:normal;font-stretch:normal;font-size:45.57668304px;line-height:125%;font-family:'Rounded M+ 1c';-inkscape-font-specification:'Rounded M+ 1c, Normal';text-align:start;letter-spacing:0.02734961px;word-spacing:0px;writing-mode:lr-tb;text-anchor:start;display:inline;overflow:visible;visibility:visible;opacity:0.7;fill:url(#linearGradient4238);fill-opacity:1;fill-rule:nonzero;stroke:#854611;stroke-width:0.07121496;stroke-linecap:butt;stroke-linejoin:miter;stroke-miterlimit:4;stroke-dasharray:none;stroke-dashoffset:0;stroke-opacity:1;marker:none;filter:url(#filter5561-7);enable-background:accumulate"
       x="1705.2566"
       y="1742.2045"
       id="text4251"
       sodipodi:linespacing="125%"
       transform="matrix(1.0496631,-0.00680912,-0.72183224,1.8831671,532.2727,-1337.8832)"><tspan
         sodipodi:role="line"
         id="tspan3392"
         style="fill:url(#linearGradient4238)"
         x="1705.2566"
         y="1742.2045">コケコッコーッ ! ! !</tspan></text>
    <text
       xml:space="preserve"
       style="font-size:45px;font-style:normal;font-variant:normal;font-weight:normal;font-stretch:normal;text-align:center;line-height:125%;letter-spacing:0px;word-spacing:0px;text-anchor:middle;fill:#000000;fill-opacity:1;stroke:none;font-family:'Rounded M+ 1c';-inkscape-font-specification:'Rounded M+ 1c, Normal';writing-mode:lr;"
       x="310.95746"
       y="1886.489"
       id="text4246-4-9-8-0"
       sodipodi:linespacing="125%"><tspan
         sodipodi:role="line"
         id="tspan3390">翌朝...</tspan></text>
    <text
       xml:space="preserve"
       style="font-style:normal;font-variant:normal;font-weight:normal;font-stretch:normal;font-size:9.40283489px;line-height:125%;font-family:'Rounded M+ 1c';-inkscape-font-specification:'Rounded M+ 1c, Medium';text-align:center;letter-spacing:0px;word-spacing:0px;text-anchor:middle;fill:#000000;fill-opacity:1;stroke:none"
       x="-376.50845"
       y="2795.0046"
       id="text4246-4-9-8-0-3"
       sodipodi:linespacing="125%"
       transform="matrix(0.9106769,-0.80340828,0.24287987,0.88381324,0,0)"><tspan
         sodipodi:role="line"
         style="font-size:141.04251099px"
         x="-376.50845"
         y="2795.0046"
         id="tspan4205-3-3"><tspan
   style="font-size:121.45326996px"
   id="tspan4438">!</tspan>!</tspan></text>
  </g>
</svg>
