<?xml version="1.0" encoding="UTF-8" standalone="no"?>
<!-- Created with Inkscape (http://www.inkscape.org/) -->

<svg
   xmlns:dc="http://purl.org/dc/elements/1.1/"
   xmlns:cc="http://creativecommons.org/ns#"
   xmlns:rdf="http://www.w3.org/1999/02/22-rdf-syntax-ns#"
   xmlns:svg="http://www.w3.org/2000/svg"
   xmlns="http://www.w3.org/2000/svg"
   xmlns:xlink="http://www.w3.org/1999/xlink"
   xmlns:sodipodi="http://sodipodi.sourceforge.net/DTD/sodipodi-0.dtd"
   xmlns:inkscape="http://www.inkscape.org/namespaces/inkscape"
   id="svg2"
   version="1.1"
   inkscape:version="0.91 r13725"
   width="2481"
   height="3503"
   sodipodi:docname="Pepper-and-Carrot_by-David-Revoy_E14P03.svg">
  <metadata
     id="metadata8">
    <rdf:RDF>
      <cc:Work
         rdf:about="">
        <dc:format>image/svg+xml</dc:format>
        <dc:type
           rdf:resource="http://purl.org/dc/dcmitype/StillImage" />
        <dc:title />
      </cc:Work>
    </rdf:RDF>
  </metadata>
  <defs
     id="defs6" />
  <sodipodi:namedview
     pagecolor="#ffffff"
     bordercolor="#666666"
     borderopacity="1"
     objecttolerance="10"
     gridtolerance="10"
     guidetolerance="10"
     inkscape:pageopacity="0"
     inkscape:pageshadow="2"
     inkscape:window-width="1270"
     inkscape:window-height="609"
     id="namedview4"
     showgrid="false"
     inkscape:zoom="0.3478261"
     inkscape:cx="1251.7043"
     inkscape:cy="2940.0559"
     inkscape:window-x="11"
     inkscape:window-y="329"
     inkscape:window-maximized="0"
     inkscape:current-layer="layer1" />
  <g
     inkscape:groupmode="layer"
     id="layer2"
     inkscape:label="artwork"
     sodipodi:insensitive="true">
    <image
       sodipodi:absref="/home/rjq/Arts and Craft/2015/Translation P&amp;C/GIT/peppercarrot_ep14_translation/mx/../gfx_Pepper-and-Carrot_by-David-Revoy_E14P03.png"
       xlink:href="../gfx_Pepper-and-Carrot_by-David-Revoy_E14P03.png"
       y="0"
       x="0"
       id="image10"
       height="3503"
       width="2481" />
  </g>
  <g
     inkscape:groupmode="layer"
     id="layer3"
     inkscape:label="speechbubbles"
     style="display:inline">
    <path
       style="color:#000000;display:inline;overflow:visible;visibility:visible;fill:#ffffff;fill-opacity:1;fill-rule:nonzero;stroke:none;stroke-width:1px;marker:none;enable-background:accumulate"
       d="m 1185.7261,356.51949 c 34.885,-62.04113 103.326,-93.47222 264.4961,-81.65272 103.3479,7.57907 162.667,30.85258 209.3451,66.1549 22.0478,16.67463 41.7895,103.78993 18.2974,170.30208 -23.4921,66.51213 -96.9153,132.62834 -254.3277,114.40365 -157.4122,-18.22484 -157.4824,-20.72611 -180.5184,-36.51617 -43.7659,-29.99924 -92.1776,-170.65055 -57.2925,-232.69174 z"
       id="path4530"
       inkscape:connector-curvature="0"
       sodipodi:nodetypes="zsssssz" />
    <path
       style="color:#000000;display:inline;overflow:visible;visibility:visible;fill:#ffffff;fill-opacity:1;fill-rule:nonzero;stroke:none;stroke-width:1px;marker:none;enable-background:accumulate"
       d="m 1137.6398,170.80031 c -5.2171,18.04469 -34.6427,19.55781 -45.4751,15.88991 21.8355,20.18631 21.0743,32.72839 -8.5723,34.67578 49.7178,36.381 9.0891,30.8757 1.0754,40.10089 39.0377,12.53769 21.5718,28.14117 14.6217,43.67415 44.87,0.53354 30.1861,25.43239 32.0773,45.26274 3.8039,-9.30528 21.8751,-37.63467 22.9624,-6.0918 29.6789,-30.0936 65.4263,-49.53257 68.2648,3.13136 11.9581,-26.49378 23.8803,-37.69113 22.9624,-6.0918 29.6284,-41.09892 56.2536,-26.30524 83.0367,-14.68913 7.0344,-12.40463 7.8541,-31.46172 30.6121,-26.9958 -3.1909,-12.29521 4.4931,-20.74689 21.8463,-25.76585 -23.0596,-7.42718 -27.3094,-15.08815 15.5071,-23.33253 -32.5809,-0.79746 -62.9628,-2.43129 -24.7383,-30.54704 -11.9921,-0.68032 -40.4445,22.78023 -27.1789,-45.87759 -20.621,21.97976 -42.6218,34.11104 -70.2128,-11.93096 -13.0574,23.00167 -35.7052,34.38382 -45.5582,5.6529 -3.5413,12.2485 -18.2256,16.85495 -30.6915,17.41359 -4.8206,-4.86535 -9.7925,-11.4737 -14.9808,-20.13172 -8.48,18.17954 -21.1651,30.4572 -45.5583,5.6529 z"
       id="path3549-3-7"
       inkscape:connector-curvature="0"
       sodipodi:nodetypes="cccccccccccccccccccc" />
    <path
       style="fill:#ffffff;fill-rule:evenodd;stroke:none;stroke-width:1px;stroke-linecap:butt;stroke-linejoin:miter;stroke-opacity:1"
       d="m 1497.7176,575.15777 c 39.3706,13.96771 -22.485,68.10223 -9.329,82.54185 9.0819,9.96796 46.6601,-7.96729 81.4034,37.57991 -40.7385,-30.89398 -73.2809,-5.93721 -92.7166,-17.39889 -36.9131,-21.76848 1.4853,-61.31653 3.4361,-70.97465 2.6091,-12.9174 17.2061,-31.74822 17.2061,-31.74822 z"
       id="path4186"
       inkscape:connector-curvature="0"
       sodipodi:nodetypes="cscssc" />
    <path
       style="fill:#ffffff;fill-rule:evenodd;stroke:none;stroke-width:1px;stroke-linecap:butt;stroke-linejoin:miter;stroke-opacity:1"
       d="m 751.16918,2225.6341 c -27.19224,-20.5338 -42.99463,-54.6914 -41.0873,-88.6975 0.0253,-5.2064 -0.52257,-11.8857 2.08026,-3.3284 2.42629,5.9709 9.87286,20.1787 12.9156,18.5545 -1.74181,-13.1135 -0.38049,-26.1845 1.42097,-39.1432 1.17884,-13.5542 10.39123,16.2867 15.87187,4.5111 -2.96352,-5.0072 -1.69992,-17.7446 3.6961,-6.6971 7.31381,9.2574 9.21416,0.1878 10.87078,-4.6823 7.37286,6.4364 9.15991,1.4279 12.09715,-3.2497 6.12014,4.1974 11.03004,3.8604 13.62468,-2.7509 9.42367,0.084 21.79648,6.9231 23.61264,-7.7597 4.54975,-6.8921 8.88908,8.6515 16.65288,4.1899 15.65105,-1.7329 31.1823,2.2501 46.79694,2.9293 13.11927,1.6936 23.2963,11.1458 33.56853,18.0046 -1.00207,-5.0952 -1.83167,-10.3441 4.99616,-5.2944 6.04122,-0.1228 -8.23274,-19.7418 2.30743,-8.345 13.40277,13.5474 22.03889,30.8562 33.1395,46.1992 9.95581,16.0715 22.97456,30.316 30.23541,48.0237 6.24153,13.7196 11.29652,28.4669 13.74293,43.1501 -2.3268,-5.4538 -11.71817,-17.2448 -10.72236,-4.0771 0.64554,5.8857 -2.61986,24.5969 -7.99617,12.9067 -5.36979,-3.1528 -8.02155,4.9547 -9.64713,-3.7971 -2.61641,-5.7165 -12.91236,-24.2439 -11.52146,-7.7934 -0.24092,6.6123 -0.39269,23.3456 -8.52773,22.6672 -0.71199,-6.4256 -4.35073,-6.7929 -7.47545,-2.8639 -3.47854,-4.1084 -6.67276,-6.4414 -10.54004,-3.8523 -8.49033,-6.1108 -19.90508,-6.7229 -28.50692,-0.5055 -9.56444,4.3212 -12.5154,18.0916 -24.75613,15.2535 -9.1367,1.5914 -16.28373,7.8308 -25.81189,2.606 -8.58247,3.7439 -19.2214,2.1376 -28.10671,-1.0829 -3.29947,-1.4401 -11.62277,-8.8856 -11.3785,-0.7559 -6.43774,2.3897 -19.71548,-8.2393 -20.06829,-5.4782 1.82413,10.9946 -10.76405,-6.012 -13.29134,-9.1584 -6.62097,-9.4733 -14.84659,-18.3884 -18.19241,-29.6829 z"
       id="path4197"
       inkscape:connector-curvature="0" />
    <path
       style="fill:#ffffff;fill-rule:evenodd;stroke:none;stroke-width:1px;stroke-linecap:butt;stroke-linejoin:miter;stroke-opacity:1"
       d="m 655.71365,2302.5013 c -17.95181,20.5248 -7.88993,49.7595 -4.02787,73.5558 -0.78972,16.2387 17.57845,39.6383 15.57416,47.2544 -7.21475,-6.1798 -17.98908,-12.6076 -10.102,2.4169 10.0319,42.6223 40.15124,76.7654 71.60263,105.5666 9.6409,6.3783 39.24557,26.2287 37.16783,12.2719 18.05024,11.2188 39.59756,15.9358 60.12426,20.2636 23.2136,-0.7155 45.82297,4.4752 67.02707,13.8772 21.18136,6.1 44.41079,14.9747 66.24797,6.8143 -8.57674,-29.1021 28.28246,-1.864 42.058,-12.2265 12.3214,4.1965 43.2785,-3.3456 64.0517,-7.9706 20.7858,-4.8164 41.4399,-11.6123 60.5369,-21.2018 13.344,0.8037 35.7139,-5.9936 50.0218,-22.2529 12.4803,3.9218 27.7058,-52.2992 23.4612,-64.4068 -3.3644,-20.2048 -1.8657,-42.5784 -5.9053,-58.4741 -1.997,-18.9092 -18.76,-29.0094 -24.6379,-46.9387 -13.878,-31.764 -39.0729,-57.1493 -69.2157,-73.8592 -25.1131,-13.924 -51.6488,-27.8143 -80.1469,-32.6157 -18.5871,-0.5224 15.9303,20.3323 -7.1188,9.189 -17.4276,-11.8266 2.3551,15.1852 -11.0725,3.9596 -7.54412,-8.8284 -22.96577,-16.1763 -17.20129,3.1015 -0.92588,7.6934 -7.34333,1.3714 -11.32524,8.1611 -19.93181,-12.1868 -42.31986,-3.0684 -64.27164,-2.9102 -12.09945,-1.439 -30.84932,7.2976 -36.40506,-8.4172 0.10893,19.0419 -19.04633,0.6582 -21.07068,19.1936 -9.14413,-4.7883 -24.2477,-15.7126 -25.84868,1.7217 -15.28777,14.8522 -36.47274,-12.9075 -46.11501,-6.9103 5.40502,29.4334 -21.049,4.3397 -30.7739,-2.535 -2.09311,32.6451 -33.88855,-6.2824 -47.70874,-1.3953 14.7217,18.6788 -4.93413,36.0141 -23.91662,23.5616 8.9958,29.8625 -9.41126,6.8787 -21.00969,11.2055 z"
       id="path4236"
       inkscape:connector-curvature="0"
       sodipodi:nodetypes="ccccccccccccccccccccccccccccccc" />
    <path
       style="color:#000000;display:inline;overflow:visible;visibility:visible;fill:#ffffff;fill-opacity:1;fill-rule:nonzero;stroke:none;stroke-width:1px;marker:none;enable-background:accumulate"
       d="m 1154.4525,2480.363 c 77.6054,-20.2135 190.5062,-29.0114 200.0628,61.8536 46.6722,17.982 92.2731,10.9105 127.8862,96.224 -34.6047,-47.1488 -65.9093,-63.8257 -151.2113,-90.3725 -13.8401,-46.2271 -83.2495,-67.9956 -171.2273,-31.572 -87.9781,36.4236 -60.4008,31.3682 -60.4008,31.3682 l 28.5919,-57.398 z"
       id="path5074"
       inkscape:connector-curvature="0"
       sodipodi:nodetypes="ccccsccc" />
  </g>
  <g
     inkscape:groupmode="layer"
     id="layer1"
     inkscape:label="txt"
     style="display:inline">
    <text
       xml:space="preserve"
       style="font-style:normal;font-variant:normal;font-weight:normal;font-stretch:normal;font-size:12px;line-height:125%;font-family:Lavi;-inkscape-font-specification:Lavi;text-align:center;letter-spacing:0px;word-spacing:0px;text-anchor:middle;fill:#000000;fill-opacity:1;stroke:none"
       x="1224.7714"
       y="265.99097"
       id="text4246"
       sodipodi:linespacing="125%"><tspan
         sodipodi:role="line"
         style="font-size:45px"
         x="1224.7714"
         y="265.99097"
         id="tspan4252">¡ Ji ji !</tspan></text>
    <text
       xml:space="preserve"
       style="font-style:normal;font-variant:normal;font-weight:normal;font-stretch:normal;font-size:12px;line-height:125%;font-family:Lavi;-inkscape-font-specification:Lavi;text-align:center;letter-spacing:0px;word-spacing:0px;text-anchor:middle;fill:#000000;fill-opacity:1;stroke:none"
       x="1427.9531"
       y="383.46786"
       id="text4246-5"
       sodipodi:linespacing="125%"><tspan
         sodipodi:role="line"
         style="font-size:45px"
         x="1427.9531"
         y="383.46786"
         id="tspan4166">¡Diantres! ¡Parece ser</tspan><tspan
         sodipodi:role="line"
         style="font-size:45px"
         x="1427.9531"
         y="439.71786"
         id="tspan3365">un poco mas</tspan><tspan
         sodipodi:role="line"
         style="font-size:45px"
         x="1427.9531"
         y="495.96786"
         id="tspan3367">complicado de lo que</tspan><tspan
         sodipodi:role="line"
         style="font-size:45px"
         x="1427.9531"
         y="552.2179"
         id="tspan3369">yo había planeado!</tspan></text>
    <text
       xml:space="preserve"
       style="font-style:normal;font-variant:normal;font-weight:normal;font-stretch:normal;font-size:14.57404613px;line-height:125%;font-family:Lavi;-inkscape-font-specification:Lavi;text-align:center;letter-spacing:0px;word-spacing:0px;text-anchor:middle;fill:#000000;fill-opacity:1;stroke:none"
       x="847.05945"
       y="2205.2585"
       id="text4246-2"
       sodipodi:linespacing="125%"
       transform="scale(0.99940856,1.0005918)"><tspan
         sodipodi:role="line"
         style="font-size:54.65267181px"
         x="847.05945"
         y="2205.2585"
         id="tspan4252-4">¡PUfff!</tspan></text>
    <text
       xml:space="preserve"
       style="font-style:normal;font-variant:normal;font-weight:normal;font-stretch:normal;font-size:12px;line-height:125%;font-family:Lavi;-inkscape-font-specification:Lavi;text-align:center;letter-spacing:0px;word-spacing:0px;text-anchor:middle;fill:#000000;fill-opacity:1;stroke:none"
       x="940.94598"
       y="2368.9385"
       id="text4246-2-2"
       sodipodi:linespacing="125%"><tspan
         sodipodi:role="line"
         style="font-size:45px"
         x="940.94598"
         y="2368.9385"
         id="tspan4234">...¡ Y yo creí que</tspan><tspan
         sodipodi:role="line"
         style="font-size:45px"
         x="948.85614"
         y="2425.1885"
         id="tspan3380">sería mas facil con </tspan><tspan
         sodipodi:role="line"
         style="font-size:45px"
         x="940.94598"
         y="2481.4385"
         id="tspan3382">un Dragón del Viento !</tspan></text>
  </g>
</svg>
